<svg width="165" height="75" viewBox="0 0 165 75" fill="none" xmlns="http://www.w3.org/2000/svg">
<g filter="url(#filter0_d_25_965)">
<rect x="3.18359" y="1.18359" width="158.633" height="66.6328" rx="16.5703" fill="url(#paint0_linear_25_965)" stroke="black" stroke-width="2.36719"/>
<g filter="url(#filter1_f_25_965)">
<rect x="5.07031" y="2.98364" width="154.859" height="63.0328" rx="14.2031" stroke="url(#paint1_linear_25_965)" stroke-width="2.36719"/>
</g>
<g style="mix-blend-mode:overlay">
<rect x="7.66016" y="4.80005" width="149.994" height="34.5" rx="10.6523" fill="url(#paint2_linear_25_965)"/>
</g>
<g filter="url(#filter2_d_25_965)">
<mask id="path-4-outside-1_25_965" maskUnits="userSpaceOnUse" x="65.7109" y="24.5625" width="37" height="16" fill="black">
<rect fill="white" x="65.7109" y="24.5625" width="37" height="16"/>
<path d="M76.0393 29.7015C76.0393 31.0188 75.4693 32.0195 74.3293 32.7035C74.9499 32.9315 75.4693 33.3242 75.8873 33.8815C76.3053 34.4388 76.5143 35.2305 76.5143 36.2565C76.5143 37.2698 76.1343 38.0742 75.3743 38.6695C74.6269 39.2648 73.5503 39.5625 72.1443 39.5625H67.6603C67.4449 39.5625 67.2676 39.4928 67.1283 39.3535C66.9889 39.2015 66.9193 39.0052 66.9193 38.7645V26.6045C66.9193 26.4652 66.9383 26.3765 66.9763 26.3385C67.0269 26.2878 67.1219 26.2625 67.2613 26.2625H71.5933C74.5573 26.2625 76.0393 27.4088 76.0393 29.7015ZM70.5673 29.3405V31.8295H70.6623C71.8783 31.8295 72.4863 31.4242 72.4863 30.6135C72.4863 30.1702 72.3659 29.8472 72.1253 29.6445C71.8973 29.4418 71.5109 29.3405 70.9663 29.3405H70.5673ZM70.5673 34.0715V36.5415H70.9093C71.4539 36.5415 71.8529 36.4402 72.1063 36.2375C72.3596 36.0348 72.4863 35.7118 72.4863 35.2685C72.4863 34.8252 72.3659 34.5148 72.1253 34.3375C71.8973 34.1602 71.5109 34.0715 70.9663 34.0715H70.5673ZM84.2045 26.6425C84.2045 26.3892 84.8885 26.2625 86.2565 26.2625C87.6372 26.2625 88.3275 26.3892 88.3275 26.6425V35.3635C88.3275 36.6555 87.8652 37.7132 86.9405 38.5365C86.0158 39.3472 84.7365 39.7525 83.1025 39.7525C81.4812 39.7525 80.1575 39.3345 79.1315 38.4985C78.1182 37.6498 77.6115 36.5098 77.6115 35.0785V26.6615C77.6115 26.4082 78.2955 26.2815 79.6635 26.2815C81.0442 26.2815 81.7345 26.4082 81.7345 26.6615V35.2305C81.7345 35.4838 81.8675 35.6865 82.1335 35.8385C82.4122 35.9905 82.7035 36.0665 83.0075 36.0665C83.3115 36.0665 83.5838 35.9968 83.8245 35.8575C84.0778 35.7182 84.2045 35.5092 84.2045 35.2305V26.6425ZM96.5342 26.8895C96.6988 26.4462 97.5095 26.2245 98.9662 26.2245C99.3335 26.2245 99.7642 26.2498 100.258 26.3005C100.765 26.3512 100.999 26.4145 100.961 26.4905L97.0092 34.4325V39.0685C97.0092 39.2838 96.6608 39.4358 95.9642 39.5245C95.6095 39.5752 95.2612 39.6005 94.9192 39.6005C94.5772 39.6005 94.2352 39.5815 93.8932 39.5435C93.1965 39.4548 92.8482 39.2965 92.8482 39.0685V34.5465L88.7632 26.5285C88.7125 26.4525 88.9722 26.3828 89.5422 26.3195C90.1122 26.2435 90.5935 26.2055 90.9862 26.2055C92.5442 26.2055 93.3992 26.4335 93.5512 26.8895L94.9382 30.7655L96.5342 26.8895Z"/>
</mask>
<path d="M76.0393 29.7015C76.0393 31.0188 75.4693 32.0195 74.3293 32.7035C74.9499 32.9315 75.4693 33.3242 75.8873 33.8815C76.3053 34.4388 76.5143 35.2305 76.5143 36.2565C76.5143 37.2698 76.1343 38.0742 75.3743 38.6695C74.6269 39.2648 73.5503 39.5625 72.1443 39.5625H67.6603C67.4449 39.5625 67.2676 39.4928 67.1283 39.3535C66.9889 39.2015 66.9193 39.0052 66.9193 38.7645V26.6045C66.9193 26.4652 66.9383 26.3765 66.9763 26.3385C67.0269 26.2878 67.1219 26.2625 67.2613 26.2625H71.5933C74.5573 26.2625 76.0393 27.4088 76.0393 29.7015ZM70.5673 29.3405V31.8295H70.6623C71.8783 31.8295 72.4863 31.4242 72.4863 30.6135C72.4863 30.1702 72.3659 29.8472 72.1253 29.6445C71.8973 29.4418 71.5109 29.3405 70.9663 29.3405H70.5673ZM70.5673 34.0715V36.5415H70.9093C71.4539 36.5415 71.8529 36.4402 72.1063 36.2375C72.3596 36.0348 72.4863 35.7118 72.4863 35.2685C72.4863 34.8252 72.3659 34.5148 72.1253 34.3375C71.8973 34.1602 71.5109 34.0715 70.9663 34.0715H70.5673ZM84.2045 26.6425C84.2045 26.3892 84.8885 26.2625 86.2565 26.2625C87.6372 26.2625 88.3275 26.3892 88.3275 26.6425V35.3635C88.3275 36.6555 87.8652 37.7132 86.9405 38.5365C86.0158 39.3472 84.7365 39.7525 83.1025 39.7525C81.4812 39.7525 80.1575 39.3345 79.1315 38.4985C78.1182 37.6498 77.6115 36.5098 77.6115 35.0785V26.6615C77.6115 26.4082 78.2955 26.2815 79.6635 26.2815C81.0442 26.2815 81.7345 26.4082 81.7345 26.6615V35.2305C81.7345 35.4838 81.8675 35.6865 82.1335 35.8385C82.4122 35.9905 82.7035 36.0665 83.0075 36.0665C83.3115 36.0665 83.5838 35.9968 83.8245 35.8575C84.0778 35.7182 84.2045 35.5092 84.2045 35.2305V26.6425ZM96.5342 26.8895C96.6988 26.4462 97.5095 26.2245 98.9662 26.2245C99.3335 26.2245 99.7642 26.2498 100.258 26.3005C100.765 26.3512 100.999 26.4145 100.961 26.4905L97.0092 34.4325V39.0685C97.0092 39.2838 96.6608 39.4358 95.9642 39.5245C95.6095 39.5752 95.2612 39.6005 94.9192 39.6005C94.5772 39.6005 94.2352 39.5815 93.8932 39.5435C93.1965 39.4548 92.8482 39.2965 92.8482 39.0685V34.5465L88.7632 26.5285C88.7125 26.4525 88.9722 26.3828 89.5422 26.3195C90.1122 26.2435 90.5935 26.2055 90.9862 26.2055C92.5442 26.2055 93.3992 26.4335 93.5512 26.8895L94.9382 30.7655L96.5342 26.8895Z" fill="#F4F7EE"/>
<path d="M74.3293 32.7035L73.9233 32.0269L72.509 32.8755L74.0572 33.4442L74.3293 32.7035ZM75.8873 33.8815L76.5185 33.4081H76.5185L75.8873 33.8815ZM75.3743 38.6695L74.8877 38.0483L74.8826 38.0523L75.3743 38.6695ZM67.1283 39.3535L66.5466 39.8867L66.5582 39.8993L66.5703 39.9115L67.1283 39.3535ZM66.9763 26.3385L66.4183 25.7805L66.4183 25.7806L66.9763 26.3385ZM70.5673 29.3405V28.5514H69.7782V29.3405H70.5673ZM70.5673 31.8295H69.7782V32.6186H70.5673V31.8295ZM72.1253 29.6445L71.601 30.2343L71.6089 30.2413L71.617 30.2481L72.1253 29.6445ZM70.5673 34.0715V33.2824H69.7782V34.0715H70.5673ZM70.5673 36.5415H69.7782V37.3306H70.5673V36.5415ZM72.1063 36.2375L72.5992 36.8537H72.5992L72.1063 36.2375ZM72.1253 34.3375L71.6408 34.9603L71.6489 34.9667L71.6572 34.9727L72.1253 34.3375ZM75.2502 29.7015C75.2502 30.7385 74.8283 31.4839 73.9233 32.0269L74.7352 33.3801C76.1102 32.5551 76.8283 31.2991 76.8283 29.7015H75.2502ZM74.0572 33.4442C74.527 33.6168 74.9243 33.9126 75.256 34.3549L76.5185 33.4081C76.0142 32.7357 75.3729 32.2462 74.6013 31.9628L74.0572 33.4442ZM75.256 34.3549C75.5333 34.7247 75.7252 35.324 75.7252 36.2565H77.3033C77.3033 35.137 77.0772 34.153 76.5185 33.4081L75.256 34.3549ZM75.7252 36.2565C75.7252 37.0413 75.446 37.611 74.8877 38.0483L75.8608 39.2907C76.8225 38.5374 77.3033 37.4984 77.3033 36.2565H75.7252ZM74.8826 38.0523C74.3275 38.4946 73.4529 38.7734 72.1443 38.7734V40.3516C73.6476 40.3516 74.9264 40.0351 75.8659 39.2867L74.8826 38.0523ZM72.1443 38.7734H67.6603V40.3516H72.1443V38.7734ZM67.6603 38.7734C67.649 38.7734 67.6439 38.7725 67.6437 38.7725C67.6436 38.7725 67.6446 38.7727 67.6466 38.7732C67.6485 38.7737 67.6511 38.7746 67.6543 38.7758C67.6609 38.7784 67.668 38.7821 67.6745 38.7864C67.681 38.7907 67.6849 38.7942 67.6862 38.7955L66.5703 39.9115C66.8721 40.2132 67.257 40.3516 67.6603 40.3516V38.7734ZM67.7099 38.8203C67.7104 38.8208 67.7118 38.8226 67.7134 38.8252C67.715 38.8278 67.7154 38.8293 67.7151 38.8284C67.7146 38.827 67.7083 38.8086 67.7083 38.7645H66.1302C66.1302 39.1674 66.2519 39.5652 66.5466 39.8867L67.7099 38.8203ZM67.7083 38.7645V26.6045H66.1302V38.7645H67.7083ZM67.7083 26.6045C67.7083 26.5642 67.7116 26.5681 67.7051 26.5988C67.7015 26.6156 67.6923 26.6526 67.6709 26.7003C67.6497 26.7474 67.6089 26.8218 67.5342 26.8964L66.4183 25.7806C66.2408 25.9581 66.1838 26.1662 66.162 26.2682C66.1364 26.3876 66.1302 26.5055 66.1302 26.6045H67.7083ZM67.5342 26.8965C67.4315 26.9992 67.3277 27.0336 67.2888 27.0439C67.2488 27.0546 67.2342 27.0516 67.2613 27.0516V25.4734C67.0866 25.4734 66.7061 25.4928 66.4183 25.7805L67.5342 26.8965ZM67.2613 27.0516H71.5933V25.4734H67.2613V27.0516ZM71.5933 27.0516C72.9955 27.0516 73.9021 27.3265 74.445 27.7464C74.9494 28.1365 75.2502 28.7387 75.2502 29.7015H76.8283C76.8283 28.3716 76.3881 27.2543 75.4105 26.4981C74.4714 25.7717 73.155 25.4734 71.5933 25.4734V27.0516ZM69.7782 29.3405V31.8295H71.3563V29.3405H69.7782ZM70.5673 32.6186H70.6623V31.0404H70.5673V32.6186ZM70.6623 32.6186C71.333 32.6186 71.9741 32.5113 72.4679 32.182C73.0183 31.8151 73.2753 31.2487 73.2753 30.6135H71.6972C71.6972 30.7171 71.6781 30.7693 71.6665 30.7926C71.6565 30.8126 71.6392 30.8379 71.5926 30.869C71.4784 30.945 71.2075 31.0404 70.6623 31.0404V32.6186ZM73.2753 30.6135C73.2753 30.0365 73.1162 29.4474 72.6335 29.0409L71.617 30.2481C71.6235 30.2536 71.6393 30.2677 71.6566 30.3142C71.676 30.3664 71.6972 30.4603 71.6972 30.6135H73.2753ZM72.6495 29.0547C72.2 28.6552 71.5673 28.5514 70.9663 28.5514V30.1296C71.1937 30.1296 71.3553 30.1511 71.4643 30.1797C71.5731 30.2083 71.6041 30.2369 71.601 30.2343L72.6495 29.0547ZM70.9663 28.5514H70.5673V30.1296H70.9663V28.5514ZM69.7782 34.0715V36.5415H71.3563V34.0715H69.7782ZM70.5673 37.3306H70.9093V35.7524H70.5673V37.3306ZM70.9093 37.3306C71.5219 37.3306 72.1386 37.2221 72.5992 36.8537L71.6133 35.6213C71.5672 35.6582 71.386 35.7524 70.9093 35.7524V37.3306ZM72.5992 36.8537C73.1021 36.4513 73.2753 35.8582 73.2753 35.2685H71.6972C71.6972 35.5655 71.6171 35.6184 71.6133 35.6213L72.5992 36.8537ZM73.2753 35.2685C73.2753 34.7009 73.1197 34.0901 72.5933 33.7023L71.6572 34.9727C71.6435 34.9627 71.648 34.9567 71.6603 34.9885C71.6756 35.028 71.6972 35.1139 71.6972 35.2685H73.2753ZM72.6097 33.7147C72.1653 33.369 71.5521 33.2824 70.9663 33.2824V34.8606C71.1996 34.8606 71.3697 34.8799 71.488 34.9071C71.6084 34.9347 71.6448 34.9634 71.6408 34.9603L72.6097 33.7147ZM70.9663 33.2824H70.5673V34.8606H70.9663V33.2824ZM86.9405 38.5365L87.4607 39.1298L87.4652 39.1258L86.9405 38.5365ZM79.1315 38.4985L78.6248 39.1035L78.6331 39.1102L79.1315 38.4985ZM82.1335 35.8385L81.742 36.5236L81.7488 36.5275L81.7557 36.5312L82.1335 35.8385ZM83.8245 35.8575L83.4442 35.1661L83.4367 35.1703L83.4292 35.1746L83.8245 35.8575ZM84.9936 26.6425C84.9936 27.0019 84.7335 27.1563 84.716 27.166C84.6902 27.1803 84.7195 27.1596 84.8612 27.1334C85.1298 27.0836 85.584 27.0516 86.2565 27.0516V25.4734C85.561 25.4734 84.9892 25.5047 84.5738 25.5816C84.3735 25.6187 84.1464 25.6772 83.9496 25.7865C83.761 25.8912 83.4154 26.1564 83.4154 26.6425H84.9936ZM86.2565 27.0516C86.9355 27.0516 87.3949 27.0836 87.6673 27.1336C87.811 27.16 87.8421 27.181 87.8176 27.1675C87.803 27.1595 87.5384 27.0057 87.5384 26.6425H89.1166C89.1166 26.1527 88.7657 25.888 88.5786 25.785C88.3814 25.6765 88.1537 25.6184 87.9522 25.5814C87.5342 25.5047 86.9582 25.4734 86.2565 25.4734V27.0516ZM87.5384 26.6425V35.3635H89.1166V26.6425H87.5384ZM87.5384 35.3635C87.5384 36.4415 87.1642 37.2808 86.4158 37.9472L87.4652 39.1258C88.5662 38.1455 89.1166 36.8695 89.1166 35.3635H87.5384ZM86.4203 37.9432C85.6813 38.5911 84.6089 38.9634 83.1025 38.9634V40.5416C84.8641 40.5416 86.3504 40.1032 87.4607 39.1298L86.4203 37.9432ZM83.1025 38.9634C81.6206 38.9634 80.4856 38.584 79.6299 37.8868L78.6331 39.1102C79.8294 40.085 81.3418 40.5416 83.1025 40.5416V38.9634ZM79.6381 37.8936C78.82 37.2084 78.4006 36.2983 78.4006 35.0785H76.8224C76.8224 36.7213 77.4163 38.0913 78.6249 39.1034L79.6381 37.8936ZM78.4006 35.0785V26.6615H76.8224V35.0785H78.4006ZM78.4006 26.6615C78.4006 27.0209 78.1405 27.1753 78.123 27.185C78.0972 27.1993 78.1265 27.1786 78.2682 27.1524C78.5368 27.1026 78.991 27.0706 79.6635 27.0706V25.4924C78.968 25.4924 78.3962 25.5237 77.9808 25.6006C77.7805 25.6377 77.5534 25.6962 77.3566 25.8055C77.168 25.9102 76.8224 26.1754 76.8224 26.6615H78.4006ZM79.6635 27.0706C80.3425 27.0706 80.8019 27.1026 81.0743 27.1526C81.218 27.179 81.2491 27.2 81.2246 27.1865C81.21 27.1785 80.9454 27.0247 80.9454 26.6615H82.5236C82.5236 26.1717 82.1727 25.907 81.9856 25.804C81.7884 25.6955 81.5607 25.6374 81.3592 25.6004C80.9412 25.5237 80.3652 25.4924 79.6635 25.4924V27.0706ZM80.9454 26.6615V35.2305H82.5236V26.6615H80.9454ZM80.9454 35.2305C80.9454 35.8306 81.2909 36.2658 81.742 36.5236L82.525 35.1534C82.4722 35.1233 82.4766 35.1131 82.4939 35.1396C82.5027 35.153 82.5112 35.1704 82.5169 35.1901C82.5226 35.2095 82.5236 35.224 82.5236 35.2305H80.9454ZM81.7557 36.5312C82.1449 36.7435 82.5656 36.8556 83.0075 36.8556V35.2774C82.8414 35.2774 82.6794 35.2375 82.5113 35.1458L81.7557 36.5312ZM83.0075 36.8556C83.437 36.8556 83.848 36.7556 84.2199 36.5404L83.4292 35.1746C83.3197 35.238 83.186 35.2774 83.0075 35.2774V36.8556ZM84.2048 36.5489C84.4304 36.4248 84.6371 36.2481 84.7843 36.0052C84.9324 35.7609 84.9936 35.4934 84.9936 35.2305H83.4154C83.4154 35.2402 83.4144 35.2383 83.417 35.2281C83.4199 35.2172 83.4254 35.2025 83.4347 35.1873C83.4439 35.1721 83.4529 35.1625 83.4576 35.1583C83.4617 35.1545 83.459 35.158 83.4442 35.1661L84.2048 36.5489ZM84.9936 35.2305V26.6425H83.4154V35.2305H84.9936ZM96.5342 26.8895L97.2638 27.1899L97.2691 27.1772L97.2739 27.1642L96.5342 26.8895ZM100.258 26.3005L100.178 27.0854L100.18 27.0856L100.258 26.3005ZM100.961 26.4905L100.255 26.1376L100.255 26.139L100.961 26.4905ZM97.0092 34.4325L96.3027 34.081L96.2201 34.247V34.4325H97.0092ZM95.9642 39.5245L95.8645 38.7417L95.8526 38.7434L95.9642 39.5245ZM93.8932 39.5435L93.7935 40.3263L93.806 40.3277L93.8932 39.5435ZM92.8482 34.5465H93.6372V34.3571L93.5512 34.1883L92.8482 34.5465ZM88.7632 26.5285L89.4662 26.1703L89.4453 26.1292L89.4197 26.0908L88.7632 26.5285ZM89.5422 26.3195L89.6293 27.1037L89.6379 27.1028L89.6465 27.1016L89.5422 26.3195ZM93.5512 26.8895L92.8026 27.139L92.8053 27.1472L92.8082 27.1554L93.5512 26.8895ZM94.9382 30.7655L94.1952 31.0314L94.8866 32.9632L95.6678 31.0659L94.9382 30.7655ZM97.2739 27.1642C97.2173 27.3165 97.1289 27.2462 97.4738 27.1519C97.7794 27.0683 98.2648 27.0136 98.9662 27.0136V25.4354C98.2109 25.4354 97.5626 25.4915 97.0575 25.6296C96.5917 25.757 96.0157 26.0192 95.7945 26.6148L97.2739 27.1642ZM98.9662 27.0136C99.2992 27.0136 99.7018 27.0366 100.178 27.0854L100.339 25.5156C99.8265 25.463 99.3678 25.4354 98.9662 25.4354V27.0136ZM100.18 27.0856C100.426 27.1103 100.557 27.134 100.608 27.1477C100.649 27.1588 100.577 27.1467 100.482 27.0794C100.432 27.044 100.309 26.9467 100.233 26.7638C100.142 26.5438 100.167 26.3144 100.255 26.1376L101.667 26.8434C101.765 26.6476 101.79 26.3996 101.692 26.1614C101.609 25.9602 101.47 25.8451 101.395 25.7924C101.251 25.6902 101.096 25.6448 101.02 25.6243C100.836 25.5747 100.597 25.5414 100.337 25.5154L100.18 27.0856ZM100.255 26.139L96.3027 34.081L97.7156 34.784L101.668 26.842L100.255 26.139ZM96.2201 34.4325V39.0685H97.7982V34.4325H96.2201ZM96.2201 39.0685C96.2201 38.8854 96.3019 38.7484 96.3713 38.6752C96.4275 38.6159 96.4666 38.6059 96.4323 38.6208C96.4039 38.6332 96.3451 38.654 96.2443 38.6772C96.1456 38.6999 96.0201 38.7219 95.8645 38.7418L96.0638 40.3072C96.4349 40.26 96.7852 40.1887 97.0635 40.0672C97.2916 39.9677 97.7982 39.6833 97.7982 39.0685H96.2201ZM95.8526 38.7434C95.5331 38.789 95.2221 38.8114 94.9192 38.8114V40.3896C95.3002 40.3896 95.6859 40.3613 96.0758 40.3056L95.8526 38.7434ZM94.9192 38.8114C94.6065 38.8114 94.2935 38.7941 93.9803 38.7593L93.806 40.3277C94.1768 40.3689 94.5479 40.3896 94.9192 40.3896V38.8114ZM93.9928 38.7608C93.8383 38.7411 93.7144 38.7189 93.6175 38.696C93.5184 38.6726 93.462 38.6518 93.4359 38.6399C93.405 38.6258 93.4447 38.6372 93.4995 38.6981C93.567 38.7729 93.6372 38.9028 93.6372 39.0685H92.0591C92.0591 39.668 92.5334 39.9632 92.7829 40.0766C93.0658 40.2052 93.4207 40.2788 93.7935 40.3262L93.9928 38.7608ZM93.6372 39.0685V34.5465H92.0591V39.0685H93.6372ZM93.5512 34.1883L89.4662 26.1703L88.0601 26.8867L92.1451 34.9047L93.5512 34.1883ZM89.4197 26.0908C89.5279 26.2531 89.5965 26.5038 89.5007 26.7687C89.4241 26.9806 89.2804 27.0881 89.2345 27.12C89.1408 27.1854 89.0719 27.1954 89.1244 27.1814C89.1928 27.163 89.35 27.1348 89.6293 27.1037L89.455 25.5353C89.1644 25.5676 88.9067 25.6058 88.7155 25.6571C88.6381 25.6779 88.4782 25.7236 88.3322 25.8253C88.2602 25.8755 88.1001 26.0014 88.0167 26.2319C87.9142 26.5154 87.9858 26.7849 88.1066 26.9662L89.4197 26.0908ZM89.6465 27.1016C90.1962 27.0283 90.6403 26.9946 90.9862 26.9946V25.4164C90.5467 25.4164 90.0281 25.4587 89.4379 25.5374L89.6465 27.1016ZM90.9862 26.9946C91.7401 26.9946 92.2633 27.0511 92.5926 27.1389C92.9723 27.2402 92.8613 27.3151 92.8026 27.139L94.2997 26.64C94.089 26.0079 93.4745 25.7408 92.9992 25.6141C92.4735 25.4739 91.7902 25.4164 90.9862 25.4164V26.9946ZM92.8082 27.1554L94.1952 31.0314L95.6811 30.4996L94.2941 26.6236L92.8082 27.1554ZM95.6678 31.0659L97.2638 27.1899L95.8045 26.5891L94.2085 30.4651L95.6678 31.0659Z" fill="#14110C" mask="url(#path-4-outside-1_25_965)"/>
</g>
</g>
<defs>
<filter id="filter0_d_25_965" x="0.421875" y="0" width="164.156" height="74.5234" filterUnits="userSpaceOnUse" color-interpolation-filters="sRGB">
<feFlood flood-opacity="0" result="BackgroundImageFix"/>
<feColorMatrix in="SourceAlpha" type="matrix" values="0 0 0 0 0 0 0 0 0 0 0 0 0 0 0 0 0 0 127 0" result="hardAlpha"/>
<feOffset dy="3.94531"/>
<feGaussianBlur stdDeviation="0.789062"/>
<feComposite in2="hardAlpha" operator="out"/>
<feColorMatrix type="matrix" values="0 0 0 0 0 0 0 0 0 0 0 0 0 0 0 0 0 0 0.18 0"/>
<feBlend mode="normal" in2="BackgroundImageFix" result="effect1_dropShadow_25_965"/>
<feBlend mode="normal" in="SourceGraphic" in2="effect1_dropShadow_25_965" result="shape"/>
</filter>
<filter id="filter1_f_25_965" x="3.09766" y="1.01099" width="158.805" height="66.978" filterUnits="userSpaceOnUse" color-interpolation-filters="sRGB">
<feFlood flood-opacity="0" result="BackgroundImageFix"/>
<feBlend mode="normal" in="SourceGraphic" in2="BackgroundImageFix" result="shape"/>
<feGaussianBlur stdDeviation="0.394531" result="effect1_foregroundBlur_25_965"/>
</filter>
<filter id="filter2_d_25_965" x="66.9192" y="26.2056" width="34.0989" height="15.9141" filterUnits="userSpaceOnUse" color-interpolation-filters="sRGB">
<feFlood flood-opacity="0" result="BackgroundImageFix"/>
<feColorMatrix in="SourceAlpha" type="matrix" values="0 0 0 0 0 0 0 0 0 0 0 0 0 0 0 0 0 0 127 0" result="hardAlpha"/>
<feOffset dy="2.36719"/>
<feComposite in2="hardAlpha" operator="out"/>
<feColorMatrix type="matrix" values="0 0 0 0 0.0784314 0 0 0 0 0.0666667 0 0 0 0 0.0470588 0 0 0 1 0"/>
<feBlend mode="normal" in2="BackgroundImageFix" result="effect1_dropShadow_25_965"/>
<feBlend mode="normal" in="SourceGraphic" in2="effect1_dropShadow_25_965" result="shape"/>
</filter>
<linearGradient id="paint0_linear_25_965" x1="82.5" y1="0" x2="82.5" y2="69" gradientUnits="userSpaceOnUse">
<stop stop-color="#AAD971"/>
<stop offset="1" stop-color="#77AA4E"/>
</linearGradient>
<linearGradient id="paint1_linear_25_965" x1="82.5" y1="1.80005" x2="82.5" y2="67.2" gradientUnits="userSpaceOnUse">
<stop stop-color="#F7FDE7"/>
<stop offset="0.161458" stop-color="#95C550"/>
<stop offset="0.854167" stop-color="#7AA745"/>
<stop offset="1" stop-color="#547D37"/>
</linearGradient>
<linearGradient id="paint2_linear_25_965" x1="82.6572" y1="4.80005" x2="82.6572" y2="39.3" gradientUnits="userSpaceOnUse">
<stop stop-color="white" stop-opacity="0.94"/>
<stop offset="1" stop-color="white" stop-opacity="0.15"/>
</linearGradient>
</defs>
</svg>
