<?xml version="1.0" encoding="utf-8"?>
<!-- Generator: Adobe Illustrator 27.5.0, SVG Export Plug-In . SVG Version: 6.00 Build 0)  -->
<svg version="1.1" xmlns="http://www.w3.org/2000/svg" xmlns:xlink="http://www.w3.org/1999/xlink" x="0px" y="0px"
	 viewBox="0 0 750 500" style="enable-background:new 0 0 750 500;" xml:space="preserve">
<g id="BACKGROUND">
	<rect style="fill:#4A0D9E;" width="750" height="500"/>
</g>
<g id="OBJECTS">
	<g>
		<defs>
			<rect id="SVGID_1_" y="0" width="750" height="500"/>
		</defs>
		<clipPath id="SVGID_00000031915290142857747250000013352087635529302178_">
			<use xlink:href="#SVGID_1_"  style="overflow:visible;"/>
		</clipPath>
		<g style="clip-path:url(#SVGID_00000031915290142857747250000013352087635529302178_);">
			<path style="fill:#4A0D9E;" d="M761.439,216.067c0,11.66,0,23.32,0,34.98c-5.252,0.474-8.66,3.829-11.746,7.604
				c-5.024,6.145-8.881,13.042-12.422,20.09c-18.551,36.925-37.356,73.707-59.972,108.387
				c-18.571,28.478-37.677,56.577-62.555,80.108c-20.662,19.544-43.922,32.689-73.935,28.74
				c-20.309-2.672-35.505-11.76-42.74-31.763c-2.379-6.579-4.209-13.299-5.595-20.159c-4.57-22.611-5.396-45.722-9.237-68.431
				c-3.836-22.682-11.811-43.092-30.616-57.925c-9.362-7.384-19.952-12.501-30.523-17.787
				c-25.852-12.927-52.923-19.034-81.904-15.938c-21.76,2.325-43.252,6.404-64.876,9.601c-23.51,3.476-47.018,5.092-70.699,2.606
				c-7.18-0.754-14.225-2.383-21.063-4.725c-2.244-0.769-4.937-1.928-5.042-4.54c-0.101-2.533,2.161-4.1,4.49-5.089
				c3.471-1.473,6.847-3.248,10.426-4.38c44.025-13.924,85.606-32.893,123.661-59.244c11.85-8.205,24.014-16.041,32.641-27.935
				c10.543-14.534,10.863-29.827,2.478-45.354c-5.608-10.384-14.579-17.602-24.234-24.017
				c-22.099-14.683-47.245-22.426-71.869-31.331c-10.771-3.896-21.998-5.446-33.419-4.971c-22.829,0.95-45.6,2.851-68.155,6.484
				c-17.273,2.782-33.143,8.928-45.194,22.485c-6.689,7.524-11.583,16.176-15.67,25.259c-9.589,21.308-19.823,42.18-34.461,60.665
				c-19.889,25.115-43.454,46.678-66.117,69.12c-1.189,1.177-2.833,1.895-4.266,2.827c-0.007-3.191-0.013-6.383-0.02-9.574
				c2.716-0.857,4.655-2.795,6.639-4.695c6.452-6.179,12.159-13.022,17.815-19.905c15.407-18.751,27.732-39.039,31.642-63.513
				c2.828-17.7,2.572-35.503,1.951-53.327c-0.549-15.751-1.393-31.5,0.507-47.235c2.654-21.974,13.532-38.078,33.752-47.592
				c5.743-2.702,11.471-5.444,17.299-7.952c14.895-6.411,28.57-14.836,41.426-24.648c11.525-0.008,23.049-0.016,34.574-0.025
				c-0.689,0.976-1.348,1.976-2.073,2.925c-9.604,12.574-6.449,23.859,8.376,29.588c9.603,3.711,19.51,3.521,29.452,1.771
				c17.524-3.083,34.64-8.44,52.573-9.263c10.792-0.496,21.225-3.846,31.961-4.516c37.126-2.318,72.522,5.288,106.783,19.171
				c24.197,9.805,45.51,24.651,67.533,38.245c24.291,14.995,47.841,30.978,66.92,52.618c1.459,1.655,3.279,3.026,5.055,4.365
				c10.196,7.686,19.822,7.949,30.388,0.697c2.672-1.834,5.269-3.902,7.489-6.25c15.459-16.35,23.351-36.538,28.45-57.907
				c2.216-9.288-1.902-16.761-9.734-22.081c-5.721-3.885-12.125-6.298-18.674-8.386c-20.15-6.425-40.664-11.749-60.321-19.665
				c-16.757-6.748-33.847-12.73-49.828-21.29c5.482,0.001,10.963,0.002,16.445,0.003c2.882,1.422,5.751,2.869,8.646,4.263
				c28.934,13.923,59.229,23.272,91.11,27.6c10.806,1.467,21.724,2.98,31.709,7.91c15.617,7.711,20.995,22.371,13.967,38.336
				c-1.513,3.437-3.411,6.724-5.351,9.949c-6.18,10.274-12.49,20.471-18.697,30.729c-5.332,8.812-11.047,17.339-17.908,25.063
				c-5.388,6.066-11.236,11.577-18.512,15.344c-10.997,5.694-21.446,4.893-31.289-2.775c-5.614-4.374-9.989-9.871-14.197-15.511
				c-5.859-7.851-12.041-15.374-19.729-21.573c-16.552-13.346-35.537-22.369-54.669-31.23
				c-28.413-13.16-58.355-22.054-87.963-31.876c-11.917-3.953-23.27-9.297-35.074-13.484c-23.029-8.169-46.124-4.313-69.125,0.211
				c-4.15,0.816-8.083,2.854-11.284,5.919c-3.574,3.422-3.777,7.583-0.488,11.323c2.882,3.277,6.583,5.465,10.253,7.683
				c24.513,14.818,48.691,30.167,72.507,46.073c12.451,8.316,24.171,17.546,32.46,30.353c12.282,18.977,12.678,45.212-6.819,62.523
				c-3.713,3.297-7.365,6.717-11.387,9.605c-21.836,15.679-44.907,29.479-67.527,43.968c-10.085,6.46-20.819,11.977-29.788,20.092
				c-1.811,1.639-3.79,3.566-3.072,6.041c0.756,2.607,3.355,3.784,6.008,4.259c4.053,0.725,8.119,1.214,12.264,1.312
				c23.94,0.565,47.322-4.578,70.988-6.786c14.706-1.372,29.432-2.493,44.101-0.114c24.497,3.973,47.099,13.621,69.212,24.312
				c19.671,9.51,32.414,25.257,38.693,46.2c6.922,23.087,7.223,47.128,10.289,70.77c1.667,12.853,3.598,25.651,8.362,37.789
				c5.728,14.593,15.733,24.097,31.862,26.393c16.143,2.298,30.544-2.063,43.862-10.824c13.053-8.586,23.6-19.858,33.357-31.875
				c23.506-28.953,43.352-60.432,63.338-91.817c21.297-33.444,39.478-68.595,57.52-103.834c4.375-8.545,9.28-16.838,16.396-23.516
				C752.655,218.586,756.37,215.854,761.439,216.067z"/>
			<path style="fill:#9F4AE0;" d="M-11.175,271.434c1.432-0.932,3.077-1.65,4.266-2.827c22.663-22.442,46.228-44.005,66.117-69.12
				c14.638-18.485,24.873-39.357,34.461-60.665c4.088-9.083,8.982-17.735,15.67-25.259c12.051-13.557,27.922-19.702,45.194-22.485
				c22.556-3.633,45.326-5.534,68.155-6.484c11.421-0.475,22.648,1.075,33.419,4.971c24.624,8.905,49.77,16.648,71.869,31.331
				c9.656,6.416,18.627,13.633,24.234,24.017c8.385,15.527,8.065,30.82-2.478,45.354c-8.628,11.894-20.791,19.73-32.641,27.935
				c-38.056,26.351-79.636,45.32-123.661,59.244c-3.579,1.132-6.955,2.906-10.426,4.38c-2.329,0.989-4.591,2.556-4.49,5.089
				c0.104,2.613,2.797,3.772,5.042,4.54c6.837,2.342,13.883,3.971,21.063,4.725c23.681,2.486,47.189,0.87,70.699-2.606
				c21.625-3.197,43.116-7.277,64.876-9.601c28.982-3.096,56.053,3.012,81.904,15.938c10.571,5.286,21.16,10.402,30.523,17.787
				c18.806,14.832,26.781,35.243,30.616,57.925c3.84,22.709,4.667,45.819,9.237,68.431c1.386,6.859,3.216,13.58,5.595,20.159
				c7.234,20.003,22.431,29.091,42.74,31.763c30.014,3.949,53.273-9.196,73.935-28.74c24.878-23.531,43.984-51.631,62.555-80.108
				c22.616-34.68,41.42-71.462,59.972-108.387c3.541-7.048,7.398-13.945,12.422-20.09c3.086-3.775,6.493-7.13,11.746-7.604
				c0,15.776,0,31.551,0,47.327c-5.456-0.399-8.347,3.457-11.221,7.028c-6.8,8.45-11.843,18.016-16.889,27.549
				c-17.791,33.614-36.042,66.951-58.786,97.584c-15.571,20.972-32.519,40.623-53.697,56.304
				c-12.976,9.607-27.366,16.067-42.822,20.389c-11.678,0-23.356,0-35.034,0c-2.174-1.565-4.82-1.579-7.283-2.109
				c-21.042-4.528-36.234-15.799-42.965-36.909c-0.779-2.444-1.567-4.888-2.251-7.36c-6.413-23.186-8.245-47.131-11.243-70.839
				c-4.643-36.722-22.273-63.702-55.33-81.335c-25.986-13.861-52.779-21.683-82.381-18.51c-22.676,2.43-45.055,6.707-67.448,10.805
				c-34.497,6.312-69.206,6.998-104.069,5.139c-20.977-1.119-42.068-1.468-62.554,3.276c-42.599,9.866-77.911,32.357-107.098,64.674
				c-3.663,4.056-6.852,8.591-11.531,11.649c-0.002-3.451-0.004-6.901-0.005-10.352c1.746-1.622,3.73-3.054,5.2-4.896
				c10.385-13.003,22.064-24.8,33.794-36.559c3.985-3.995,7.779-8.181,11.69-12.251c1.188-1.236,1.765-2.614,0.894-4.165
				c-0.909-1.617-2.426-0.785-3.706-0.575c-1.178,0.194-2.336,0.529-3.487,0.854c-13.665,3.854-24.997,11.767-35.872,20.503
				c-2.639,2.12-5.01,4.713-8.525,5.503c0.014-5.434,0.029-10.868,0.043-16.302c2.69-0.867,4.706-2.76,6.814-4.498
				c26.407-21.769,56.357-36.277,89.6-44.427c29.912-7.333,60.295-11.641,90.831-14.99c39.224-4.301,76.322-15.053,110.4-35.232
				c16.248-9.621,32.399-19.459,45.439-33.432c17.142-18.369,15.802-41.478-3.2-57.873c-3.912-3.375-8.091-6.343-12.5-9.023
				c-17.554-10.671-37.242-15.594-56.744-20.996c-12.917-3.578-26.045-4.436-39.255-2.045
				c-35.601,6.445-67.201,19.785-87.746,51.704c-18.707,29.065-43.98,51.412-71.892,71.287
				c-23.179,16.504-46.851,32.483-66.331,53.601c-1.477,1.602-3.192,3.136-5.4,3.843C-11.138,280.736-11.156,276.085-11.175,271.434
				z"/>
			<path style="fill:#EA66FF;" d="M761.439,216.067c-5.069-0.213-8.784,2.519-12.209,5.733c-7.117,6.678-12.021,14.97-16.396,23.516
				c-18.042,35.239-36.224,70.39-57.52,103.834c-19.985,31.385-39.832,62.864-63.338,91.817
				c-9.756,12.017-20.304,23.289-33.357,31.875c-13.318,8.761-27.719,13.122-43.862,10.824c-16.129-2.296-26.134-11.8-31.862-26.393
				c-4.764-12.138-6.695-24.936-8.362-37.789c-3.066-23.641-3.367-47.682-10.289-70.77c-6.279-20.944-19.022-36.69-38.693-46.2
				c-22.113-10.691-44.715-20.339-69.212-24.312c-14.669-2.379-29.395-1.258-44.101,0.114c-23.666,2.208-47.048,7.351-70.988,6.786
				c-4.145-0.098-8.211-0.587-12.264-1.312c-2.653-0.475-5.251-1.652-6.008-4.259c-0.718-2.475,1.261-4.402,3.072-6.041
				c8.969-8.115,19.703-13.632,29.788-20.092c22.62-14.489,45.69-28.289,67.527-43.968c4.022-2.888,7.674-6.308,11.387-9.605
				c19.497-17.311,19.101-43.546,6.819-62.523c-8.288-12.807-20.008-22.038-32.46-30.353
				c-23.816-15.905-47.994-31.255-72.507-46.073c-3.669-2.218-7.371-4.406-10.253-7.683c-3.289-3.74-3.086-7.901,0.488-11.323
				c3.201-3.065,7.134-5.103,11.284-5.919c23.002-4.524,46.096-8.379,69.125-0.211c11.804,4.187,23.157,9.531,35.074,13.484
				c29.608,9.822,59.55,18.716,87.963,31.876c19.133,8.862,38.117,17.884,54.669,31.23c7.688,6.199,13.871,13.722,19.729,21.573
				c4.208,5.64,8.583,11.137,14.197,15.511c9.842,7.669,20.292,8.469,31.289,2.775c7.275-3.767,13.124-9.278,18.512-15.344
				c6.86-7.724,12.575-16.251,17.908-25.063c6.207-10.258,12.518-20.454,18.697-30.729c1.94-3.225,3.839-6.512,5.351-9.949
				c7.028-15.966,1.649-30.625-13.967-38.336c-9.985-4.931-20.903-6.443-31.709-7.91c-31.881-4.329-62.176-13.678-91.11-27.6
				c-2.895-1.393-5.765-2.84-8.646-4.263c12.999-0.049,25.997-0.149,38.995-0.136c26.175,0.026,52.349,0.114,78.524,0.177
				c-1.99,0.452-3.965,0.988-5.973,1.343c-15.401,2.725-30.791,4.33-46.544,2.888c-9.746-0.892-19.27-3.376-29.07-3.476
				c-1.647-0.017-4.298-1.188-4.768,1.24c-0.313,1.617,1.381,3.172,3.209,4.228c6.134,3.546,12.683,5.996,19.419,8.052
				c19.201,5.86,38.963,7.597,58.908,8.28c11.672,0.4,23.29,1.459,34.272,6.042c16.976,7.084,25.857,22.776,23.211,40.859
				c-1.495,10.218-6.497,18.748-12.741,26.589c-10.911,13.702-20.942,28.01-30.757,42.502
				c-9.343,13.795-19.196,27.221-33.211,36.872c-17.032,11.729-34.66,9.553-48.272-6.017c-5.214-5.964-9.634-12.506-13.525-19.375
				c-7.881-13.911-18.729-24.82-32.487-32.946c-19.164-11.319-39.584-19.732-60.892-25.965c-22.353-6.539-45.07-10.702-68.509-8.018
				c-5.615,0.643-11.756,1.629-14.393,7.443c-2.634,5.809,1.086,10.603,4.581,14.879c7.159,8.759,14.888,17.071,21.755,26.045
				c19.723,25.773,23.854,63.387-13.009,87.902c-16.13,10.727-32.714,20.818-48.15,32.572c-6.541,4.98-13.371,9.698-18.224,16.511
				c-3.277,4.6-2.23,7.571,3.101,9.322c1.45,0.476,3.013,0.803,4.533,0.844c10.642,0.285,21.264-0.007,31.907-0.541
				c17.976-0.904,36.008-2.03,53.897,1.248c21.683,3.973,42.177,11.922,62.848,19.175c27.402,9.615,42.757,29.686,48.673,57.621
				c4.802,22.674,4.992,45.883,8.224,68.736c1.729,12.227,3.786,24.368,9.607,35.477c6.958,13.281,19.237,19.084,33.937,16.322
				c8.471-1.592,15.864-5.392,22.737-10.392c12.38-9.006,22.224-20.521,30.869-32.897c43.718-62.589,85.992-126.104,122.591-193.211
				c7.305-13.395,14.86-26.724,25.558-37.835c4.153-4.313,8.622-8.533,15.404-8.092
				C761.439,196.862,761.439,206.465,761.439,216.067z"/>
			<path style="fill:#F5A4FE;" d="M761.439,187.26c-6.782-0.44-11.251,3.779-15.404,8.092
				c-10.698,11.111-18.252,24.441-25.558,37.835c-36.599,67.106-78.873,130.622-122.591,193.211
				c-8.645,12.376-18.489,23.89-30.869,32.897c-6.873,5-14.266,8.8-22.737,10.392c-14.699,2.762-26.978-3.041-33.937-16.322
				c-5.821-11.109-7.877-23.25-9.607-35.477c-3.232-22.853-3.422-46.062-8.224-68.736c-5.916-27.935-21.271-48.006-48.673-57.621
				c-20.67-7.253-41.165-15.202-62.848-19.175c-17.889-3.278-35.922-2.151-53.897-1.248c-10.643,0.535-21.265,0.826-31.907,0.541
				c-1.52-0.041-3.083-0.368-4.533-0.844c-5.331-1.75-6.378-4.721-3.101-9.322c4.853-6.813,11.683-11.53,18.224-16.511
				c15.436-11.754,32.019-21.844,48.15-32.572c36.863-24.515,32.732-62.129,13.009-87.902c-6.867-8.974-14.597-17.286-21.755-26.045
				c-3.495-4.276-7.215-9.07-4.581-14.879c2.637-5.814,8.778-6.8,14.393-7.443c23.439-2.685,46.156,1.479,68.509,8.018
				c21.308,6.233,41.728,14.646,60.892,25.965c13.759,8.126,24.606,19.035,32.487,32.946c3.892,6.869,8.311,13.411,13.525,19.375
				c13.613,15.57,31.24,17.746,48.272,6.017c14.015-9.651,23.868-23.077,33.211-36.872c9.815-14.492,19.846-28.8,30.757-42.502
				c6.244-7.841,11.246-16.371,12.741-26.589c2.646-18.083-6.235-33.775-23.211-40.859c-10.982-4.583-22.6-5.643-34.272-6.042
				c-19.945-0.683-39.707-2.419-58.908-8.28c-6.736-2.056-13.285-4.506-19.419-8.052c-1.828-1.056-3.521-2.611-3.209-4.228
				c0.469-2.429,3.121-1.257,4.768-1.24c9.799,0.101,19.324,2.584,29.07,3.476c15.753,1.442,31.143-0.162,46.544-2.888
				c2.008-0.355,3.983-0.891,5.972-1.343c34.339-0.017,68.68-0.034,103.02-0.051c5.959,4.542,12.17,8.714,16.96,14.691
				c11.856,14.794,17.329,32.315,22.181,50.163c2.77,10.188,4.539,20.685,9,30.362c1.554,3.371,3.048,7,7.553,7.494
				C761.439,126.215,761.439,156.738,761.439,187.26z M674.39-3.181c-2.574,0-5.155-0.12-7.719,0.04
				c-1.873,0.117-3.744,0.513-5.581,0.937c-7.779,1.798-9.048,5.268-3.936,11.355c5.744,6.84,11.631,13.535,14.65,22.166
				c8.087,23.122,4.24,44.562-10.659,63.497c-17.179,21.832-34.109,43.824-50.538,66.223c-8.858,12.078-19.318,22.771-32.44,30.453
				c-13.282,7.776-26.373,7.567-39.234-1.093c-4.887-3.291-9.078-7.294-12.763-11.863c-7.489-9.284-12.758-19.882-18.108-30.432
				c-4.789-9.444-10.741-18.018-19.514-24.181c-26.993-18.962-56.967-29.786-89.932-31.883c-5.568-0.354-11.345,0.077-16.641,2.609
				c-5.882,2.812-7.766,6.612-6.232,12.932c1.057,4.358,2.943,8.401,4.883,12.416c4.026,8.335,8.105,16.653,10.204,25.743
				c6.361,27.55,0.6,50.975-23.43,68.085c-8.662,6.167-17.472,12.127-26.121,18.312c-6.553,4.686-13.259,9.273-17.971,15.999
				c-3.582,5.111-2.385,8.788,3.568,10.55c3.258,0.964,6.719,1.324,10.117,1.72c13.278,1.549,26.689,1.556,39.931,3.673
				c15.284,2.443,29.936,7.327,44.888,11.048c6.486,1.614,12.944,3.352,19.465,4.806c33.558,7.485,52.165,28.914,58.375,62.048
				c4.141,22.094,4.162,44.628,7.263,66.826c1.708,12.225,3.654,24.463,10.902,34.968c5.558,8.055,14.079,10.969,23.495,8.208
				c7.96-2.334,14.352-7.169,20.264-12.778c10.406-9.874,18.908-21.313,26.659-33.253c32.402-49.91,65.894-99.097,98.704-148.734
				c19.007-28.755,36.529-58.439,52.361-89.088c6.494-12.572,9.032-25.695,7.099-39.805c-2.416-17.631-3.998-35.383-6.695-52.967
				c-2.708-17.655-7.192-34.904-16.567-50.435C712.086,6.616,695.981-3.121,674.39-3.181z"/>
			<path style="fill:#EA66FF;" d="M38.085,507.228c-3.778,0-7.556,0-11.335,0c1.376-4.214,2.805-8.412,4.119-12.645
				c4.502-14.502,1.75-23.116-10.337-32.39c-4.757-3.65-9.602-7.187-14.333-10.87c-5.466-4.256-6.176-9.955-4.624-16.23
				c1.165-4.712,3.188-9.1,5.996-13.008c17.397-24.222,40.959-40.818,67.809-52.722c35.651-15.806,73.507-21.604,112.26-22.563
				c28.488-0.705,56.789-3.199,84.953-7.793c25.05-4.087,50.277-7.245,75.758-6.473c23.217,0.703,43.548,8.396,59.969,25.433
				c17.197,17.841,29.517,38.563,37.839,61.792c7.512,20.969,12.723,42.638,19.619,63.791c2.588,7.938,5.442,15.789,8.175,23.679
				c-2.404,0-4.809,0-7.213,0c-6.2-17.7-12.376-35.408-18.605-53.098c-9.336-26.517-21.469-51.429-40.424-72.682
				c-16.329-18.31-36.159-29.748-60.689-32.52c-24.013-2.714-48.065-1.912-71.9,1.334c-29.628,4.035-59.357,5.822-89.191,6.917
				c-23.851,0.875-47.494,3.617-70.268,11.293c-23.135,7.797-44.939,17.895-61.626,36.581
				c-15.607,17.476-16.632,28.048-4.514,47.918c0.089,0.146,0.167,0.301,0.267,0.44c7.936,11.092,7.579,22.249,0.457,33.592
				C46.065,493.664,42.131,500.48,38.085,507.228z"/>
			<path style="fill:#4A0D9E;" d="M38.085,507.228c4.046-6.747,7.98-13.564,12.163-20.226c7.121-11.343,7.478-22.499-0.457-33.592
				c-0.099-0.139-0.178-0.293-0.267-0.44c-12.118-19.87-11.093-30.442,4.514-47.918c16.688-18.686,38.492-28.784,61.626-36.581
				c22.774-7.676,46.417-10.418,70.268-11.293c29.834-1.094,59.563-2.882,89.191-6.917c23.835-3.246,47.887-4.048,71.9-1.334
				c24.529,2.772,44.359,14.21,60.689,32.52c18.954,21.253,31.087,46.165,40.424,72.682c6.228,17.69,12.405,35.398,18.605,53.098
				c-2.748,0-5.496,0-8.243,0c-11.915-32.984-24.307-65.73-46.117-93.874c-16-20.647-35.929-35.661-61.389-42.715
				c-20.853-5.778-42.175-7.454-63.718-6.883c-21.432,0.567-42.719,3.349-64.169,3.975c-22.757,0.664-45.608,0.469-68.148,4.693
				c-21.676,4.061-42.024,11.159-59.427,25.191C77.27,412.336,73.511,424.339,79.98,446.78c0.616,2.137,1.146,4.307,1.575,6.489
				c1.522,7.736,0.166,14.948-3.92,21.713c-2.496,4.133-5.562,7.798-8.665,11.464c-5.85,6.91-12.756,12.936-17.49,20.781
				C47.015,507.228,42.55,507.228,38.085,507.228z"/>
			<path style="fill:#9F4AE0;" d="M51.48,507.228c4.734-7.845,11.64-13.871,17.49-20.781c3.103-3.666,6.169-7.331,8.665-11.464
				c4.086-6.765,5.442-13.977,3.92-21.713c-0.429-2.182-0.959-4.352-1.575-6.489c-6.469-22.442-2.711-34.444,15.548-49.166
				c17.404-14.032,37.752-21.13,59.427-25.191c22.54-4.223,45.391-4.029,68.148-4.693c21.449-0.626,42.737-3.408,64.169-3.975
				c21.543-0.57,42.865,1.106,63.718,6.883c25.46,7.054,45.388,22.068,61.389,42.715c21.81,28.143,34.202,60.89,46.117,93.874
				c-3.091,0-6.182,0-9.274,0c-6.146-15.654-13.7-30.624-22.334-45.037c-11.882-19.836-25.412-38.466-44.425-52.096
				c-27.218-19.511-58.555-27.778-91.417-29.175c-36.331-1.544-72.741-0.446-109.046,1.953
				c-14.762,0.976-29.169,4.297-42.658,10.778c-19.287,9.267-31.362,23.069-29.186,45.945c1.888,19.847-7.584,34.491-21.606,47.127
				c-7.376,6.647-15.25,12.788-21.614,20.504C61.785,507.228,56.632,507.228,51.48,507.228z"/>
			<path style="fill:#F5A4FE;" d="M66.937,507.228c6.365-7.716,14.238-13.856,21.614-20.504
				c14.022-12.636,23.494-27.28,21.606-47.127c-2.177-22.876,9.899-36.677,29.186-45.945c13.489-6.481,27.896-9.802,42.658-10.778
				c36.305-2.4,72.715-3.498,109.046-1.953c32.862,1.397,64.199,9.664,91.417,29.175c19.013,13.629,32.543,32.259,44.425,52.096
				c8.634,14.413,16.187,29.383,22.334,45.037c-4.122,0-8.243,0-12.365,0c-5.274-11.815-13.201-21.962-20.387-32.592
				c-32.365-47.876-78.662-71.653-135.081-77.243c-26.499-2.625-53.183-1.965-79.775-1.056c-12.869,0.44-25.59,2.79-37.426,8.43
				c-12.748,6.074-20.812,15.813-21.926,30.066c-1.544,19.744-10.931,34.837-25.644,47.485c-9.884,8.497-20.881,15.635-30.103,24.91
				C79.989,507.228,73.463,507.228,66.937,507.228z"/>
			<path style="fill:#EA66FF;" d="M86.515,507.228c9.223-9.275,20.219-16.414,30.103-24.91c14.712-12.647,24.1-27.741,25.644-47.485
				c1.114-14.252,9.178-23.992,21.926-30.066c11.836-5.64,24.557-7.99,37.426-8.43c26.592-0.909,53.276-1.569,79.775,1.056
				c56.42,5.589,102.717,29.366,135.081,77.243c7.186,10.63,15.113,20.778,20.387,32.592c-6.182,0-12.365,0-18.548,0
				c-0.165-1.69-1.498-2.647-2.493-3.763c-9.576-10.746-19.148-21.495-28.817-32.157c-8.191-9.033-16.983-17.429-27.047-24.401
				c-46.116-31.948-97.816-38.264-151.944-32.447c-17.376,1.867-29.057,11.254-32.764,29.175
				c-2.641,12.772-9.961,22.704-19.682,31.131c-11.023,9.555-22.97,17.918-34.369,26.985c-2.074,1.65-4.737,2.756-5.827,5.477
				C105.749,507.228,96.132,507.228,86.515,507.228z"/>
			<path style="fill:#9F4AE0;" d="M247.26,507.228c-31.6,0-63.199,0-94.799,0c10.389-7.565,21.066-14.724,32.68-20.253
				c15.38-7.322,27.211-17.49,32.049-34.634c1.944-6.887,7.241-11.45,14.024-14.128c6.494-2.564,13.274-3.454,20.161-3.574
				c45.251-0.787,83.901,14.65,115.684,46.988c8.275,8.419,15.498,17.838,24.46,25.6c-10.991,0-21.982,0-32.973,0
				c-1.981-1.891-3.966-3.778-5.943-5.673c-12.293-11.779-26.075-21.323-42.664-25.775c-18.332-4.92-30.731-2.935-41.247,14.068
				C263.685,497.942,257.03,504.669,247.26,507.228z"/>
			<path style="fill:#4A0D9E;" d="M391.519,507.228c-8.961-7.763-16.184-17.181-24.46-25.6
				c-31.783-32.338-70.433-47.775-115.684-46.988c-6.887,0.12-13.667,1.01-20.161,3.574c-6.783,2.678-12.08,7.241-14.024,14.128
				c-4.838,17.144-16.67,27.312-32.049,34.634c-11.614,5.529-22.292,12.688-32.68,20.253c-12.365,0-24.73,0-37.095,0
				c1.09-2.721,3.754-3.828,5.827-5.477c11.399-9.067,23.346-17.429,34.369-26.985c9.721-8.427,17.04-18.36,19.682-31.131
				c3.706-17.921,15.388-27.308,32.764-29.175c54.128-5.817,105.828,0.499,151.944,32.447c10.064,6.972,18.856,15.369,27.047,24.401
				c9.669,10.662,19.241,21.412,28.817,32.157c0.995,1.116,2.328,2.073,2.493,3.763
				C409.379,507.228,400.449,507.228,391.519,507.228z"/>
			<path style="fill:#F5A4FE;" d="M473.952,507.228c-2.733-7.891-5.587-15.742-8.175-23.679
				c-6.897-21.153-12.107-42.822-19.619-63.791c-8.322-23.229-20.642-43.951-37.839-61.792
				c-16.422-17.037-36.752-24.73-59.969-25.433c-25.481-0.771-50.707,2.387-75.758,6.473c-28.164,4.595-56.465,7.088-84.953,7.793
				c-38.753,0.959-76.609,6.757-112.26,22.563c-26.85,11.904-50.412,28.5-67.809,52.722c-2.807,3.909-4.83,8.297-5.996,13.008
				c-1.552,6.275-0.842,11.974,4.624,16.23c4.731,3.683,9.576,7.22,14.333,10.87c12.087,9.274,14.839,17.888,10.337,32.39
				c-1.314,4.233-2.743,8.431-4.119,12.645c-3.778,0-7.556,0-11.335,0c4.391-17.185-1.518-27.753-18.473-32.796
				c-2.594-0.772-5.345-1.017-8.023-1.505c-0.496-16.965-0.484-33.929-0.009-50.894c3.004-1.2,4.866-3.694,6.812-6.065
				c5.11-6.226,10.017-12.623,15.835-18.241c35.064-33.855,78.346-49.373,125.562-56.057c21.611-3.06,43.411-3.351,65.173-4.238
				c14.218-0.58,28.426-1.55,42.528-3.553c31.369-4.456,62.47-10.622,94.135-13.228c35.482-2.92,64.13,8.896,86.604,36.43
				c16.321,19.995,25.63,43.108,31.871,67.786c7.034,27.814,11.886,56.296,24.765,82.363
				C479.448,507.228,476.7,507.228,473.952,507.228z"/>
			<path style="fill:#F5A4FE;" d="M578.024,507.228c15.455-4.322,29.846-10.782,42.822-20.389
				c21.178-15.681,38.126-35.332,53.697-56.304c22.745-30.633,40.995-63.97,58.786-97.584c5.045-9.533,10.089-19.098,16.889-27.549
				c2.873-3.57,5.764-7.427,11.221-7.028c0,16.461,0,32.923,0,49.384c-5.132,0.694-8.641,3.93-11.82,7.617
				c-4.492,5.21-8.233,10.957-11.815,16.809c-11.898,19.438-23.08,39.318-36.148,58.034c-16.868,24.158-35.591,46.605-59.632,64.071
				c-6.347,4.611-13.117,8.642-19.692,12.939C607.563,507.228,592.794,507.228,578.024,507.228z"/>
			<path style="fill:#9F4AE0;" d="M482.195,507.228c-12.878-26.067-17.731-54.548-24.765-82.363
				c-6.241-24.678-15.55-47.79-31.871-67.786c-22.474-27.534-51.122-39.35-86.604-36.43c-31.665,2.606-62.766,8.772-94.135,13.228
				c-14.102,2.003-28.311,2.974-42.528,3.553c-21.762,0.887-43.562,1.178-65.173,4.238c-47.215,6.684-90.497,22.203-125.562,56.057
				c-5.819,5.618-10.725,12.014-15.835,18.241c-1.946,2.371-3.808,4.866-6.812,6.065c-0.028-3.853-0.055-7.705-0.082-11.557
				c2.952-1.539,5.145-3.912,7.26-6.417c24.485-28.999,54.585-49.418,91.11-60.524c29.787-9.058,60.285-12.506,91.212-13.167
				c20.07-0.429,40.153-0.986,60.061-3.476c30.891-3.863,61.296-10.93,92.237-14.562c13.653-1.603,27.313-2.442,40.986-0.018
				c28.089,4.978,48.995,20.964,66.15,42.79c15.495,19.716,21.896,42.996,26.821,66.962c5.991,29.155,9.623,59.061,25.775,85.166
				C487.691,507.228,484.943,507.228,482.195,507.228z"/>
			<path style="fill:#F5A4FE;" d="M-11.163,385.708c4.679-3.057,7.867-7.592,11.531-11.649
				c29.188-32.318,64.499-54.808,107.098-64.674c20.486-4.745,41.577-4.395,62.554-3.276c34.863,1.859,69.572,1.173,104.069-5.139
				c22.393-4.097,44.772-8.374,67.448-10.805c29.602-3.172,56.396,4.649,82.381,18.51c33.057,17.633,50.687,44.613,55.33,81.335
				c2.997,23.709,4.829,47.653,11.243,70.839c0.684,2.472,1.472,4.916,2.251,7.36c6.73,21.11,21.923,32.381,42.965,36.909
				c2.462,0.53,5.108,0.543,7.283,2.109c-9.274,0-18.548,0-27.821,0c-2.305-1.477-4.661-2.88-6.907-4.443
				c-12.285-8.55-17.839-21.362-21.884-35.014c-6.728-22.708-9.051-46.238-12.315-69.553c-4.983-35.589-21.516-63.286-52.675-82.151
				c-21.801-13.199-44.711-21.227-70.592-19.855c-23.008,1.22-45.472,5.855-68.038,9.871c-21.926,3.902-43.858,7.802-66.152,8.625
				c-17.839,0.659-35.703,0.777-53.557,0.89c-18.393,0.116-36.679,1.229-54.723,4.972c-45.723,9.484-83.243,32.614-113.294,68.102
				c-1.789,2.112-3.733,4.006-6.219,5.283C-11.18,391.207-11.171,388.458-11.163,385.708z"/>
			<path style="fill:#EA66FF;" d="M-11.188,393.954c2.486-1.277,4.43-3.17,6.218-5.282c30.051-35.489,67.571-58.618,113.294-68.102
				c18.044-3.743,36.329-4.856,54.723-4.972c17.854-0.113,35.718-0.231,53.557-0.89c22.294-0.823,44.227-4.723,66.152-8.625
				c22.566-4.016,45.03-8.651,68.038-9.871c25.882-1.372,48.792,6.656,70.592,19.855c31.159,18.865,47.692,46.562,52.675,82.151
				c3.264,23.315,5.588,46.845,12.315,69.553c4.045,13.652,9.599,26.464,21.884,35.014c2.245,1.563,4.602,2.966,6.907,4.443
				c-4.809,0-9.617,0-14.426,0c-10.232-10.025-15.668-22.64-19.532-36.096c-6.427-22.383-9.276-45.477-13.317-68.318
				c-5.697-32.203-20.704-58.44-47.495-77.63c-17.475-12.516-36.437-20.908-58.337-21.811c-23.702-0.977-46.844,3.224-69.84,7.763
				c-39.824,7.859-79.875,12.259-120.501,12.089c-20.762-0.087-41.442,1.874-61.872,5.985
				c-43.784,8.811-80.977,29.103-110.621,62.756c-3.139,3.563-5.858,7.652-10.345,9.837
				C-11.14,399.186-11.164,396.57-11.188,393.954z"/>
			<path style="fill:#4A0D9E;" d="M-11.116,401.802c4.487-2.185,7.206-6.273,10.345-9.837
				c29.644-33.653,66.837-53.945,110.621-62.756c20.43-4.111,41.11-6.072,61.872-5.985c40.625,0.17,80.677-4.229,120.501-12.089
				c22.996-4.538,46.138-8.74,69.84-7.763c21.9,0.903,40.863,9.294,58.337,21.811c26.792,19.19,41.798,45.427,47.495,77.63
				c4.041,22.841,6.891,45.935,13.317,68.318c3.864,13.457,9.3,26.072,19.532,36.096c-3.435,0-6.87,0-10.304,0
				c-16.151-26.105-19.783-56.011-25.775-85.166c-4.925-23.966-11.326-47.246-26.821-66.962
				c-17.154-21.827-38.061-37.812-66.15-42.79c-13.673-2.423-27.333-1.584-40.986,0.018c-30.941,3.632-61.346,10.699-92.237,14.562
				c-19.908,2.49-39.991,3.047-60.061,3.476c-30.927,0.661-61.425,4.109-91.212,13.167c-36.525,11.106-66.624,31.525-91.11,60.524
				c-2.115,2.505-4.307,4.878-7.26,6.417C-11.153,407.583-11.135,404.692-11.116,401.802z"/>
			<path style="fill:#EA66FF;" d="M622.332,507.228c6.576-4.297,13.345-8.328,19.692-12.939
				c24.041-17.466,42.764-39.913,59.632-64.071c13.068-18.715,24.25-38.595,36.148-58.034c3.582-5.852,7.323-11.599,11.815-16.809
				c3.179-3.687,6.688-6.923,11.82-7.617c0,15.433,0,30.865,0,46.298c-4.935-0.115-8.306,2.876-11.509,5.989
				c-6.55,6.365-11.661,13.893-16.731,21.415c-21.811,32.358-45.153,63.314-77.894,85.769
				C644.315,507.228,633.323,507.228,622.332,507.228z"/>
			<path style="fill:#4A0D9E;" d="M655.306,507.228c32.741-22.455,56.083-53.41,77.894-85.769
				c5.07-7.521,10.181-15.049,16.731-21.415c3.202-3.112,6.573-6.103,11.509-5.989c0,12.689,0,25.378,0,38.067
				c-5.121-0.412-8.757,2.545-12.248,5.589c-7.011,6.114-12.648,13.485-18.466,20.671c-14.365,17.744-29.421,34.808-47.598,48.844
				C673.853,507.228,664.579,507.228,655.306,507.228z"/>
			<path style="fill:#F5A4FE;" d="M247.26,507.228c9.771-2.558,16.425-9.286,21.432-17.38
				c10.516-17.003,22.915-18.988,41.247-14.068c16.589,4.452,30.371,13.997,42.664,25.775c1.977,1.895,3.962,3.782,5.943,5.673
				C321.45,507.228,284.355,507.228,247.26,507.228z"/>
			<path style="fill:#9F4AE0;" d="M683.127,507.228c18.177-14.037,33.233-31.1,47.598-48.844
				c5.818-7.187,11.456-14.557,18.466-20.671c3.491-3.045,7.126-6.002,12.248-5.589c0,10.631,0,21.263,0,31.894
				c-7.809,0.319-13.189,5.198-18.41,10.098c-11.56,10.85-22.062,22.792-34.142,33.113
				C700.301,507.228,691.714,507.228,683.127,507.228z"/>
			<path style="fill:#F5A4FE;" d="M708.888,507.228c12.08-10.321,22.582-22.263,34.142-33.113c5.22-4.9,10.601-9.779,18.41-10.098
				c0,8.574,0,17.147,0,25.721c-11.697,1.987-19.923,9.478-27.821,17.49C725.374,507.228,717.131,507.228,708.888,507.228z"/>
			<path style="fill:#EA66FF;" d="M705.744-7.017c4.198,0.001,8.395,0.003,12.593,0.004c10.894,9.259,18.379,20.925,23.48,34.096
				c4.401,11.365,8.175,22.97,12.468,34.378c1.331,3.537,2.655,7.457,7.154,8.511c0,8.574,0,17.147,0,25.721
				c-4.505-0.495-5.999-4.123-7.553-7.494c-4.461-9.677-6.231-20.174-9-30.362c-4.852-17.848-10.325-35.369-22.181-50.163
				C717.914,1.697,711.704-2.476,705.744-7.017z"/>
			<path style="fill:#9F4AE0;" d="M-11.107,488.478c-0.426-5.184-0.47-10.367,0.026-15.55c2.679,0.488,5.43,0.733,8.024,1.504
				c16.955,5.043,22.864,15.611,18.473,32.796c-3.435,0-6.87,0-10.304,0C5.117,497.074-0.095,491.049-11.107,488.478z"/>
			<path style="fill:#4A0D9E;" d="M761.439,69.972c-4.499-1.054-5.822-4.974-7.154-8.511c-4.293-11.408-8.067-23.014-12.468-34.378
				c-5.101-13.172-12.586-24.838-23.48-34.096c3.028-0.002,6.055-0.003,9.083-0.005c9.779,10.7,16.559,23.152,21.812,36.572
				c2.406,6.146,4.191,12.61,8.036,18.12c0.986,1.413,1.534,3.733,4.171,2.75C761.439,56.94,761.439,63.456,761.439,69.972z"/>
			<path style="fill:#9F4AE0;" d="M761.439,50.424c-2.637,0.983-3.185-1.337-4.171-2.75c-3.845-5.511-5.631-11.974-8.036-18.12
				c-5.253-13.421-12.033-25.872-21.812-36.572c2.387,0.008,4.773,0.015,7.16,0.023c5.232,6.936,10.144,14.067,13.912,21.937
				c2.79,5.826,5.674,11.608,8.629,17.353c0.899,1.748,1.661,3.901,4.318,3.726C761.439,40.822,761.439,45.623,761.439,50.424z"/>
			<path style="fill:#EA66FF;" d="M733.618,507.228c7.898-8.012,16.124-15.503,27.821-17.49c0,4.973-0.148,9.952,0.067,14.915
				c0.096,2.225-0.425,2.687-2.645,2.643C750.45,507.127,742.033,507.228,733.618,507.228z"/>
			<path style="fill:#F5A4FE;" d="M761.439,36.021c-2.657,0.174-3.419-1.979-4.318-3.726c-2.955-5.744-5.839-11.527-8.629-17.353
				c-3.769-7.87-8.68-15.001-13.912-21.937c2.089-0.012,4.178-0.025,6.267-0.037c5.206,7.397,9.704,15.219,14.208,23.053
				c1.499,2.607,2.336,6.29,6.385,6.626C761.439,27.104,761.439,31.562,761.439,36.021z"/>
			<path style="fill:#4A0D9E;" d="M-11.107,488.478c11.012,2.572,16.224,8.597,16.219,18.75c-4.809,0-9.617,0-14.426,0
				C-12.617,501.235-11.273,494.8-11.107,488.478z"/>
			<path style="fill:#EA66FF;" d="M761.439,22.646c-4.049-0.336-4.886-4.019-6.385-6.626c-4.503-7.834-9.002-15.655-14.208-23.053
				c1.978,0.018,3.957,0.036,5.936,0.053c3.541,5.347,7.057,10.711,10.639,16.03c0.926,1.375,1.835,3.008,4.017,2.278
				C761.439,15.101,761.439,18.874,761.439,22.646z"/>
			<path style="fill:#4A0D9E;" d="M761.439,11.329c-2.182,0.73-3.091-0.903-4.017-2.278c-3.582-5.319-7.099-10.683-10.639-16.03
				c1.804-0.012,3.608-0.024,5.411-0.036c2.798,3.316,3.726,8.529,9.245,9.084C761.439,5.156,761.439,8.242,761.439,11.329z"/>
			<path style="fill:#9F4AE0;" d="M761.439,2.069c-5.519-0.556-6.447-5.769-9.245-9.084c3.196-0.946,6.144,0.777,9.245,0.854
				C761.439-3.418,761.439-0.674,761.439,2.069z"/>
			<path style="fill:#9F4AE0;" d="M174.411-7.032c11.024,0.033,22.049,0.067,33.071,0.1c-0.631,8.105,2.826,12.411,12.947,13.76
				c18.42,2.455,37.093,3.29,55.348-0.254c28.302-5.495,56.306-4.554,84.231,1.365c54.467,11.544,103.939,34.549,149.511,66.181
				c11.831,8.212,23.123,17.215,35.112,25.179c13.069,8.682,26.341,3.875,31.563-10.945c2.949-8.371,3.501-17.108,2.417-25.876
				c-1.562-12.633-10.647-19.143-20.92-24.145c-22.357-10.886-45.745-19.384-68.663-28.973
				c-12.152-5.085-24.595-9.561-35.999-16.304c5.244-0.022,10.489-0.044,15.732-0.065c15.981,8.561,33.07,14.542,49.828,21.29
				c19.657,7.916,40.171,13.24,60.321,19.665c6.549,2.088,12.953,4.501,18.674,8.386c7.833,5.319,11.951,12.792,9.734,22.081
				c-5.099,21.369-12.991,41.557-28.45,57.907c-2.22,2.348-4.816,4.416-7.489,6.25c-10.566,7.252-20.192,6.989-30.388-0.697
				c-1.776-1.339-3.596-2.71-5.055-4.365c-19.079-21.64-42.63-37.624-66.92-52.618c-22.022-13.595-43.336-28.44-67.533-38.245
				c-34.261-13.883-69.657-21.489-106.783-19.171c-10.736,0.67-21.169,4.021-31.961,4.516c-17.933,0.824-35.049,6.18-52.573,9.263
				c-9.942,1.749-19.85,1.939-29.452-1.771c-14.825-5.729-17.98-17.014-8.376-29.588C173.063-5.056,173.722-6.056,174.411-7.032z"/>
			<path style="fill:#EA66FF;" d="M90.441-6.977c16.465-0.01,32.931-0.02,49.396-0.03c-12.856,9.812-26.531,18.237-41.426,24.648
				c-5.828,2.508-11.557,5.251-17.299,7.952c-20.22,9.514-31.098,25.618-33.752,47.592c-1.901,15.734-1.056,31.484-0.507,47.235
				c0.621,17.823,0.877,35.627-1.951,53.327c-3.91,24.474-16.235,44.762-31.642,63.513c-5.656,6.883-11.363,13.727-17.815,19.905
				c-1.984,1.9-3.923,3.839-6.639,4.695c-0.003-2.267-0.007-4.534-0.011-6.801c7.303-4.049,11.752-10.878,16.697-17.199
				c17.633-22.543,26.76-47.766,25.64-76.742c-0.865-22.376-4.401-44.28-8.957-66.098c-2.667-12.771-5.85-25.62-2.934-38.671
				c4.738-21.203,16.735-37.231,35.89-47.857C66.429,2.225,78.68-1.804,90.441-6.977z"/>
			<path style="fill:#F5A4FE;" d="M-11.137,327.469c-0.392-14.029-0.416-28.057,0.017-42.083c2.208-0.705,3.923-2.24,5.4-3.841
				c19.48-21.118,43.152-37.097,66.331-53.601c27.912-19.874,53.185-42.222,71.892-71.287c20.545-31.919,52.144-45.26,87.746-51.704
				c13.21-2.391,26.337-1.534,39.255,2.045c19.502,5.402,39.19,10.325,56.744,20.996c4.409,2.68,8.588,5.648,12.5,9.023
				c19.002,16.395,20.342,39.504,3.2,57.873c-13.04,13.973-29.191,23.811-45.439,33.432c-34.078,20.179-71.176,30.931-110.4,35.232
				c-30.535,3.348-60.919,7.656-90.831,14.99c-33.243,8.15-63.193,22.659-89.6,44.427C-6.431,324.709-8.448,326.603-11.137,327.469z
				 M244.978,120.294c-13.209,0.117-23.323,2.565-33.167,6.363c-23.217,8.955-40.554,25.161-55.529,44.434
				c-15.821,20.363-32.89,39.567-53.718,55.079c-10.174,7.578-20.494,14.964-30.55,22.695c-2.08,1.599-5.958,3.383-4.368,6.664
				c1.531,3.158,5.206,1.451,7.974,0.977c14.189-2.427,28.026-6.857,42.526-7.515c23.657-1.074,47.318-2.074,70.974-3.184
				c25.719-1.208,50.797-5.498,74.469-16.111c19.879-8.912,38.446-19.854,53.217-36.207c14.18-15.699,13.137-34.506-2.539-48.659
				c-2.785-2.514-5.838-4.844-9.077-6.728C285.796,126.819,264.413,122.421,244.978,120.294z"/>
			<path style="fill:#4A0D9E;" d="M-11.168,375.357c-0.004-10.529-0.008-21.057-0.013-31.586c3.516-0.79,5.886-3.383,8.526-5.503
				c10.875-8.735,22.207-16.648,35.872-20.503c1.152-0.325,2.31-0.66,3.487-0.854c1.28-0.21,2.797-1.042,3.706,0.575
				c0.871,1.551,0.294,2.929-0.894,4.165c-3.911,4.07-7.705,8.256-11.69,12.251c-11.73,11.759-23.409,23.556-33.794,36.559
				C-7.438,372.302-9.422,373.735-11.168,375.357z"/>
			<path style="fill:#9F4AE0;" d="M674.39-3.181c21.591,0.06,37.696,9.797,48.745,28.103c9.375,15.532,13.859,32.78,16.567,50.435
				c2.697,17.584,4.28,35.336,6.695,52.967c1.933,14.111-0.604,27.233-7.099,39.805c-15.832,30.649-33.353,60.333-52.361,89.088
				c-32.811,49.637-66.303,98.823-98.704,148.734c-7.752,11.94-16.254,23.379-26.659,33.253
				c-5.911,5.609-12.304,10.445-20.264,12.778c-9.416,2.761-17.937-0.153-23.495-8.208c-7.248-10.505-9.194-22.743-10.902-34.968
				c-3.102-22.198-3.122-44.732-7.263-66.826c-6.21-33.134-24.817-54.564-58.375-62.048c-6.521-1.454-12.98-3.192-19.465-4.806
				c-14.952-3.721-29.604-8.605-44.888-11.048c-13.243-2.117-26.653-2.124-39.931-3.673c-3.397-0.396-6.859-0.756-10.117-1.72
				c-5.952-1.761-7.149-5.438-3.568-10.55c4.713-6.725,11.419-11.313,17.971-15.999c8.649-6.185,17.459-12.145,26.121-18.312
				c24.03-17.11,29.791-40.535,23.43-68.085c-2.099-9.09-6.178-17.408-10.204-25.743c-1.94-4.016-3.825-8.058-4.883-12.416
				c-1.533-6.32,0.351-10.12,6.232-12.932c5.296-2.532,11.073-2.963,16.641-2.609c32.965,2.096,62.939,12.921,89.932,31.883
				c8.773,6.163,14.725,14.737,19.514,24.181c5.35,10.55,10.619,21.148,18.108,30.432c3.685,4.568,7.876,8.572,12.763,11.863
				c12.861,8.66,25.952,8.869,39.234,1.093c13.123-7.682,23.582-18.376,32.44-30.453c16.429-22.4,33.359-44.392,50.538-66.223
				c14.899-18.935,18.746-40.375,10.659-63.497c-3.019-8.632-8.906-15.327-14.65-22.166c-5.112-6.087-3.843-9.556,3.936-11.355
				c1.836-0.425,3.707-0.82,5.581-0.937C669.235-3.301,671.816-3.181,674.39-3.181z M728.759,99.662
				c0.165-7.523-0.011-15.073-1.301-22.522c-1.975-11.398-5.125-22.385-12.319-31.787c-2.172-2.839-4.749-5.206-8.593-4.635
				c-3.796,0.563-5.049,3.862-6.057,6.963c-1.376,4.234-2.615,8.529-3.615,12.866c-4.384,18.996-12.384,36.324-24.246,51.773
				c-15.245,19.855-30.519,39.696-46.187,59.218c-12.703,15.827-26.701,30.482-43.892,41.617
				c-20.861,13.513-35.599,11.565-52.426-6.599c-1.746-1.885-3.399-3.864-4.991-5.881c-9.758-12.368-16.609-26.368-22.301-40.908
				c-6.6-16.857-17.529-29.538-33.759-37.773c-11.219-5.693-22.907-9.986-35.146-12.749c-6.371-1.438-12.882-1.965-19.432-1.417
				c-10.305,0.862-14.459,5.596-13.812,15.775c0.098,1.535,0.324,3.066,0.582,4.584c1.578,9.277,3.657,18.488,4.137,27.918
				c1.258,24.728-4.418,46.611-25.652,62.13c-4.289,3.135-8.391,6.542-12.416,10.012c-3.11,2.681-6.202,5.453-8.882,8.547
				c-4.571,5.279-3.746,9.023,2.323,12.288c1.052,0.566,2.157,1.1,3.301,1.42c25.723,7.202,51.416,14.595,78.163,17.076
				c32.237,2.99,55.694,22.853,63.677,54.011c5.138,20.056,5.04,40.706,7.129,61.109c1.255,12.26,2.118,24.652,7.587,35.959
				c5.648,11.678,14.027,13.758,24.67,6.404c2.804-1.937,5.367-4.277,7.812-6.665c5.295-5.17,9.777-11.039,14.025-17.076
				c17.377-24.69,32.747-50.69,49.603-75.725c22.989-34.144,47.888-66.938,71.092-100.932
				C713.605,186.907,729.434,146.012,728.759,99.662z"/>
			<path style="fill:#F5A4FE;" d="M453.029-6.945c11.404,6.744,23.846,11.22,35.999,16.304c22.918,9.59,46.306,18.087,68.663,28.973
				c10.273,5.002,19.357,11.512,20.92,24.145c1.085,8.769,0.533,17.505-2.417,25.876c-5.222,14.819-18.494,19.627-31.563,10.945
				c-11.989-7.965-23.281-16.967-35.112-25.179c-45.572-31.632-95.045-54.637-149.511-66.181
				c-27.925-5.919-55.929-6.86-84.231-1.365c-18.255,3.544-36.928,2.709-55.348,0.254c-10.121-1.349-13.578-5.654-12.947-13.76
				c12.914-0.011,25.825-0.023,38.738-0.034c2.204,1.802,4.93,2.27,7.574,2.915c11.421,2.787,22.345-0.331,33.319-2.832
				c19.013-0.103,38.025-0.239,57.038-0.294c7.535-0.022,15.07,0.134,22.607,0.209c3.925,2.854,8.409,4.575,12.919,6.173
				c23.118,8.188,46.786,14.854,69.302,24.709c17.447,7.636,34.745,15.612,52.226,23.167c7.692,3.324,15.473,6.738,24.152,6.622
				c2.194-0.029,4.762,0.338,5.893-2.146c1.088-2.391,0.124-4.633-1.291-6.744c-3.042-4.537-7.362-7.627-11.838-10.498
				c-16.711-10.721-35.415-17.246-53.464-25.144c-11.449-5.01-23.379-9.003-33.806-16.142
				C438.244-6.964,445.637-6.954,453.029-6.945z"/>
			<path style="fill:#F5A4FE;" d="M90.441-6.977C78.68-1.804,66.429,2.225,55.131,8.492c-19.155,10.626-31.153,26.654-35.89,47.857
				C16.324,69.4,19.507,82.249,22.174,95.02c4.556,21.818,8.092,43.722,8.957,66.098c1.12,28.976-8.006,54.199-25.64,76.742
				c-4.944,6.321-9.394,13.15-16.697,17.199c0-2.022,0.001-4.044,0.001-6.066c2.938-0.936,4.846-3.235,6.672-5.439
				c9.915-11.965,17.6-25.177,22.08-40.142c5.534-18.487,4.451-37.167,1.58-55.87c-1.742-11.353-4.222-22.525-9.983-32.671
				c-4.455-7.845-10.898-12.602-20.204-12.864c-0.107-18.266-0.261-36.532-0.299-54.799c-0.018-8.532,0.186-17.065,0.29-25.598
				c10.912,0.78,21.05-1.077,29.761-8.302C27.354,6.126,36.368-0.603,45.675-6.935C60.597-6.949,75.519-6.963,90.441-6.977z"/>
			<path style="fill:#EA66FF;" d="M430.851-6.974c10.427,7.14,22.357,11.132,33.806,16.142
				c18.048,7.898,36.753,14.422,53.464,25.144c4.476,2.871,8.796,5.961,11.838,10.498c1.415,2.111,2.38,4.353,1.291,6.744
				c-1.131,2.485-3.7,2.117-5.893,2.146c-8.679,0.117-16.46-3.298-24.152-6.622c-17.481-7.555-34.779-15.531-52.226-23.167
				c-22.516-9.855-46.183-16.521-69.302-24.709c-4.51-1.597-8.994-3.318-12.919-6.173C388.121-6.971,409.486-6.972,430.851-6.974z"
				/>
			<path style="fill:#9F4AE0;" d="M-11.059,102.007c9.306,0.262,15.749,5.019,20.204,12.864c5.762,10.146,8.241,21.318,9.983,32.671
				c2.871,18.704,3.954,37.383-1.58,55.87c-4.48,14.966-12.165,28.177-22.08,40.142c-1.826,2.204-3.735,4.503-6.672,5.439
				c0.019-1.948,0.039-3.896,0.057-5.847c3.183-1.262,5.174-3.875,7.048-6.497c21.341-29.858,22.158-62.179,11.003-95.695
				c-2.789-8.38-8.508-14.44-17.997-15.655C-11.547,117.535-11.596,109.771-11.059,102.007z"/>
			<path style="fill:#4A0D9E;" d="M-11.094,125.3c9.489,1.216,15.208,7.275,17.997,15.655C18.058,174.471,17.241,206.792-4.1,236.65
				c-1.874,2.622-3.865,5.234-7.048,6.497c-0.015-1.839-0.031-3.681-0.047-5.523c3.324-2.008,5.401-5.119,7.344-8.334
				c10.436-17.267,12.892-36.081,10.517-55.723c-0.965-7.979-2.555-15.88-6.758-22.952c-2.537-4.27-5.809-7.616-11.028-8.391
				C-11.53,136.582-11.577,130.94-11.094,125.3z"/>
			<path style="fill:#9F4AE0;" d="M45.675-6.935C36.368-0.603,27.354,6.126,18.693,13.309c-8.712,7.225-18.849,9.082-29.761,8.302
				c-0.521-6.775-0.47-13.551-0.036-20.33c2.217,0.066,4.447,0.014,6.651,0.224C5.29,2.435,13.738-0.41,20.949-6.987
				C29.191-6.97,37.433-6.952,45.675-6.935z"/>
			<path style="fill:#EA66FF;" d="M-11.118,142.224c5.219,0.775,8.49,4.122,11.028,8.391c4.203,7.072,5.793,14.973,6.758,22.952
				c2.375,19.642-0.081,38.456-10.517,55.723c-1.943,3.215-4.02,6.326-7.344,8.334c-0.001-2.4-0.002-4.8-0.003-7.2
				c1.862-0.783,2.894-2.427,3.771-4.044c10.536-19.435,11.562-39.564,4.061-60.197c-1.367-3.761-3.763-6.903-7.789-8.36
				C-11.142,152.623-11.13,147.423-11.118,142.224z"/>
			<path style="fill:#F5A4FE;" d="M-11.154,157.822c4.026,1.457,6.422,4.599,7.789,8.36c7.502,20.633,6.476,40.762-4.061,60.197
				c-0.877,1.617-1.909,3.262-3.771,4.044c0.03-3.581,0.059-7.161,0.088-10.743c7.122-10.076,6.653-21.383,5.117-32.768
				c-0.544-4.033-1.884-7.945-5.097-10.851C-11.583,169.984-11.5,163.904-11.154,157.822z"/>
			<path style="fill:#4A0D9E;" d="M20.949-6.987C13.738-0.41,5.29,2.435-4.453,1.505c-2.205-0.21-4.435-0.158-6.651-0.224
				c-0.733-8.476-0.733-8.503,7.59-8.468C4.64-7.153,12.794-7.056,20.949-6.987z"/>
			<path style="fill:#9F4AE0;" d="M-11.09,176.062c3.213,2.906,4.552,6.818,5.097,10.851c1.537,11.385,2.006,22.691-5.117,32.768
				C-11.544,205.142-11.573,190.602-11.09,176.062z"/>
			<path style="fill:#EA66FF;" d="M287.113-6.884c-10.974,2.501-21.898,5.619-33.319,2.832c-2.644-0.645-5.369-1.113-7.574-2.915
				C259.85-7.305,273.482-7.443,287.113-6.884z"/>
			<path style="fill:#EA66FF;" d="M244.978,120.294c19.435,2.127,40.818,6.525,60.212,17.807c3.239,1.884,6.292,4.213,9.077,6.728
				c15.675,14.153,16.719,32.96,2.539,48.659c-14.77,16.353-33.338,27.295-53.217,36.207c-23.672,10.612-48.75,14.903-74.469,16.111
				c-23.656,1.111-47.317,2.11-70.974,3.184c-14.501,0.658-28.337,5.088-42.526,7.515c-2.768,0.473-6.443,2.181-7.974-0.977
				c-1.59-3.281,2.288-5.065,4.368-6.664c10.055-7.731,20.375-15.117,30.55-22.695c20.828-15.512,37.897-34.715,53.718-55.079
				c14.975-19.274,32.312-35.479,55.529-44.434C221.655,122.859,231.768,120.41,244.978,120.294z M235.327,219.697
				c23.845-1.086,43.652-9.684,59.285-26.913c12.244-13.495,10.193-29.648-4.482-40.392c-6.049-4.429-12.882-7.089-19.983-9.186
				c-37.709-11.134-79.201,11.638-90.35,49.575c-2.548,8.669-0.111,15.081,7.799,17.361
				C203.4,214.696,219.472,218.195,235.327,219.697z"/>
			<path style="fill:#4A0D9E;" d="M728.759,99.662c0.675,46.351-15.154,87.245-40.925,125.001
				c-23.204,33.993-48.103,66.787-71.092,100.932c-16.856,25.035-32.226,51.035-49.603,75.725
				c-4.248,6.036-8.731,11.906-14.025,17.076c-2.445,2.388-5.008,4.728-7.812,6.665c-10.643,7.353-19.022,5.274-24.67-6.404
				c-5.468-11.307-6.331-23.699-7.587-35.959c-2.089-20.402-1.99-41.053-7.129-61.109c-7.983-31.158-31.439-51.021-63.677-54.011
				c-26.747-2.481-52.44-9.874-78.163-17.076c-1.145-0.32-2.249-0.854-3.301-1.42c-6.069-3.265-6.894-7.009-2.323-12.288
				c2.68-3.094,5.772-5.866,8.882-8.547c4.025-3.47,8.127-6.877,12.416-10.012c21.234-15.52,26.909-37.402,25.652-62.13
				c-0.479-9.43-2.559-18.641-4.137-27.918c-0.258-1.518-0.484-3.05-0.582-4.584c-0.647-10.178,3.508-14.913,13.812-15.775
				c6.55-0.548,13.061-0.021,19.432,1.417c12.239,2.763,23.927,7.056,35.146,12.749c16.23,8.236,27.159,20.916,33.759,37.773
				c5.693,14.539,12.543,28.539,22.301,40.908c1.592,2.017,3.245,3.996,4.991,5.881c16.828,18.164,31.565,20.112,52.426,6.599
				c17.19-11.135,31.189-25.79,43.892-41.617c15.668-19.522,30.942-39.363,46.187-59.218c11.862-15.449,19.862-32.777,24.246-51.773
				c1.001-4.337,2.239-8.632,3.615-12.866c1.008-3.101,2.261-6.4,6.057-6.963c3.844-0.57,6.421,1.796,8.593,4.635
				c7.194,9.402,10.344,20.389,12.319,31.787C728.748,84.589,728.924,92.139,728.759,99.662z M442.096,124.934
				c-14.144-0.231-19.445,3.957-20.689,14.967c-1.018,9.01-1.191,18.117-1.652,27.186c-1.15,22.641-7.23,43.231-24.488,59.229
				c-0.625,0.579-1.138,1.281-1.686,1.941c-6.237,7.519-5.489,11.811,3.262,15.919c12.433,5.836,25.722,7.456,39.233,6.227
				c17.936-1.632,34.314,3.014,50.148,10.814c19.157,9.437,30.271,24.449,33.388,45.694c2.446,16.673,2.724,33.474,4.068,50.21
				c0.7,8.726,1.516,17.478,4.385,25.791c3.65,10.576,10.29,12.15,18.702,4.757c6.243-5.486,11.132-12.123,15.765-18.93
				c18.815-27.644,36.503-56.038,55.897-83.302c17.888-25.146,36.653-49.707,52.399-76.315c6.049-10.222,11.24-20.851,12.801-32.839
				c0.524-4.023,0.55-8.462-3.074-10.784c-3.29-2.108-6.962,0.058-10.043,1.967c-5.405,3.349-10.26,7.417-14.935,11.721
				c-20.946,19.288-41.869,38.613-64.793,55.593c-9.942,7.365-20.14,14.398-32.334,17.662c-12.971,3.473-22.718,0.107-30.92-10.468
				c-5.731-7.389-9.647-15.775-13.376-24.261c-8.212-18.689-15.003-37.936-22.481-56.914
				C482.289,136.977,462.546,128.083,442.096,124.934z"/>
			<path style="fill:#4A0D9E;" d="M235.327,219.697c-15.856-1.502-54.611,3.388-60.14-25.442
				c-4.853-25.303,46.099-65.856,94.959-51.049c7.101,2.097,13.934,4.757,19.983,9.186c14.675,10.744,16.727,26.897,4.482,40.392
				C278.979,210.012,259.173,218.611,235.327,219.697z"/>
			<path style="fill:#EA66FF;" d="M442.096,124.934c20.45,3.149,40.194,12.044,49.58,35.866
				c7.478,18.978,14.27,38.225,22.481,56.914c3.729,8.486,7.644,16.871,13.376,24.261c8.202,10.575,17.948,13.94,30.92,10.468
				c12.195-3.265,22.392-10.298,32.334-17.662c22.924-16.981,43.847-36.305,64.793-55.593c4.674-4.305,9.529-8.372,14.935-11.721
				c3.081-1.909,6.753-4.075,10.043-1.967c3.624,2.322,3.598,6.761,3.074,10.784c-1.561,11.988-6.752,22.618-12.801,32.839
				c-15.746,26.608-34.511,51.169-52.399,76.315c-19.395,27.264-37.082,55.658-55.897,83.302
				c-4.633,6.807-9.523,13.444-15.765,18.93c-8.412,7.392-15.052,5.818-18.702-4.757c-2.869-8.313-3.685-17.065-4.385-25.791
				c-1.343-16.736-1.622-33.537-4.068-50.21c-3.117-21.245-14.231-36.257-33.388-45.694c-15.834-7.801-32.212-12.446-50.148-10.814
				c-13.512,1.229-26.801-0.391-39.233-6.227c-8.751-4.108-9.498-8.4-3.262-15.919c0.547-0.66,1.061-1.362,1.686-1.941
				c17.258-15.998,23.337-36.588,24.488-59.229c0.461-9.069,0.634-18.176,1.652-27.186
				C422.651,128.891,427.952,124.703,442.096,124.934z M486.075,201.501c-0.765-11.753-3.762-23.994-9.293-35.581
				c-2.819-5.906-7.03-10.509-13.155-13.185c-8.741-3.82-16.332-0.536-18.984,8.609c-3.294,11.358-3.854,22.935-1.723,34.593
				c1.019,5.573,3.426,10.508,7.981,13.985c5.776,4.409,12.248,7.618,19.341,9.336c8.338,2.019,14.198-2.01,15.48-10.532
				C486.026,206.703,485.936,204.621,486.075,201.501z"/>
			<path style="fill:#F5A4FE;" d="M486.075,201.501c-0.139,3.121-0.049,5.202-0.353,7.224c-1.282,8.522-7.142,12.551-15.48,10.532
				c-7.093-1.718-13.565-4.927-19.341-9.336c-4.554-3.476-6.962-8.412-7.981-13.985c-2.131-11.658-1.57-23.236,1.723-34.593
				c2.652-9.145,10.242-12.428,18.984-8.609c6.124,2.676,10.336,7.279,13.155,13.185
				C482.312,177.507,485.309,189.748,486.075,201.501z"/>
		</g>
	</g>
</g>
</svg>
