<svg width="165" height="75" viewBox="0 0 165 75" fill="none" xmlns="http://www.w3.org/2000/svg">
<g filter="url(#filter0_d_25_975)">
<rect x="3.18359" y="1.18359" width="158.633" height="66.6328" rx="16.5703" fill="url(#paint0_linear_25_975)" stroke="black" stroke-width="2.36719"/>
<g filter="url(#filter1_f_25_975)">
<rect x="5.07031" y="2.98364" width="154.859" height="63.0328" rx="14.2031" stroke="url(#paint1_linear_25_975)" stroke-width="2.36719"/>
</g>
<g style="mix-blend-mode:overlay">
<rect x="7.66016" y="4.80005" width="149.994" height="34.5" rx="10.6523" fill="url(#paint2_linear_25_975)"/>
</g>
<g filter="url(#filter2_d_25_975)">
<mask id="path-4-outside-1_25_975" maskUnits="userSpaceOnUse" x="63.7109" y="24.5625" width="38" height="16" fill="black">
<rect fill="white" x="63.7109" y="24.5625" width="38" height="16"/>
<path d="M66.1662 34.9265C66.4068 35.1165 66.8185 35.3762 67.4012 35.7055C67.9965 36.0348 68.5602 36.1995 69.0922 36.1995C69.6368 36.1995 69.9092 35.9905 69.9092 35.5725C69.9092 35.3825 69.8332 35.2178 69.6812 35.0785C69.5292 34.9265 69.2505 34.7555 68.8452 34.5655C68.4398 34.3755 68.1358 34.2298 67.9332 34.1285C67.7305 34.0145 67.4582 33.8372 67.1162 33.5965C66.7868 33.3432 66.5335 33.0835 66.3562 32.8175C65.8495 32.0955 65.5962 31.1772 65.5962 30.0625C65.5962 28.9478 66.0078 28.0105 66.8312 27.2505C67.6672 26.4778 68.7565 26.0915 70.0992 26.0915C71.0112 26.0915 71.8535 26.1928 72.6262 26.3955C73.3988 26.5855 73.7978 26.8388 73.8232 27.1555C73.8232 27.1935 73.8232 27.2315 73.8232 27.2695C73.8232 27.7128 73.6838 28.2765 73.4052 28.9605C73.1265 29.6318 72.9302 30.0055 72.8162 30.0815C72.0055 29.6635 71.2772 29.4545 70.6312 29.4545C69.9978 29.4545 69.6812 29.6825 69.6812 30.1385C69.6812 30.4172 69.9155 30.6642 70.3842 30.8795C70.4855 30.9302 70.6312 30.9998 70.8212 31.0885C71.0112 31.1772 71.2265 31.2848 71.4672 31.4115C71.7205 31.5255 71.9865 31.6775 72.2652 31.8675C72.5565 32.0448 72.8668 32.2855 73.1962 32.5895C73.8675 33.2228 74.2032 34.0588 74.2032 35.0975C74.2032 36.4528 73.8295 37.5612 73.0822 38.4225C72.3348 39.2838 71.1822 39.7272 69.6242 39.7525C68.8642 39.7525 68.1738 39.6892 67.5532 39.5625C66.9452 39.4358 66.4132 39.1888 65.9572 38.8215C65.5012 38.4542 65.2732 38.0108 65.2732 37.4915C65.2732 36.9722 65.3682 36.4592 65.5582 35.9525C65.7482 35.4332 65.9508 35.0912 66.1662 34.9265ZM81.9409 31.5445C82.1816 31.5445 82.3019 31.9878 82.3019 32.8745C82.3019 33.1405 82.2703 33.4572 82.2069 33.8245C82.1563 34.1792 82.0549 34.3565 81.9029 34.3565H79.4899V36.2565H82.9859C83.2013 36.2565 83.3469 36.5352 83.4229 37.0925C83.4609 37.3332 83.4799 37.5928 83.4799 37.8715C83.4799 38.1375 83.4419 38.4858 83.3659 38.9165C83.2899 39.3472 83.1633 39.5625 82.9859 39.5625H76.4879C76.0066 39.5625 75.7659 39.3662 75.7659 38.9735V26.7565C75.7659 26.4272 75.9116 26.2625 76.2029 26.2625H83.0049C83.2709 26.2625 83.4039 26.8262 83.4039 27.9535C83.4039 29.0682 83.2709 29.6255 83.0049 29.6255H79.4899V31.5445H81.9409ZM84.946 38.4415V26.6235C84.946 26.3575 85.5857 26.2245 86.865 26.2245C88.157 26.2245 88.803 26.3575 88.803 26.6235V35.9335H91.729C91.957 35.9335 92.1154 36.2312 92.204 36.8265C92.242 37.1178 92.261 37.4155 92.261 37.7195C92.261 38.0235 92.242 38.3338 92.204 38.6505C92.1027 39.2585 91.938 39.5625 91.71 39.5625H85.858C85.5794 39.5625 85.3577 39.4485 85.193 39.2205C85.0284 38.9925 84.946 38.7328 84.946 38.4415ZM93.2029 38.4415V26.6235C93.2029 26.3575 93.8425 26.2245 95.1219 26.2245C96.4139 26.2245 97.0599 26.3575 97.0599 26.6235V35.9335H99.9859C100.214 35.9335 100.372 36.2312 100.461 36.8265C100.499 37.1178 100.518 37.4155 100.518 37.7195C100.518 38.0235 100.499 38.3338 100.461 38.6505C100.36 39.2585 100.195 39.5625 99.9669 39.5625H94.1149C93.8362 39.5625 93.6145 39.4485 93.4499 39.2205C93.2852 38.9925 93.2029 38.7328 93.2029 38.4415Z"/>
</mask>
<path d="M66.1662 34.9265C66.4068 35.1165 66.8185 35.3762 67.4012 35.7055C67.9965 36.0348 68.5602 36.1995 69.0922 36.1995C69.6368 36.1995 69.9092 35.9905 69.9092 35.5725C69.9092 35.3825 69.8332 35.2178 69.6812 35.0785C69.5292 34.9265 69.2505 34.7555 68.8452 34.5655C68.4398 34.3755 68.1358 34.2298 67.9332 34.1285C67.7305 34.0145 67.4582 33.8372 67.1162 33.5965C66.7868 33.3432 66.5335 33.0835 66.3562 32.8175C65.8495 32.0955 65.5962 31.1772 65.5962 30.0625C65.5962 28.9478 66.0078 28.0105 66.8312 27.2505C67.6672 26.4778 68.7565 26.0915 70.0992 26.0915C71.0112 26.0915 71.8535 26.1928 72.6262 26.3955C73.3988 26.5855 73.7978 26.8388 73.8232 27.1555C73.8232 27.1935 73.8232 27.2315 73.8232 27.2695C73.8232 27.7128 73.6838 28.2765 73.4052 28.9605C73.1265 29.6318 72.9302 30.0055 72.8162 30.0815C72.0055 29.6635 71.2772 29.4545 70.6312 29.4545C69.9978 29.4545 69.6812 29.6825 69.6812 30.1385C69.6812 30.4172 69.9155 30.6642 70.3842 30.8795C70.4855 30.9302 70.6312 30.9998 70.8212 31.0885C71.0112 31.1772 71.2265 31.2848 71.4672 31.4115C71.7205 31.5255 71.9865 31.6775 72.2652 31.8675C72.5565 32.0448 72.8668 32.2855 73.1962 32.5895C73.8675 33.2228 74.2032 34.0588 74.2032 35.0975C74.2032 36.4528 73.8295 37.5612 73.0822 38.4225C72.3348 39.2838 71.1822 39.7272 69.6242 39.7525C68.8642 39.7525 68.1738 39.6892 67.5532 39.5625C66.9452 39.4358 66.4132 39.1888 65.9572 38.8215C65.5012 38.4542 65.2732 38.0108 65.2732 37.4915C65.2732 36.9722 65.3682 36.4592 65.5582 35.9525C65.7482 35.4332 65.9508 35.0912 66.1662 34.9265ZM81.9409 31.5445C82.1816 31.5445 82.3019 31.9878 82.3019 32.8745C82.3019 33.1405 82.2703 33.4572 82.2069 33.8245C82.1563 34.1792 82.0549 34.3565 81.9029 34.3565H79.4899V36.2565H82.9859C83.2013 36.2565 83.3469 36.5352 83.4229 37.0925C83.4609 37.3332 83.4799 37.5928 83.4799 37.8715C83.4799 38.1375 83.4419 38.4858 83.3659 38.9165C83.2899 39.3472 83.1633 39.5625 82.9859 39.5625H76.4879C76.0066 39.5625 75.7659 39.3662 75.7659 38.9735V26.7565C75.7659 26.4272 75.9116 26.2625 76.2029 26.2625H83.0049C83.2709 26.2625 83.4039 26.8262 83.4039 27.9535C83.4039 29.0682 83.2709 29.6255 83.0049 29.6255H79.4899V31.5445H81.9409ZM84.946 38.4415V26.6235C84.946 26.3575 85.5857 26.2245 86.865 26.2245C88.157 26.2245 88.803 26.3575 88.803 26.6235V35.9335H91.729C91.957 35.9335 92.1154 36.2312 92.204 36.8265C92.242 37.1178 92.261 37.4155 92.261 37.7195C92.261 38.0235 92.242 38.3338 92.204 38.6505C92.1027 39.2585 91.938 39.5625 91.71 39.5625H85.858C85.5794 39.5625 85.3577 39.4485 85.193 39.2205C85.0284 38.9925 84.946 38.7328 84.946 38.4415ZM93.2029 38.4415V26.6235C93.2029 26.3575 93.8425 26.2245 95.1219 26.2245C96.4139 26.2245 97.0599 26.3575 97.0599 26.6235V35.9335H99.9859C100.214 35.9335 100.372 36.2312 100.461 36.8265C100.499 37.1178 100.518 37.4155 100.518 37.7195C100.518 38.0235 100.499 38.3338 100.461 38.6505C100.36 39.2585 100.195 39.5625 99.9669 39.5625H94.1149C93.8362 39.5625 93.6145 39.4485 93.4499 39.2205C93.2852 38.9925 93.2029 38.7328 93.2029 38.4415Z" fill="#F4F7EE"/>
<path d="M66.1662 34.9265L66.6551 34.3072L66.1739 33.9273L65.6869 34.2997L66.1662 34.9265ZM67.4012 35.7055L67.0129 36.3925L67.0192 36.396L67.4012 35.7055ZM69.6812 35.0785L69.1232 35.6365L69.1353 35.6486L69.148 35.6602L69.6812 35.0785ZM68.8452 34.5655L68.5103 35.28H68.5103L68.8452 34.5655ZM67.9332 34.1285L67.5463 34.8162L67.5631 34.8257L67.5803 34.8343L67.9332 34.1285ZM67.1162 33.5965L66.6351 34.2219L66.6484 34.2322L66.6621 34.2418L67.1162 33.5965ZM66.3562 32.8175L67.0127 32.3798L67.0075 32.372L67.0021 32.3642L66.3562 32.8175ZM66.8312 27.2505L67.3664 27.8303L67.3667 27.83L66.8312 27.2505ZM72.6262 26.3955L72.4259 27.1588L72.4377 27.1617L72.6262 26.3955ZM73.8232 27.1555H74.6122V27.124L74.6097 27.0926L73.8232 27.1555ZM73.4052 28.9605L74.134 29.263L74.1359 29.2582L73.4052 28.9605ZM72.8162 30.0815L72.4545 30.7828L72.8674 30.9957L73.2539 30.738L72.8162 30.0815ZM70.3842 30.8795L70.737 30.1737L70.7254 30.1679L70.7136 30.1625L70.3842 30.8795ZM70.8212 31.0885L70.4875 31.8035L70.4875 31.8035L70.8212 31.0885ZM71.4672 31.4115L71.0997 32.1098L71.1212 32.1211L71.1434 32.1311L71.4672 31.4115ZM72.2652 31.8675L71.8207 32.5194L71.8375 32.5309L71.8549 32.5415L72.2652 31.8675ZM73.1962 32.5895L73.7377 32.0155L73.7314 32.0097L73.1962 32.5895ZM73.0822 38.4225L73.6782 38.9396L73.0822 38.4225ZM69.6242 39.7525V40.5417L69.637 40.5415L69.6242 39.7525ZM67.5532 39.5625L67.3922 40.335L67.3954 40.3356L67.5532 39.5625ZM65.9572 38.8215L66.4522 38.207L65.9572 38.8215ZM65.5582 35.9525L66.297 36.2296L66.2992 36.2236L65.5582 35.9525ZM65.6772 35.5458C65.969 35.7761 66.4262 36.0608 67.0129 36.3924L67.7894 35.0186C67.2108 34.6915 66.8447 34.4569 66.6551 34.3072L65.6772 35.5458ZM67.0192 36.396C67.6996 36.7723 68.3943 36.9886 69.0922 36.9886V35.4104C68.726 35.4104 68.2934 35.2973 67.7831 35.015L67.0192 36.396ZM69.0922 36.9886C69.4433 36.9886 69.8513 36.925 70.1853 36.6687C70.5588 36.3821 70.6982 35.9673 70.6982 35.5725H69.1201C69.1201 35.5924 69.1168 35.5728 69.1344 35.5325C69.1432 35.5122 69.1558 35.4902 69.1726 35.4686C69.1895 35.447 69.2076 35.4297 69.2245 35.4168C69.258 35.3911 69.2758 35.3903 69.254 35.3959C69.2312 35.4017 69.1804 35.4104 69.0922 35.4104V36.9886ZM70.6982 35.5725C70.6982 35.1411 70.5139 34.7714 70.2144 34.4968L69.148 35.6602C69.1574 35.6688 69.1472 35.662 69.1357 35.6372C69.1303 35.6254 69.1261 35.6127 69.1234 35.6001C69.1207 35.5876 69.1201 35.5779 69.1201 35.5725H70.6982ZM70.2391 34.5205C69.9841 34.2656 69.5984 34.0471 69.1801 33.851L68.5103 35.28C68.9026 35.4639 69.0742 35.5874 69.1232 35.6365L70.2391 34.5205ZM69.1801 33.851C68.7762 33.6617 68.4795 33.5195 68.286 33.4227L67.5803 34.8343C67.7922 34.9402 68.1035 35.0893 68.5103 35.28L69.1801 33.851ZM68.32 33.4408C68.1518 33.3461 67.9047 33.1866 67.5703 32.9512L66.6621 34.2418C67.0116 34.4878 67.3092 34.6829 67.5463 34.8162L68.32 33.4408ZM67.5973 32.9711C67.3169 32.7554 67.1303 32.5562 67.0127 32.3798L65.6996 33.2552C65.9367 33.6108 66.2567 33.9309 66.6351 34.2219L67.5973 32.9711ZM67.0021 32.3642C66.6105 31.8063 66.3852 31.0579 66.3852 30.0625H64.8071C64.8071 31.2964 65.0885 32.3847 65.7103 33.2708L67.0021 32.3642ZM66.3852 30.0625C66.3852 29.1694 66.7039 28.4418 67.3664 27.8303L66.296 26.6707C65.3118 27.5792 64.8071 28.7263 64.8071 30.0625H66.3852ZM67.3667 27.83C68.0313 27.2157 68.9172 26.8806 70.0992 26.8806V25.3024C68.5959 25.3024 67.303 25.7399 66.2956 26.671L67.3667 27.83ZM70.0992 26.8806C70.953 26.8806 71.7271 26.9754 72.426 27.1587L72.8264 25.6323C71.9799 25.4102 71.0694 25.3024 70.0992 25.3024V26.8806ZM72.4377 27.1617C72.7896 27.2483 72.9874 27.3341 73.082 27.3941C73.1783 27.4553 73.0519 27.41 73.0366 27.2184L74.6097 27.0926C74.5691 26.5843 74.2305 26.254 73.9279 26.0619C73.6234 25.8686 73.2354 25.7327 72.8146 25.6293L72.4377 27.1617ZM73.0341 27.1555C73.0341 27.1556 73.0341 27.1556 73.0341 27.1557C73.0341 27.1558 73.0341 27.1559 73.0341 27.1559C73.0341 27.156 73.0341 27.1561 73.0341 27.1562C73.0341 27.1562 73.0341 27.1563 73.0341 27.1564C73.0341 27.1565 73.0341 27.1565 73.0341 27.1566C73.0341 27.1567 73.0341 27.1568 73.0341 27.1568C73.0341 27.1569 73.0341 27.157 73.0341 27.1571C73.0341 27.1571 73.0341 27.1572 73.0341 27.1573C73.0341 27.1574 73.0341 27.1574 73.0341 27.1575C73.0341 27.1576 73.0341 27.1577 73.0341 27.1577C73.0341 27.1578 73.0341 27.1579 73.0341 27.1579C73.0341 27.158 73.0341 27.1581 73.0341 27.1582C73.0341 27.1582 73.0341 27.1583 73.0341 27.1584C73.0341 27.1585 73.0341 27.1585 73.0341 27.1586C73.0341 27.1587 73.0341 27.1588 73.0341 27.1588C73.0341 27.1589 73.0341 27.159 73.0341 27.1591C73.0341 27.1591 73.0341 27.1592 73.0341 27.1593C73.0341 27.1594 73.0341 27.1594 73.0341 27.1595C73.0341 27.1596 73.0341 27.1597 73.0341 27.1597C73.0341 27.1598 73.0341 27.1599 73.0341 27.16C73.0341 27.16 73.0341 27.1601 73.0341 27.1602C73.0341 27.1602 73.0341 27.1603 73.0341 27.1604C73.0341 27.1605 73.0341 27.1605 73.0341 27.1606C73.0341 27.1607 73.0341 27.1608 73.0341 27.1608C73.0341 27.1609 73.0341 27.161 73.0341 27.1611C73.0341 27.1611 73.0341 27.1612 73.0341 27.1613C73.0341 27.1614 73.0341 27.1614 73.0341 27.1615C73.0341 27.1616 73.0341 27.1617 73.0341 27.1617C73.0341 27.1618 73.0341 27.1619 73.0341 27.162C73.0341 27.162 73.0341 27.1621 73.0341 27.1622C73.0341 27.1623 73.0341 27.1623 73.0341 27.1624C73.0341 27.1625 73.0341 27.1625 73.0341 27.1626C73.0341 27.1627 73.0341 27.1628 73.0341 27.1628C73.0341 27.1629 73.0341 27.163 73.0341 27.1631C73.0341 27.1631 73.0341 27.1632 73.0341 27.1633C73.0341 27.1634 73.0341 27.1634 73.0341 27.1635C73.0341 27.1636 73.0341 27.1637 73.0341 27.1637C73.0341 27.1638 73.0341 27.1639 73.0341 27.164C73.0341 27.164 73.0341 27.1641 73.0341 27.1642C73.0341 27.1643 73.0341 27.1643 73.0341 27.1644C73.0341 27.1645 73.0341 27.1646 73.0341 27.1646C73.0341 27.1647 73.0341 27.1648 73.0341 27.1649C73.0341 27.1649 73.0341 27.165 73.0341 27.1651C73.0341 27.1651 73.0341 27.1652 73.0341 27.1653C73.0341 27.1654 73.0341 27.1654 73.0341 27.1655C73.0341 27.1656 73.0341 27.1657 73.0341 27.1657C73.0341 27.1658 73.0341 27.1659 73.0341 27.166C73.0341 27.166 73.0341 27.1661 73.0341 27.1662C73.0341 27.1663 73.0341 27.1663 73.0341 27.1664C73.0341 27.1665 73.0341 27.1666 73.0341 27.1666C73.0341 27.1667 73.0341 27.1668 73.0341 27.1669C73.0341 27.1669 73.0341 27.167 73.0341 27.1671C73.0341 27.1672 73.0341 27.1672 73.0341 27.1673C73.0341 27.1674 73.0341 27.1674 73.0341 27.1675C73.0341 27.1676 73.0341 27.1677 73.0341 27.1677C73.0341 27.1678 73.0341 27.1679 73.0341 27.168C73.0341 27.168 73.0341 27.1681 73.0341 27.1682C73.0341 27.1683 73.0341 27.1683 73.0341 27.1684C73.0341 27.1685 73.0341 27.1686 73.0341 27.1686C73.0341 27.1687 73.0341 27.1688 73.0341 27.1689C73.0341 27.1689 73.0341 27.169 73.0341 27.1691C73.0341 27.1692 73.0341 27.1692 73.0341 27.1693C73.0341 27.1694 73.0341 27.1695 73.0341 27.1695C73.0341 27.1696 73.0341 27.1697 73.0341 27.1697C73.0341 27.1698 73.0341 27.1699 73.0341 27.17C73.0341 27.17 73.0341 27.1701 73.0341 27.1702C73.0341 27.1703 73.0341 27.1703 73.0341 27.1704C73.0341 27.1705 73.0341 27.1706 73.0341 27.1706C73.0341 27.1707 73.0341 27.1708 73.0341 27.1709C73.0341 27.1709 73.0341 27.171 73.0341 27.1711C73.0341 27.1712 73.0341 27.1712 73.0341 27.1713C73.0341 27.1714 73.0341 27.1715 73.0341 27.1715C73.0341 27.1716 73.0341 27.1717 73.0341 27.1718C73.0341 27.1718 73.0341 27.1719 73.0341 27.172C73.0341 27.172 73.0341 27.1721 73.0341 27.1722C73.0341 27.1723 73.0341 27.1723 73.0341 27.1724C73.0341 27.1725 73.0341 27.1726 73.0341 27.1726C73.0341 27.1727 73.0341 27.1728 73.0341 27.1729C73.0341 27.1729 73.0341 27.173 73.0341 27.1731C73.0341 27.1732 73.0341 27.1732 73.0341 27.1733C73.0341 27.1734 73.0341 27.1735 73.0341 27.1735C73.0341 27.1736 73.0341 27.1737 73.0341 27.1738C73.0341 27.1738 73.0341 27.1739 73.0341 27.174C73.0341 27.1741 73.0341 27.1741 73.0341 27.1742C73.0341 27.1743 73.0341 27.1744 73.0341 27.1744C73.0341 27.1745 73.0341 27.1746 73.0341 27.1746C73.0341 27.1747 73.0341 27.1748 73.0341 27.1749C73.0341 27.1749 73.0341 27.175 73.0341 27.1751C73.0341 27.1752 73.0341 27.1752 73.0341 27.1753C73.0341 27.1754 73.0341 27.1755 73.0341 27.1755C73.0341 27.1756 73.0341 27.1757 73.0341 27.1758C73.0341 27.1758 73.0341 27.1759 73.0341 27.176C73.0341 27.1761 73.0341 27.1761 73.0341 27.1762C73.0341 27.1763 73.0341 27.1764 73.0341 27.1764C73.0341 27.1765 73.0341 27.1766 73.0341 27.1767C73.0341 27.1767 73.0341 27.1768 73.0341 27.1769C73.0341 27.1769 73.0341 27.177 73.0341 27.1771C73.0341 27.1772 73.0341 27.1772 73.0341 27.1773C73.0341 27.1774 73.0341 27.1775 73.0341 27.1775C73.0341 27.1776 73.0341 27.1777 73.0341 27.1778C73.0341 27.1778 73.0341 27.1779 73.0341 27.178C73.0341 27.1781 73.0341 27.1781 73.0341 27.1782C73.0341 27.1783 73.0341 27.1784 73.0341 27.1784C73.0341 27.1785 73.0341 27.1786 73.0341 27.1787C73.0341 27.1787 73.0341 27.1788 73.0341 27.1789C73.0341 27.179 73.0341 27.179 73.0341 27.1791C73.0341 27.1792 73.0341 27.1792 73.0341 27.1793C73.0341 27.1794 73.0341 27.1795 73.0341 27.1795C73.0341 27.1796 73.0341 27.1797 73.0341 27.1798C73.0341 27.1798 73.0341 27.1799 73.0341 27.18C73.0341 27.1801 73.0341 27.1801 73.0341 27.1802C73.0341 27.1803 73.0341 27.1804 73.0341 27.1804C73.0341 27.1805 73.0341 27.1806 73.0341 27.1807C73.0341 27.1807 73.0341 27.1808 73.0341 27.1809C73.0341 27.181 73.0341 27.181 73.0341 27.1811C73.0341 27.1812 73.0341 27.1813 73.0341 27.1813C73.0341 27.1814 73.0341 27.1815 73.0341 27.1816C73.0341 27.1816 73.0341 27.1817 73.0341 27.1818C73.0341 27.1818 73.0341 27.1819 73.0341 27.182C73.0341 27.1821 73.0341 27.1821 73.0341 27.1822C73.0341 27.1823 73.0341 27.1824 73.0341 27.1824C73.0341 27.1825 73.0341 27.1826 73.0341 27.1827C73.0341 27.1827 73.0341 27.1828 73.0341 27.1829C73.0341 27.183 73.0341 27.183 73.0341 27.1831C73.0341 27.1832 73.0341 27.1833 73.0341 27.1833C73.0341 27.1834 73.0341 27.1835 73.0341 27.1836C73.0341 27.1836 73.0341 27.1837 73.0341 27.1838C73.0341 27.1839 73.0341 27.1839 73.0341 27.184C73.0341 27.1841 73.0341 27.1841 73.0341 27.1842C73.0341 27.1843 73.0341 27.1844 73.0341 27.1844C73.0341 27.1845 73.0341 27.1846 73.0341 27.1847C73.0341 27.1847 73.0341 27.1848 73.0341 27.1849C73.0341 27.185 73.0341 27.185 73.0341 27.1851C73.0341 27.1852 73.0341 27.1853 73.0341 27.1853C73.0341 27.1854 73.0341 27.1855 73.0341 27.1856C73.0341 27.1856 73.0341 27.1857 73.0341 27.1858C73.0341 27.1859 73.0341 27.1859 73.0341 27.186C73.0341 27.1861 73.0341 27.1862 73.0341 27.1862C73.0341 27.1863 73.0341 27.1864 73.0341 27.1864C73.0341 27.1865 73.0341 27.1866 73.0341 27.1867C73.0341 27.1867 73.0341 27.1868 73.0341 27.1869C73.0341 27.187 73.0341 27.187 73.0341 27.1871C73.0341 27.1872 73.0341 27.1873 73.0341 27.1873C73.0341 27.1874 73.0341 27.1875 73.0341 27.1876C73.0341 27.1876 73.0341 27.1877 73.0341 27.1878C73.0341 27.1879 73.0341 27.1879 73.0341 27.188C73.0341 27.1881 73.0341 27.1882 73.0341 27.1882C73.0341 27.1883 73.0341 27.1884 73.0341 27.1885C73.0341 27.1885 73.0341 27.1886 73.0341 27.1887C73.0341 27.1887 73.0341 27.1888 73.0341 27.1889C73.0341 27.189 73.0341 27.189 73.0341 27.1891C73.0341 27.1892 73.0341 27.1893 73.0341 27.1893C73.0341 27.1894 73.0341 27.1895 73.0341 27.1896C73.0341 27.1896 73.0341 27.1897 73.0341 27.1898C73.0341 27.1899 73.0341 27.1899 73.0341 27.19C73.0341 27.1901 73.0341 27.1902 73.0341 27.1902C73.0341 27.1903 73.0341 27.1904 73.0341 27.1905C73.0341 27.1905 73.0341 27.1906 73.0341 27.1907C73.0341 27.1908 73.0341 27.1908 73.0341 27.1909C73.0341 27.191 73.0341 27.1911 73.0341 27.1911C73.0341 27.1912 73.0341 27.1913 73.0341 27.1913C73.0341 27.1914 73.0341 27.1915 73.0341 27.1916C73.0341 27.1916 73.0341 27.1917 73.0341 27.1918C73.0341 27.1919 73.0341 27.1919 73.0341 27.192C73.0341 27.1921 73.0341 27.1922 73.0341 27.1922C73.0341 27.1923 73.0341 27.1924 73.0341 27.1925C73.0341 27.1925 73.0341 27.1926 73.0341 27.1927C73.0341 27.1928 73.0341 27.1928 73.0341 27.1929C73.0341 27.193 73.0341 27.1931 73.0341 27.1931C73.0341 27.1932 73.0341 27.1933 73.0341 27.1934C73.0341 27.1934 73.0341 27.1935 73.0341 27.1936C73.0341 27.1936 73.0341 27.1937 73.0341 27.1938C73.0341 27.1939 73.0341 27.1939 73.0341 27.194C73.0341 27.1941 73.0341 27.1942 73.0341 27.1942C73.0341 27.1943 73.0341 27.1944 73.0341 27.1945C73.0341 27.1945 73.0341 27.1946 73.0341 27.1947C73.0341 27.1948 73.0341 27.1948 73.0341 27.1949C73.0341 27.195 73.0341 27.1951 73.0341 27.1951C73.0341 27.1952 73.0341 27.1953 73.0341 27.1954C73.0341 27.1954 73.0341 27.1955 73.0341 27.1956C73.0341 27.1957 73.0341 27.1957 73.0341 27.1958C73.0341 27.1959 73.0341 27.1959 73.0341 27.196C73.0341 27.1961 73.0341 27.1962 73.0341 27.1962C73.0341 27.1963 73.0341 27.1964 73.0341 27.1965C73.0341 27.1965 73.0341 27.1966 73.0341 27.1967C73.0341 27.1968 73.0341 27.1968 73.0341 27.1969C73.0341 27.197 73.0341 27.1971 73.0341 27.1971C73.0341 27.1972 73.0341 27.1973 73.0341 27.1974C73.0341 27.1974 73.0341 27.1975 73.0341 27.1976C73.0341 27.1977 73.0341 27.1977 73.0341 27.1978C73.0341 27.1979 73.0341 27.198 73.0341 27.198C73.0341 27.1981 73.0341 27.1982 73.0341 27.1982C73.0341 27.1983 73.0341 27.1984 73.0341 27.1985C73.0341 27.1985 73.0341 27.1986 73.0341 27.1987C73.0341 27.1988 73.0341 27.1988 73.0341 27.1989C73.0341 27.199 73.0341 27.1991 73.0341 27.1991C73.0341 27.1992 73.0341 27.1993 73.0341 27.1994C73.0341 27.1994 73.0341 27.1995 73.0341 27.1996C73.0341 27.1997 73.0341 27.1997 73.0341 27.1998C73.0341 27.1999 73.0341 27.2 73.0341 27.2C73.0341 27.2001 73.0341 27.2002 73.0341 27.2003C73.0341 27.2003 73.0341 27.2004 73.0341 27.2005C73.0341 27.2006 73.0341 27.2006 73.0341 27.2007C73.0341 27.2008 73.0341 27.2008 73.0341 27.2009C73.0341 27.201 73.0341 27.2011 73.0341 27.2011C73.0341 27.2012 73.0341 27.2013 73.0341 27.2014C73.0341 27.2014 73.0341 27.2015 73.0341 27.2016C73.0341 27.2017 73.0341 27.2017 73.0341 27.2018C73.0341 27.2019 73.0341 27.202 73.0341 27.202C73.0341 27.2021 73.0341 27.2022 73.0341 27.2023C73.0341 27.2023 73.0341 27.2024 73.0341 27.2025C73.0341 27.2026 73.0341 27.2026 73.0341 27.2027C73.0341 27.2028 73.0341 27.2029 73.0341 27.2029C73.0341 27.203 73.0341 27.2031 73.0341 27.2031C73.0341 27.2032 73.0341 27.2033 73.0341 27.2034C73.0341 27.2034 73.0341 27.2035 73.0341 27.2036C73.0341 27.2037 73.0341 27.2037 73.0341 27.2038C73.0341 27.2039 73.0341 27.204 73.0341 27.204C73.0341 27.2041 73.0341 27.2042 73.0341 27.2043C73.0341 27.2043 73.0341 27.2044 73.0341 27.2045C73.0341 27.2046 73.0341 27.2046 73.0341 27.2047C73.0341 27.2048 73.0341 27.2049 73.0341 27.2049C73.0341 27.205 73.0341 27.2051 73.0341 27.2052C73.0341 27.2052 73.0341 27.2053 73.0341 27.2054C73.0341 27.2054 73.0341 27.2055 73.0341 27.2056C73.0341 27.2057 73.0341 27.2057 73.0341 27.2058C73.0341 27.2059 73.0341 27.206 73.0341 27.206C73.0341 27.2061 73.0341 27.2062 73.0341 27.2063C73.0341 27.2063 73.0341 27.2064 73.0341 27.2065C73.0341 27.2066 73.0341 27.2066 73.0341 27.2067C73.0341 27.2068 73.0341 27.2069 73.0341 27.2069C73.0341 27.207 73.0341 27.2071 73.0341 27.2072C73.0341 27.2072 73.0341 27.2073 73.0341 27.2074C73.0341 27.2075 73.0341 27.2075 73.0341 27.2076C73.0341 27.2077 73.0341 27.2077 73.0341 27.2078C73.0341 27.2079 73.0341 27.208 73.0341 27.208C73.0341 27.2081 73.0341 27.2082 73.0341 27.2083C73.0341 27.2083 73.0341 27.2084 73.0341 27.2085C73.0341 27.2086 73.0341 27.2086 73.0341 27.2087C73.0341 27.2088 73.0341 27.2089 73.0341 27.2089C73.0341 27.209 73.0341 27.2091 73.0341 27.2092C73.0341 27.2092 73.0341 27.2093 73.0341 27.2094C73.0341 27.2095 73.0341 27.2095 73.0341 27.2096C73.0341 27.2097 73.0341 27.2098 73.0341 27.2098C73.0341 27.2099 73.0341 27.21 73.0341 27.2101C73.0341 27.2101 73.0341 27.2102 73.0341 27.2103C73.0341 27.2103 73.0341 27.2104 73.0341 27.2105C73.0341 27.2106 73.0341 27.2106 73.0341 27.2107C73.0341 27.2108 73.0341 27.2109 73.0341 27.2109C73.0341 27.211 73.0341 27.2111 73.0341 27.2112C73.0341 27.2112 73.0341 27.2113 73.0341 27.2114C73.0341 27.2115 73.0341 27.2115 73.0341 27.2116C73.0341 27.2117 73.0341 27.2118 73.0341 27.2118C73.0341 27.2119 73.0341 27.212 73.0341 27.2121C73.0341 27.2121 73.0341 27.2122 73.0341 27.2123C73.0341 27.2124 73.0341 27.2124 73.0341 27.2125C73.0341 27.2126 73.0341 27.2126 73.0341 27.2127C73.0341 27.2128 73.0341 27.2129 73.0341 27.2129C73.0341 27.213 73.0341 27.2131 73.0341 27.2132C73.0341 27.2132 73.0341 27.2133 73.0341 27.2134C73.0341 27.2135 73.0341 27.2135 73.0341 27.2136C73.0341 27.2137 73.0341 27.2138 73.0341 27.2138C73.0341 27.2139 73.0341 27.214 73.0341 27.2141C73.0341 27.2141 73.0341 27.2142 73.0341 27.2143C73.0341 27.2144 73.0341 27.2144 73.0341 27.2145C73.0341 27.2146 73.0341 27.2147 73.0341 27.2147C73.0341 27.2148 73.0341 27.2149 73.0341 27.2149C73.0341 27.215 73.0341 27.2151 73.0341 27.2152C73.0341 27.2152 73.0341 27.2153 73.0341 27.2154C73.0341 27.2155 73.0341 27.2155 73.0341 27.2156C73.0341 27.2157 73.0341 27.2158 73.0341 27.2158C73.0341 27.2159 73.0341 27.216 73.0341 27.2161C73.0341 27.2161 73.0341 27.2162 73.0341 27.2163C73.0341 27.2164 73.0341 27.2164 73.0341 27.2165C73.0341 27.2166 73.0341 27.2167 73.0341 27.2167C73.0341 27.2168 73.0341 27.2169 73.0341 27.217C73.0341 27.217 73.0341 27.2171 73.0341 27.2172C73.0341 27.2172 73.0341 27.2173 73.0341 27.2174C73.0341 27.2175 73.0341 27.2175 73.0341 27.2176C73.0341 27.2177 73.0341 27.2178 73.0341 27.2178C73.0341 27.2179 73.0341 27.218 73.0341 27.2181C73.0341 27.2181 73.0341 27.2182 73.0341 27.2183C73.0341 27.2184 73.0341 27.2184 73.0341 27.2185C73.0341 27.2186 73.0341 27.2187 73.0341 27.2187C73.0341 27.2188 73.0341 27.2189 73.0341 27.219C73.0341 27.219 73.0341 27.2191 73.0341 27.2192C73.0341 27.2193 73.0341 27.2193 73.0341 27.2194C73.0341 27.2195 73.0341 27.2196 73.0341 27.2196C73.0341 27.2197 73.0341 27.2198 73.0341 27.2198C73.0341 27.2199 73.0341 27.22 73.0341 27.2201C73.0341 27.2201 73.0341 27.2202 73.0341 27.2203C73.0341 27.2204 73.0341 27.2204 73.0341 27.2205C73.0341 27.2206 73.0341 27.2207 73.0341 27.2207C73.0341 27.2208 73.0341 27.2209 73.0341 27.221C73.0341 27.221 73.0341 27.2211 73.0341 27.2212C73.0341 27.2213 73.0341 27.2213 73.0341 27.2214C73.0341 27.2215 73.0341 27.2216 73.0341 27.2216C73.0341 27.2217 73.0341 27.2218 73.0341 27.2219C73.0341 27.2219 73.0341 27.222 73.0341 27.2221C73.0341 27.2221 73.0341 27.2222 73.0341 27.2223C73.0341 27.2224 73.0341 27.2224 73.0341 27.2225C73.0341 27.2226 73.0341 27.2227 73.0341 27.2227C73.0341 27.2228 73.0341 27.2229 73.0341 27.223C73.0341 27.223 73.0341 27.2231 73.0341 27.2232C73.0341 27.2233 73.0341 27.2233 73.0341 27.2234C73.0341 27.2235 73.0341 27.2236 73.0341 27.2236C73.0341 27.2237 73.0341 27.2238 73.0341 27.2239C73.0341 27.2239 73.0341 27.224 73.0341 27.2241C73.0341 27.2242 73.0341 27.2242 73.0341 27.2243C73.0341 27.2244 73.0341 27.2244 73.0341 27.2245C73.0341 27.2246 73.0341 27.2247 73.0341 27.2247C73.0341 27.2248 73.0341 27.2249 73.0341 27.225C73.0341 27.225 73.0341 27.2251 73.0341 27.2252C73.0341 27.2253 73.0341 27.2253 73.0341 27.2254C73.0341 27.2255 73.0341 27.2256 73.0341 27.2256C73.0341 27.2257 73.0341 27.2258 73.0341 27.2259C73.0341 27.2259 73.0341 27.226 73.0341 27.2261C73.0341 27.2262 73.0341 27.2262 73.0341 27.2263C73.0341 27.2264 73.0341 27.2265 73.0341 27.2265C73.0341 27.2266 73.0341 27.2267 73.0341 27.2267C73.0341 27.2268 73.0341 27.2269 73.0341 27.227C73.0341 27.227 73.0341 27.2271 73.0341 27.2272C73.0341 27.2273 73.0341 27.2273 73.0341 27.2274C73.0341 27.2275 73.0341 27.2276 73.0341 27.2276C73.0341 27.2277 73.0341 27.2278 73.0341 27.2279C73.0341 27.2279 73.0341 27.228 73.0341 27.2281C73.0341 27.2282 73.0341 27.2282 73.0341 27.2283C73.0341 27.2284 73.0341 27.2285 73.0341 27.2285C73.0341 27.2286 73.0341 27.2287 73.0341 27.2288C73.0341 27.2288 73.0341 27.2289 73.0341 27.229C73.0341 27.2291 73.0341 27.2291 73.0341 27.2292C73.0341 27.2293 73.0341 27.2293 73.0341 27.2294C73.0341 27.2295 73.0341 27.2296 73.0341 27.2296C73.0341 27.2297 73.0341 27.2298 73.0341 27.2299C73.0341 27.2299 73.0341 27.23 73.0341 27.2301C73.0341 27.2302 73.0341 27.2302 73.0341 27.2303C73.0341 27.2304 73.0341 27.2305 73.0341 27.2305C73.0341 27.2306 73.0341 27.2307 73.0341 27.2308C73.0341 27.2308 73.0341 27.2309 73.0341 27.231C73.0341 27.2311 73.0341 27.2311 73.0341 27.2312C73.0341 27.2313 73.0341 27.2314 73.0341 27.2314C73.0341 27.2315 73.0341 27.2316 73.0341 27.2316C73.0341 27.2317 73.0341 27.2318 73.0341 27.2319C73.0341 27.2319 73.0341 27.232 73.0341 27.2321C73.0341 27.2322 73.0341 27.2322 73.0341 27.2323C73.0341 27.2324 73.0341 27.2325 73.0341 27.2325C73.0341 27.2326 73.0341 27.2327 73.0341 27.2328C73.0341 27.2328 73.0341 27.2329 73.0341 27.233C73.0341 27.2331 73.0341 27.2331 73.0341 27.2332C73.0341 27.2333 73.0341 27.2334 73.0341 27.2334C73.0341 27.2335 73.0341 27.2336 73.0341 27.2337C73.0341 27.2337 73.0341 27.2338 73.0341 27.2339C73.0341 27.2339 73.0341 27.234 73.0341 27.2341C73.0341 27.2342 73.0341 27.2342 73.0341 27.2343C73.0341 27.2344 73.0341 27.2345 73.0341 27.2345C73.0341 27.2346 73.0341 27.2347 73.0341 27.2348C73.0341 27.2348 73.0341 27.2349 73.0341 27.235C73.0341 27.2351 73.0341 27.2351 73.0341 27.2352C73.0341 27.2353 73.0341 27.2354 73.0341 27.2354C73.0341 27.2355 73.0341 27.2356 73.0341 27.2357C73.0341 27.2357 73.0341 27.2358 73.0341 27.2359C73.0341 27.236 73.0341 27.236 73.0341 27.2361C73.0341 27.2362 73.0341 27.2362 73.0341 27.2363C73.0341 27.2364 73.0341 27.2365 73.0341 27.2365C73.0341 27.2366 73.0341 27.2367 73.0341 27.2368C73.0341 27.2368 73.0341 27.2369 73.0341 27.237C73.0341 27.2371 73.0341 27.2371 73.0341 27.2372C73.0341 27.2373 73.0341 27.2374 73.0341 27.2374C73.0341 27.2375 73.0341 27.2376 73.0341 27.2377C73.0341 27.2377 73.0341 27.2378 73.0341 27.2379C73.0341 27.238 73.0341 27.238 73.0341 27.2381C73.0341 27.2382 73.0341 27.2383 73.0341 27.2383C73.0341 27.2384 73.0341 27.2385 73.0341 27.2386C73.0341 27.2386 73.0341 27.2387 73.0341 27.2388C73.0341 27.2388 73.0341 27.2389 73.0341 27.239C73.0341 27.2391 73.0341 27.2391 73.0341 27.2392C73.0341 27.2393 73.0341 27.2394 73.0341 27.2394C73.0341 27.2395 73.0341 27.2396 73.0341 27.2397C73.0341 27.2397 73.0341 27.2398 73.0341 27.2399C73.0341 27.24 73.0341 27.24 73.0341 27.2401C73.0341 27.2402 73.0341 27.2403 73.0341 27.2403C73.0341 27.2404 73.0341 27.2405 73.0341 27.2406C73.0341 27.2406 73.0341 27.2407 73.0341 27.2408C73.0341 27.2409 73.0341 27.2409 73.0341 27.241C73.0341 27.2411 73.0341 27.2411 73.0341 27.2412C73.0341 27.2413 73.0341 27.2414 73.0341 27.2414C73.0341 27.2415 73.0341 27.2416 73.0341 27.2417C73.0341 27.2417 73.0341 27.2418 73.0341 27.2419C73.0341 27.242 73.0341 27.242 73.0341 27.2421C73.0341 27.2422 73.0341 27.2423 73.0341 27.2423C73.0341 27.2424 73.0341 27.2425 73.0341 27.2426C73.0341 27.2426 73.0341 27.2427 73.0341 27.2428C73.0341 27.2429 73.0341 27.2429 73.0341 27.243C73.0341 27.2431 73.0341 27.2432 73.0341 27.2432C73.0341 27.2433 73.0341 27.2434 73.0341 27.2434C73.0341 27.2435 73.0341 27.2436 73.0341 27.2437C73.0341 27.2437 73.0341 27.2438 73.0341 27.2439C73.0341 27.244 73.0341 27.244 73.0341 27.2441C73.0341 27.2442 73.0341 27.2443 73.0341 27.2443C73.0341 27.2444 73.0341 27.2445 73.0341 27.2446C73.0341 27.2446 73.0341 27.2447 73.0341 27.2448C73.0341 27.2449 73.0341 27.2449 73.0341 27.245C73.0341 27.2451 73.0341 27.2452 73.0341 27.2452C73.0341 27.2453 73.0341 27.2454 73.0341 27.2455C73.0341 27.2455 73.0341 27.2456 73.0341 27.2457C73.0341 27.2457 73.0341 27.2458 73.0341 27.2459C73.0341 27.246 73.0341 27.246 73.0341 27.2461C73.0341 27.2462 73.0341 27.2463 73.0341 27.2463C73.0341 27.2464 73.0341 27.2465 73.0341 27.2466C73.0341 27.2466 73.0341 27.2467 73.0341 27.2468C73.0341 27.2469 73.0341 27.2469 73.0341 27.247C73.0341 27.2471 73.0341 27.2472 73.0341 27.2472C73.0341 27.2473 73.0341 27.2474 73.0341 27.2475C73.0341 27.2475 73.0341 27.2476 73.0341 27.2477C73.0341 27.2478 73.0341 27.2478 73.0341 27.2479C73.0341 27.248 73.0341 27.2481 73.0341 27.2481C73.0341 27.2482 73.0341 27.2483 73.0341 27.2483C73.0341 27.2484 73.0341 27.2485 73.0341 27.2486C73.0341 27.2486 73.0341 27.2487 73.0341 27.2488C73.0341 27.2489 73.0341 27.2489 73.0341 27.249C73.0341 27.2491 73.0341 27.2492 73.0341 27.2492C73.0341 27.2493 73.0341 27.2494 73.0341 27.2495C73.0341 27.2495 73.0341 27.2496 73.0341 27.2497C73.0341 27.2498 73.0341 27.2498 73.0341 27.2499C73.0341 27.25 73.0341 27.2501 73.0341 27.2501C73.0341 27.2502 73.0341 27.2503 73.0341 27.2504C73.0341 27.2504 73.0341 27.2505 73.0341 27.2506C73.0341 27.2506 73.0341 27.2507 73.0341 27.2508C73.0341 27.2509 73.0341 27.2509 73.0341 27.251C73.0341 27.2511 73.0341 27.2512 73.0341 27.2512C73.0341 27.2513 73.0341 27.2514 73.0341 27.2515C73.0341 27.2515 73.0341 27.2516 73.0341 27.2517C73.0341 27.2518 73.0341 27.2518 73.0341 27.2519C73.0341 27.252 73.0341 27.2521 73.0341 27.2521C73.0341 27.2522 73.0341 27.2523 73.0341 27.2524C73.0341 27.2524 73.0341 27.2525 73.0341 27.2526C73.0341 27.2527 73.0341 27.2527 73.0341 27.2528C73.0341 27.2529 73.0341 27.2529 73.0341 27.253C73.0341 27.2531 73.0341 27.2532 73.0341 27.2532C73.0341 27.2533 73.0341 27.2534 73.0341 27.2535C73.0341 27.2535 73.0341 27.2536 73.0341 27.2537C73.0341 27.2538 73.0341 27.2538 73.0341 27.2539C73.0341 27.254 73.0341 27.2541 73.0341 27.2541C73.0341 27.2542 73.0341 27.2543 73.0341 27.2544C73.0341 27.2544 73.0341 27.2545 73.0341 27.2546C73.0341 27.2547 73.0341 27.2547 73.0341 27.2548C73.0341 27.2549 73.0341 27.255 73.0341 27.255C73.0341 27.2551 73.0341 27.2552 73.0341 27.2552C73.0341 27.2553 73.0341 27.2554 73.0341 27.2555C73.0341 27.2555 73.0341 27.2556 73.0341 27.2557C73.0341 27.2558 73.0341 27.2558 73.0341 27.2559C73.0341 27.256 73.0341 27.2561 73.0341 27.2561C73.0341 27.2562 73.0341 27.2563 73.0341 27.2564C73.0341 27.2564 73.0341 27.2565 73.0341 27.2566C73.0341 27.2567 73.0341 27.2567 73.0341 27.2568C73.0341 27.2569 73.0341 27.257 73.0341 27.257C73.0341 27.2571 73.0341 27.2572 73.0341 27.2573C73.0341 27.2573 73.0341 27.2574 73.0341 27.2575C73.0341 27.2576 73.0341 27.2576 73.0341 27.2577C73.0341 27.2578 73.0341 27.2578 73.0341 27.2579C73.0341 27.258 73.0341 27.2581 73.0341 27.2581C73.0341 27.2582 73.0341 27.2583 73.0341 27.2584C73.0341 27.2584 73.0341 27.2585 73.0341 27.2586C73.0341 27.2587 73.0341 27.2587 73.0341 27.2588C73.0341 27.2589 73.0341 27.259 73.0341 27.259C73.0341 27.2591 73.0341 27.2592 73.0341 27.2593C73.0341 27.2593 73.0341 27.2594 73.0341 27.2595C73.0341 27.2596 73.0341 27.2596 73.0341 27.2597C73.0341 27.2598 73.0341 27.2599 73.0341 27.2599C73.0341 27.26 73.0341 27.2601 73.0341 27.2601C73.0341 27.2602 73.0341 27.2603 73.0341 27.2604C73.0341 27.2604 73.0341 27.2605 73.0341 27.2606C73.0341 27.2607 73.0341 27.2607 73.0341 27.2608C73.0341 27.2609 73.0341 27.261 73.0341 27.261C73.0341 27.2611 73.0341 27.2612 73.0341 27.2613C73.0341 27.2613 73.0341 27.2614 73.0341 27.2615C73.0341 27.2616 73.0341 27.2616 73.0341 27.2617C73.0341 27.2618 73.0341 27.2619 73.0341 27.2619C73.0341 27.262 73.0341 27.2621 73.0341 27.2622C73.0341 27.2622 73.0341 27.2623 73.0341 27.2624C73.0341 27.2624 73.0341 27.2625 73.0341 27.2626C73.0341 27.2627 73.0341 27.2627 73.0341 27.2628C73.0341 27.2629 73.0341 27.263 73.0341 27.263C73.0341 27.2631 73.0341 27.2632 73.0341 27.2633C73.0341 27.2633 73.0341 27.2634 73.0341 27.2635C73.0341 27.2636 73.0341 27.2636 73.0341 27.2637C73.0341 27.2638 73.0341 27.2639 73.0341 27.2639C73.0341 27.264 73.0341 27.2641 73.0341 27.2642C73.0341 27.2642 73.0341 27.2643 73.0341 27.2644C73.0341 27.2645 73.0341 27.2645 73.0341 27.2646C73.0341 27.2647 73.0341 27.2647 73.0341 27.2648C73.0341 27.2649 73.0341 27.265 73.0341 27.265C73.0341 27.2651 73.0341 27.2652 73.0341 27.2653C73.0341 27.2653 73.0341 27.2654 73.0341 27.2655C73.0341 27.2656 73.0341 27.2656 73.0341 27.2657C73.0341 27.2658 73.0341 27.2659 73.0341 27.2659C73.0341 27.266 73.0341 27.2661 73.0341 27.2662C73.0341 27.2662 73.0341 27.2663 73.0341 27.2664C73.0341 27.2665 73.0341 27.2665 73.0341 27.2666C73.0341 27.2667 73.0341 27.2668 73.0341 27.2668C73.0341 27.2669 73.0341 27.267 73.0341 27.2671C73.0341 27.2671 73.0341 27.2672 73.0341 27.2673C73.0341 27.2673 73.0341 27.2674 73.0341 27.2675C73.0341 27.2676 73.0341 27.2676 73.0341 27.2677C73.0341 27.2678 73.0341 27.2679 73.0341 27.2679C73.0341 27.268 73.0341 27.2681 73.0341 27.2682C73.0341 27.2682 73.0341 27.2683 73.0341 27.2684C73.0341 27.2685 73.0341 27.2685 73.0341 27.2686C73.0341 27.2687 73.0341 27.2688 73.0341 27.2688C73.0341 27.2689 73.0341 27.269 73.0341 27.2691C73.0341 27.2691 73.0341 27.2692 73.0341 27.2693C73.0341 27.2694 73.0341 27.2694 73.0341 27.2695H74.6122C74.6122 27.2694 74.6122 27.2694 74.6122 27.2693C74.6122 27.2692 74.6122 27.2691 74.6122 27.2691C74.6122 27.269 74.6122 27.2689 74.6122 27.2688C74.6122 27.2688 74.6122 27.2687 74.6122 27.2686C74.6122 27.2685 74.6122 27.2685 74.6122 27.2684C74.6122 27.2683 74.6122 27.2682 74.6122 27.2682C74.6122 27.2681 74.6122 27.268 74.6122 27.2679C74.6122 27.2679 74.6122 27.2678 74.6122 27.2677C74.6122 27.2676 74.6122 27.2676 74.6122 27.2675C74.6122 27.2674 74.6122 27.2673 74.6122 27.2673C74.6122 27.2672 74.6122 27.2671 74.6122 27.2671C74.6122 27.267 74.6122 27.2669 74.6122 27.2668C74.6122 27.2668 74.6122 27.2667 74.6122 27.2666C74.6122 27.2665 74.6122 27.2665 74.6122 27.2664C74.6122 27.2663 74.6122 27.2662 74.6122 27.2662C74.6122 27.2661 74.6122 27.266 74.6122 27.2659C74.6122 27.2659 74.6122 27.2658 74.6122 27.2657C74.6122 27.2656 74.6122 27.2656 74.6122 27.2655C74.6122 27.2654 74.6122 27.2653 74.6122 27.2653C74.6122 27.2652 74.6122 27.2651 74.6122 27.265C74.6122 27.265 74.6122 27.2649 74.6122 27.2648C74.6122 27.2647 74.6122 27.2647 74.6122 27.2646C74.6122 27.2645 74.6122 27.2645 74.6122 27.2644C74.6122 27.2643 74.6122 27.2642 74.6122 27.2642C74.6122 27.2641 74.6122 27.264 74.6122 27.2639C74.6122 27.2639 74.6122 27.2638 74.6122 27.2637C74.6122 27.2636 74.6122 27.2636 74.6122 27.2635C74.6122 27.2634 74.6122 27.2633 74.6122 27.2633C74.6122 27.2632 74.6122 27.2631 74.6122 27.263C74.6122 27.263 74.6122 27.2629 74.6122 27.2628C74.6122 27.2627 74.6122 27.2627 74.6122 27.2626C74.6122 27.2625 74.6122 27.2624 74.6122 27.2624C74.6122 27.2623 74.6122 27.2622 74.6122 27.2622C74.6122 27.2621 74.6122 27.262 74.6122 27.2619C74.6122 27.2619 74.6122 27.2618 74.6122 27.2617C74.6122 27.2616 74.6122 27.2616 74.6122 27.2615C74.6122 27.2614 74.6122 27.2613 74.6122 27.2613C74.6122 27.2612 74.6122 27.2611 74.6122 27.261C74.6122 27.261 74.6122 27.2609 74.6122 27.2608C74.6122 27.2607 74.6122 27.2607 74.6122 27.2606C74.6122 27.2605 74.6122 27.2604 74.6122 27.2604C74.6122 27.2603 74.6122 27.2602 74.6122 27.2601C74.6122 27.2601 74.6122 27.26 74.6122 27.2599C74.6122 27.2599 74.6122 27.2598 74.6122 27.2597C74.6122 27.2596 74.6122 27.2596 74.6122 27.2595C74.6122 27.2594 74.6122 27.2593 74.6122 27.2593C74.6122 27.2592 74.6122 27.2591 74.6122 27.259C74.6122 27.259 74.6122 27.2589 74.6122 27.2588C74.6122 27.2587 74.6122 27.2587 74.6122 27.2586C74.6122 27.2585 74.6122 27.2584 74.6122 27.2584C74.6122 27.2583 74.6122 27.2582 74.6122 27.2581C74.6122 27.2581 74.6122 27.258 74.6122 27.2579C74.6122 27.2578 74.6122 27.2578 74.6122 27.2577C74.6122 27.2576 74.6122 27.2576 74.6122 27.2575C74.6122 27.2574 74.6122 27.2573 74.6122 27.2573C74.6122 27.2572 74.6122 27.2571 74.6122 27.257C74.6122 27.257 74.6122 27.2569 74.6122 27.2568C74.6122 27.2567 74.6122 27.2567 74.6122 27.2566C74.6122 27.2565 74.6122 27.2564 74.6122 27.2564C74.6122 27.2563 74.6122 27.2562 74.6122 27.2561C74.6122 27.2561 74.6122 27.256 74.6122 27.2559C74.6122 27.2558 74.6122 27.2558 74.6122 27.2557C74.6122 27.2556 74.6122 27.2555 74.6122 27.2555C74.6122 27.2554 74.6122 27.2553 74.6122 27.2552C74.6122 27.2552 74.6122 27.2551 74.6122 27.255C74.6122 27.255 74.6122 27.2549 74.6122 27.2548C74.6122 27.2547 74.6122 27.2547 74.6122 27.2546C74.6122 27.2545 74.6122 27.2544 74.6122 27.2544C74.6122 27.2543 74.6122 27.2542 74.6122 27.2541C74.6122 27.2541 74.6122 27.254 74.6122 27.2539C74.6122 27.2538 74.6122 27.2538 74.6122 27.2537C74.6122 27.2536 74.6122 27.2535 74.6122 27.2535C74.6122 27.2534 74.6122 27.2533 74.6122 27.2532C74.6122 27.2532 74.6122 27.2531 74.6122 27.253C74.6122 27.2529 74.6122 27.2529 74.6122 27.2528C74.6122 27.2527 74.6122 27.2527 74.6122 27.2526C74.6122 27.2525 74.6122 27.2524 74.6122 27.2524C74.6122 27.2523 74.6122 27.2522 74.6122 27.2521C74.6122 27.2521 74.6122 27.252 74.6122 27.2519C74.6122 27.2518 74.6122 27.2518 74.6122 27.2517C74.6122 27.2516 74.6122 27.2515 74.6122 27.2515C74.6122 27.2514 74.6122 27.2513 74.6122 27.2512C74.6122 27.2512 74.6122 27.2511 74.6122 27.251C74.6122 27.2509 74.6122 27.2509 74.6122 27.2508C74.6122 27.2507 74.6122 27.2506 74.6122 27.2506C74.6122 27.2505 74.6122 27.2504 74.6122 27.2504C74.6122 27.2503 74.6122 27.2502 74.6122 27.2501C74.6122 27.2501 74.6122 27.25 74.6122 27.2499C74.6122 27.2498 74.6122 27.2498 74.6122 27.2497C74.6122 27.2496 74.6122 27.2495 74.6122 27.2495C74.6122 27.2494 74.6122 27.2493 74.6122 27.2492C74.6122 27.2492 74.6122 27.2491 74.6122 27.249C74.6122 27.2489 74.6122 27.2489 74.6122 27.2488C74.6122 27.2487 74.6122 27.2486 74.6122 27.2486C74.6122 27.2485 74.6122 27.2484 74.6122 27.2483C74.6122 27.2483 74.6122 27.2482 74.6122 27.2481C74.6122 27.2481 74.6122 27.248 74.6122 27.2479C74.6122 27.2478 74.6122 27.2478 74.6122 27.2477C74.6122 27.2476 74.6122 27.2475 74.6122 27.2475C74.6122 27.2474 74.6122 27.2473 74.6122 27.2472C74.6122 27.2472 74.6122 27.2471 74.6122 27.247C74.6122 27.2469 74.6122 27.2469 74.6122 27.2468C74.6122 27.2467 74.6122 27.2466 74.6122 27.2466C74.6122 27.2465 74.6122 27.2464 74.6122 27.2463C74.6122 27.2463 74.6122 27.2462 74.6122 27.2461C74.6122 27.246 74.6122 27.246 74.6122 27.2459C74.6122 27.2458 74.6122 27.2457 74.6122 27.2457C74.6122 27.2456 74.6122 27.2455 74.6122 27.2455C74.6122 27.2454 74.6122 27.2453 74.6122 27.2452C74.6122 27.2452 74.6122 27.2451 74.6122 27.245C74.6122 27.2449 74.6122 27.2449 74.6122 27.2448C74.6122 27.2447 74.6122 27.2446 74.6122 27.2446C74.6122 27.2445 74.6122 27.2444 74.6122 27.2443C74.6122 27.2443 74.6122 27.2442 74.6122 27.2441C74.6122 27.244 74.6122 27.244 74.6122 27.2439C74.6122 27.2438 74.6122 27.2437 74.6122 27.2437C74.6122 27.2436 74.6122 27.2435 74.6122 27.2434C74.6122 27.2434 74.6122 27.2433 74.6122 27.2432C74.6122 27.2432 74.6122 27.2431 74.6122 27.243C74.6122 27.2429 74.6122 27.2429 74.6122 27.2428C74.6122 27.2427 74.6122 27.2426 74.6122 27.2426C74.6122 27.2425 74.6122 27.2424 74.6122 27.2423C74.6122 27.2423 74.6122 27.2422 74.6122 27.2421C74.6122 27.242 74.6122 27.242 74.6122 27.2419C74.6122 27.2418 74.6122 27.2417 74.6122 27.2417C74.6122 27.2416 74.6122 27.2415 74.6122 27.2414C74.6122 27.2414 74.6122 27.2413 74.6122 27.2412C74.6122 27.2411 74.6122 27.2411 74.6122 27.241C74.6122 27.2409 74.6122 27.2409 74.6122 27.2408C74.6122 27.2407 74.6122 27.2406 74.6122 27.2406C74.6122 27.2405 74.6122 27.2404 74.6122 27.2403C74.6122 27.2403 74.6122 27.2402 74.6122 27.2401C74.6122 27.24 74.6122 27.24 74.6122 27.2399C74.6122 27.2398 74.6122 27.2397 74.6122 27.2397C74.6122 27.2396 74.6122 27.2395 74.6122 27.2394C74.6122 27.2394 74.6122 27.2393 74.6122 27.2392C74.6122 27.2391 74.6122 27.2391 74.6122 27.239C74.6122 27.2389 74.6122 27.2388 74.6122 27.2388C74.6122 27.2387 74.6122 27.2386 74.6122 27.2386C74.6122 27.2385 74.6122 27.2384 74.6122 27.2383C74.6122 27.2383 74.6122 27.2382 74.6122 27.2381C74.6122 27.238 74.6122 27.238 74.6122 27.2379C74.6122 27.2378 74.6122 27.2377 74.6122 27.2377C74.6122 27.2376 74.6122 27.2375 74.6122 27.2374C74.6122 27.2374 74.6122 27.2373 74.6122 27.2372C74.6122 27.2371 74.6122 27.2371 74.6122 27.237C74.6122 27.2369 74.6122 27.2368 74.6122 27.2368C74.6122 27.2367 74.6122 27.2366 74.6122 27.2365C74.6122 27.2365 74.6122 27.2364 74.6122 27.2363C74.6122 27.2362 74.6122 27.2362 74.6122 27.2361C74.6122 27.236 74.6122 27.236 74.6122 27.2359C74.6122 27.2358 74.6122 27.2357 74.6122 27.2357C74.6122 27.2356 74.6122 27.2355 74.6122 27.2354C74.6122 27.2354 74.6122 27.2353 74.6122 27.2352C74.6122 27.2351 74.6122 27.2351 74.6122 27.235C74.6122 27.2349 74.6122 27.2348 74.6122 27.2348C74.6122 27.2347 74.6122 27.2346 74.6122 27.2345C74.6122 27.2345 74.6122 27.2344 74.6122 27.2343C74.6122 27.2342 74.6122 27.2342 74.6122 27.2341C74.6122 27.234 74.6122 27.2339 74.6122 27.2339C74.6122 27.2338 74.6122 27.2337 74.6122 27.2337C74.6122 27.2336 74.6122 27.2335 74.6122 27.2334C74.6122 27.2334 74.6122 27.2333 74.6122 27.2332C74.6122 27.2331 74.6122 27.2331 74.6122 27.233C74.6122 27.2329 74.6122 27.2328 74.6122 27.2328C74.6122 27.2327 74.6122 27.2326 74.6122 27.2325C74.6122 27.2325 74.6122 27.2324 74.6122 27.2323C74.6122 27.2322 74.6122 27.2322 74.6122 27.2321C74.6122 27.232 74.6122 27.2319 74.6122 27.2319C74.6122 27.2318 74.6122 27.2317 74.6122 27.2316C74.6122 27.2316 74.6122 27.2315 74.6122 27.2314C74.6122 27.2314 74.6122 27.2313 74.6122 27.2312C74.6122 27.2311 74.6122 27.2311 74.6122 27.231C74.6122 27.2309 74.6122 27.2308 74.6122 27.2308C74.6122 27.2307 74.6122 27.2306 74.6122 27.2305C74.6122 27.2305 74.6122 27.2304 74.6122 27.2303C74.6122 27.2302 74.6122 27.2302 74.6122 27.2301C74.6122 27.23 74.6122 27.2299 74.6122 27.2299C74.6122 27.2298 74.6122 27.2297 74.6122 27.2296C74.6122 27.2296 74.6122 27.2295 74.6122 27.2294C74.6122 27.2293 74.6122 27.2293 74.6122 27.2292C74.6122 27.2291 74.6122 27.2291 74.6122 27.229C74.6122 27.2289 74.6122 27.2288 74.6122 27.2288C74.6122 27.2287 74.6122 27.2286 74.6122 27.2285C74.6122 27.2285 74.6122 27.2284 74.6122 27.2283C74.6122 27.2282 74.6122 27.2282 74.6122 27.2281C74.6122 27.228 74.6122 27.2279 74.6122 27.2279C74.6122 27.2278 74.6122 27.2277 74.6122 27.2276C74.6122 27.2276 74.6122 27.2275 74.6122 27.2274C74.6122 27.2273 74.6122 27.2273 74.6122 27.2272C74.6122 27.2271 74.6122 27.227 74.6122 27.227C74.6122 27.2269 74.6122 27.2268 74.6122 27.2267C74.6122 27.2267 74.6122 27.2266 74.6122 27.2265C74.6122 27.2265 74.6122 27.2264 74.6122 27.2263C74.6122 27.2262 74.6122 27.2262 74.6122 27.2261C74.6122 27.226 74.6122 27.2259 74.6122 27.2259C74.6122 27.2258 74.6122 27.2257 74.6122 27.2256C74.6122 27.2256 74.6122 27.2255 74.6122 27.2254C74.6122 27.2253 74.6122 27.2253 74.6122 27.2252C74.6122 27.2251 74.6122 27.225 74.6122 27.225C74.6122 27.2249 74.6122 27.2248 74.6122 27.2247C74.6122 27.2247 74.6122 27.2246 74.6122 27.2245C74.6122 27.2244 74.6122 27.2244 74.6122 27.2243C74.6122 27.2242 74.6122 27.2242 74.6122 27.2241C74.6122 27.224 74.6122 27.2239 74.6122 27.2239C74.6122 27.2238 74.6122 27.2237 74.6122 27.2236C74.6122 27.2236 74.6122 27.2235 74.6122 27.2234C74.6122 27.2233 74.6122 27.2233 74.6122 27.2232C74.6122 27.2231 74.6122 27.223 74.6122 27.223C74.6122 27.2229 74.6122 27.2228 74.6122 27.2227C74.6122 27.2227 74.6122 27.2226 74.6122 27.2225C74.6122 27.2224 74.6122 27.2224 74.6122 27.2223C74.6122 27.2222 74.6122 27.2221 74.6122 27.2221C74.6122 27.222 74.6122 27.2219 74.6122 27.2219C74.6122 27.2218 74.6122 27.2217 74.6122 27.2216C74.6122 27.2216 74.6122 27.2215 74.6122 27.2214C74.6122 27.2213 74.6122 27.2213 74.6122 27.2212C74.6122 27.2211 74.6122 27.221 74.6122 27.221C74.6122 27.2209 74.6122 27.2208 74.6122 27.2207C74.6122 27.2207 74.6122 27.2206 74.6122 27.2205C74.6122 27.2204 74.6122 27.2204 74.6122 27.2203C74.6122 27.2202 74.6122 27.2201 74.6122 27.2201C74.6122 27.22 74.6122 27.2199 74.6122 27.2198C74.6122 27.2198 74.6122 27.2197 74.6122 27.2196C74.6122 27.2196 74.6122 27.2195 74.6122 27.2194C74.6122 27.2193 74.6122 27.2193 74.6122 27.2192C74.6122 27.2191 74.6122 27.219 74.6122 27.219C74.6122 27.2189 74.6122 27.2188 74.6122 27.2187C74.6122 27.2187 74.6122 27.2186 74.6122 27.2185C74.6122 27.2184 74.6122 27.2184 74.6122 27.2183C74.6122 27.2182 74.6122 27.2181 74.6122 27.2181C74.6122 27.218 74.6122 27.2179 74.6122 27.2178C74.6122 27.2178 74.6122 27.2177 74.6122 27.2176C74.6122 27.2175 74.6122 27.2175 74.6122 27.2174C74.6122 27.2173 74.6122 27.2172 74.6122 27.2172C74.6122 27.2171 74.6122 27.217 74.6122 27.217C74.6122 27.2169 74.6122 27.2168 74.6122 27.2167C74.6122 27.2167 74.6122 27.2166 74.6122 27.2165C74.6122 27.2164 74.6122 27.2164 74.6122 27.2163C74.6122 27.2162 74.6122 27.2161 74.6122 27.2161C74.6122 27.216 74.6122 27.2159 74.6122 27.2158C74.6122 27.2158 74.6122 27.2157 74.6122 27.2156C74.6122 27.2155 74.6122 27.2155 74.6122 27.2154C74.6122 27.2153 74.6122 27.2152 74.6122 27.2152C74.6122 27.2151 74.6122 27.215 74.6122 27.2149C74.6122 27.2149 74.6122 27.2148 74.6122 27.2147C74.6122 27.2147 74.6122 27.2146 74.6122 27.2145C74.6122 27.2144 74.6122 27.2144 74.6122 27.2143C74.6122 27.2142 74.6122 27.2141 74.6122 27.2141C74.6122 27.214 74.6122 27.2139 74.6122 27.2138C74.6122 27.2138 74.6122 27.2137 74.6122 27.2136C74.6122 27.2135 74.6122 27.2135 74.6122 27.2134C74.6122 27.2133 74.6122 27.2132 74.6122 27.2132C74.6122 27.2131 74.6122 27.213 74.6122 27.2129C74.6122 27.2129 74.6122 27.2128 74.6122 27.2127C74.6122 27.2126 74.6122 27.2126 74.6122 27.2125C74.6122 27.2124 74.6122 27.2124 74.6122 27.2123C74.6122 27.2122 74.6122 27.2121 74.6122 27.2121C74.6122 27.212 74.6122 27.2119 74.6122 27.2118C74.6122 27.2118 74.6122 27.2117 74.6122 27.2116C74.6122 27.2115 74.6122 27.2115 74.6122 27.2114C74.6122 27.2113 74.6122 27.2112 74.6122 27.2112C74.6122 27.2111 74.6122 27.211 74.6122 27.2109C74.6122 27.2109 74.6122 27.2108 74.6122 27.2107C74.6122 27.2106 74.6122 27.2106 74.6122 27.2105C74.6122 27.2104 74.6122 27.2103 74.6122 27.2103C74.6122 27.2102 74.6122 27.2101 74.6122 27.2101C74.6122 27.21 74.6122 27.2099 74.6122 27.2098C74.6122 27.2098 74.6122 27.2097 74.6122 27.2096C74.6122 27.2095 74.6122 27.2095 74.6122 27.2094C74.6122 27.2093 74.6122 27.2092 74.6122 27.2092C74.6122 27.2091 74.6122 27.209 74.6122 27.2089C74.6122 27.2089 74.6122 27.2088 74.6122 27.2087C74.6122 27.2086 74.6122 27.2086 74.6122 27.2085C74.6122 27.2084 74.6122 27.2083 74.6122 27.2083C74.6122 27.2082 74.6122 27.2081 74.6122 27.208C74.6122 27.208 74.6122 27.2079 74.6122 27.2078C74.6122 27.2077 74.6122 27.2077 74.6122 27.2076C74.6122 27.2075 74.6122 27.2075 74.6122 27.2074C74.6122 27.2073 74.6122 27.2072 74.6122 27.2072C74.6122 27.2071 74.6122 27.207 74.6122 27.2069C74.6122 27.2069 74.6122 27.2068 74.6122 27.2067C74.6122 27.2066 74.6122 27.2066 74.6122 27.2065C74.6122 27.2064 74.6122 27.2063 74.6122 27.2063C74.6122 27.2062 74.6122 27.2061 74.6122 27.206C74.6122 27.206 74.6122 27.2059 74.6122 27.2058C74.6122 27.2057 74.6122 27.2057 74.6122 27.2056C74.6122 27.2055 74.6122 27.2054 74.6122 27.2054C74.6122 27.2053 74.6122 27.2052 74.6122 27.2052C74.6122 27.2051 74.6122 27.205 74.6122 27.2049C74.6122 27.2049 74.6122 27.2048 74.6122 27.2047C74.6122 27.2046 74.6122 27.2046 74.6122 27.2045C74.6122 27.2044 74.6122 27.2043 74.6122 27.2043C74.6122 27.2042 74.6122 27.2041 74.6122 27.204C74.6122 27.204 74.6122 27.2039 74.6122 27.2038C74.6122 27.2037 74.6122 27.2037 74.6122 27.2036C74.6122 27.2035 74.6122 27.2034 74.6122 27.2034C74.6122 27.2033 74.6122 27.2032 74.6122 27.2031C74.6122 27.2031 74.6122 27.203 74.6122 27.2029C74.6122 27.2029 74.6122 27.2028 74.6122 27.2027C74.6122 27.2026 74.6122 27.2026 74.6122 27.2025C74.6122 27.2024 74.6122 27.2023 74.6122 27.2023C74.6122 27.2022 74.6122 27.2021 74.6122 27.202C74.6122 27.202 74.6122 27.2019 74.6122 27.2018C74.6122 27.2017 74.6122 27.2017 74.6122 27.2016C74.6122 27.2015 74.6122 27.2014 74.6122 27.2014C74.6122 27.2013 74.6122 27.2012 74.6122 27.2011C74.6122 27.2011 74.6122 27.201 74.6122 27.2009C74.6122 27.2008 74.6122 27.2008 74.6122 27.2007C74.6122 27.2006 74.6122 27.2006 74.6122 27.2005C74.6122 27.2004 74.6122 27.2003 74.6122 27.2003C74.6122 27.2002 74.6122 27.2001 74.6122 27.2C74.6122 27.2 74.6122 27.1999 74.6122 27.1998C74.6122 27.1997 74.6122 27.1997 74.6122 27.1996C74.6122 27.1995 74.6122 27.1994 74.6122 27.1994C74.6122 27.1993 74.6122 27.1992 74.6122 27.1991C74.6122 27.1991 74.6122 27.199 74.6122 27.1989C74.6122 27.1988 74.6122 27.1988 74.6122 27.1987C74.6122 27.1986 74.6122 27.1985 74.6122 27.1985C74.6122 27.1984 74.6122 27.1983 74.6122 27.1982C74.6122 27.1982 74.6122 27.1981 74.6122 27.198C74.6122 27.198 74.6122 27.1979 74.6122 27.1978C74.6122 27.1977 74.6122 27.1977 74.6122 27.1976C74.6122 27.1975 74.6122 27.1974 74.6122 27.1974C74.6122 27.1973 74.6122 27.1972 74.6122 27.1971C74.6122 27.1971 74.6122 27.197 74.6122 27.1969C74.6122 27.1968 74.6122 27.1968 74.6122 27.1967C74.6122 27.1966 74.6122 27.1965 74.6122 27.1965C74.6122 27.1964 74.6122 27.1963 74.6122 27.1962C74.6122 27.1962 74.6122 27.1961 74.6122 27.196C74.6122 27.1959 74.6122 27.1959 74.6122 27.1958C74.6122 27.1957 74.6122 27.1957 74.6122 27.1956C74.6122 27.1955 74.6122 27.1954 74.6122 27.1954C74.6122 27.1953 74.6122 27.1952 74.6122 27.1951C74.6122 27.1951 74.6122 27.195 74.6122 27.1949C74.6122 27.1948 74.6122 27.1948 74.6122 27.1947C74.6122 27.1946 74.6122 27.1945 74.6122 27.1945C74.6122 27.1944 74.6122 27.1943 74.6122 27.1942C74.6122 27.1942 74.6122 27.1941 74.6122 27.194C74.6122 27.1939 74.6122 27.1939 74.6122 27.1938C74.6122 27.1937 74.6122 27.1936 74.6122 27.1936C74.6122 27.1935 74.6122 27.1934 74.6122 27.1934C74.6122 27.1933 74.6122 27.1932 74.6122 27.1931C74.6122 27.1931 74.6122 27.193 74.6122 27.1929C74.6122 27.1928 74.6122 27.1928 74.6122 27.1927C74.6122 27.1926 74.6122 27.1925 74.6122 27.1925C74.6122 27.1924 74.6122 27.1923 74.6122 27.1922C74.6122 27.1922 74.6122 27.1921 74.6122 27.192C74.6122 27.1919 74.6122 27.1919 74.6122 27.1918C74.6122 27.1917 74.6122 27.1916 74.6122 27.1916C74.6122 27.1915 74.6122 27.1914 74.6122 27.1913C74.6122 27.1913 74.6122 27.1912 74.6122 27.1911C74.6122 27.1911 74.6122 27.191 74.6122 27.1909C74.6122 27.1908 74.6122 27.1908 74.6122 27.1907C74.6122 27.1906 74.6122 27.1905 74.6122 27.1905C74.6122 27.1904 74.6122 27.1903 74.6122 27.1902C74.6122 27.1902 74.6122 27.1901 74.6122 27.19C74.6122 27.1899 74.6122 27.1899 74.6122 27.1898C74.6122 27.1897 74.6122 27.1896 74.6122 27.1896C74.6122 27.1895 74.6122 27.1894 74.6122 27.1893C74.6122 27.1893 74.6122 27.1892 74.6122 27.1891C74.6122 27.189 74.6122 27.189 74.6122 27.1889C74.6122 27.1888 74.6122 27.1887 74.6122 27.1887C74.6122 27.1886 74.6122 27.1885 74.6122 27.1885C74.6122 27.1884 74.6122 27.1883 74.6122 27.1882C74.6122 27.1882 74.6122 27.1881 74.6122 27.188C74.6122 27.1879 74.6122 27.1879 74.6122 27.1878C74.6122 27.1877 74.6122 27.1876 74.6122 27.1876C74.6122 27.1875 74.6122 27.1874 74.6122 27.1873C74.6122 27.1873 74.6122 27.1872 74.6122 27.1871C74.6122 27.187 74.6122 27.187 74.6122 27.1869C74.6122 27.1868 74.6122 27.1867 74.6122 27.1867C74.6122 27.1866 74.6122 27.1865 74.6122 27.1864C74.6122 27.1864 74.6122 27.1863 74.6122 27.1862C74.6122 27.1862 74.6122 27.1861 74.6122 27.186C74.6122 27.1859 74.6122 27.1859 74.6122 27.1858C74.6122 27.1857 74.6122 27.1856 74.6122 27.1856C74.6122 27.1855 74.6122 27.1854 74.6122 27.1853C74.6122 27.1853 74.6122 27.1852 74.6122 27.1851C74.6122 27.185 74.6122 27.185 74.6122 27.1849C74.6122 27.1848 74.6122 27.1847 74.6122 27.1847C74.6122 27.1846 74.6122 27.1845 74.6122 27.1844C74.6122 27.1844 74.6122 27.1843 74.6122 27.1842C74.6122 27.1841 74.6122 27.1841 74.6122 27.184C74.6122 27.1839 74.6122 27.1839 74.6122 27.1838C74.6122 27.1837 74.6122 27.1836 74.6122 27.1836C74.6122 27.1835 74.6122 27.1834 74.6122 27.1833C74.6122 27.1833 74.6122 27.1832 74.6122 27.1831C74.6122 27.183 74.6122 27.183 74.6122 27.1829C74.6122 27.1828 74.6122 27.1827 74.6122 27.1827C74.6122 27.1826 74.6122 27.1825 74.6122 27.1824C74.6122 27.1824 74.6122 27.1823 74.6122 27.1822C74.6122 27.1821 74.6122 27.1821 74.6122 27.182C74.6122 27.1819 74.6122 27.1818 74.6122 27.1818C74.6122 27.1817 74.6122 27.1816 74.6122 27.1816C74.6122 27.1815 74.6122 27.1814 74.6122 27.1813C74.6122 27.1813 74.6122 27.1812 74.6122 27.1811C74.6122 27.181 74.6122 27.181 74.6122 27.1809C74.6122 27.1808 74.6122 27.1807 74.6122 27.1807C74.6122 27.1806 74.6122 27.1805 74.6122 27.1804C74.6122 27.1804 74.6122 27.1803 74.6122 27.1802C74.6122 27.1801 74.6122 27.1801 74.6122 27.18C74.6122 27.1799 74.6122 27.1798 74.6122 27.1798C74.6122 27.1797 74.6122 27.1796 74.6122 27.1795C74.6122 27.1795 74.6122 27.1794 74.6122 27.1793C74.6122 27.1792 74.6122 27.1792 74.6122 27.1791C74.6122 27.179 74.6122 27.179 74.6122 27.1789C74.6122 27.1788 74.6122 27.1787 74.6122 27.1787C74.6122 27.1786 74.6122 27.1785 74.6122 27.1784C74.6122 27.1784 74.6122 27.1783 74.6122 27.1782C74.6122 27.1781 74.6122 27.1781 74.6122 27.178C74.6122 27.1779 74.6122 27.1778 74.6122 27.1778C74.6122 27.1777 74.6122 27.1776 74.6122 27.1775C74.6122 27.1775 74.6122 27.1774 74.6122 27.1773C74.6122 27.1772 74.6122 27.1772 74.6122 27.1771C74.6122 27.177 74.6122 27.1769 74.6122 27.1769C74.6122 27.1768 74.6122 27.1767 74.6122 27.1767C74.6122 27.1766 74.6122 27.1765 74.6122 27.1764C74.6122 27.1764 74.6122 27.1763 74.6122 27.1762C74.6122 27.1761 74.6122 27.1761 74.6122 27.176C74.6122 27.1759 74.6122 27.1758 74.6122 27.1758C74.6122 27.1757 74.6122 27.1756 74.6122 27.1755C74.6122 27.1755 74.6122 27.1754 74.6122 27.1753C74.6122 27.1752 74.6122 27.1752 74.6122 27.1751C74.6122 27.175 74.6122 27.1749 74.6122 27.1749C74.6122 27.1748 74.6122 27.1747 74.6122 27.1746C74.6122 27.1746 74.6122 27.1745 74.6122 27.1744C74.6122 27.1744 74.6122 27.1743 74.6122 27.1742C74.6122 27.1741 74.6122 27.1741 74.6122 27.174C74.6122 27.1739 74.6122 27.1738 74.6122 27.1738C74.6122 27.1737 74.6122 27.1736 74.6122 27.1735C74.6122 27.1735 74.6122 27.1734 74.6122 27.1733C74.6122 27.1732 74.6122 27.1732 74.6122 27.1731C74.6122 27.173 74.6122 27.1729 74.6122 27.1729C74.6122 27.1728 74.6122 27.1727 74.6122 27.1726C74.6122 27.1726 74.6122 27.1725 74.6122 27.1724C74.6122 27.1723 74.6122 27.1723 74.6122 27.1722C74.6122 27.1721 74.6122 27.172 74.6122 27.172C74.6122 27.1719 74.6122 27.1718 74.6122 27.1718C74.6122 27.1717 74.6122 27.1716 74.6122 27.1715C74.6122 27.1715 74.6122 27.1714 74.6122 27.1713C74.6122 27.1712 74.6122 27.1712 74.6122 27.1711C74.6122 27.171 74.6122 27.1709 74.6122 27.1709C74.6122 27.1708 74.6122 27.1707 74.6122 27.1706C74.6122 27.1706 74.6122 27.1705 74.6122 27.1704C74.6122 27.1703 74.6122 27.1703 74.6122 27.1702C74.6122 27.1701 74.6122 27.17 74.6122 27.17C74.6122 27.1699 74.6122 27.1698 74.6122 27.1697C74.6122 27.1697 74.6122 27.1696 74.6122 27.1695C74.6122 27.1695 74.6122 27.1694 74.6122 27.1693C74.6122 27.1692 74.6122 27.1692 74.6122 27.1691C74.6122 27.169 74.6122 27.1689 74.6122 27.1689C74.6122 27.1688 74.6122 27.1687 74.6122 27.1686C74.6122 27.1686 74.6122 27.1685 74.6122 27.1684C74.6122 27.1683 74.6122 27.1683 74.6122 27.1682C74.6122 27.1681 74.6122 27.168 74.6122 27.168C74.6122 27.1679 74.6122 27.1678 74.6122 27.1677C74.6122 27.1677 74.6122 27.1676 74.6122 27.1675C74.6122 27.1674 74.6122 27.1674 74.6122 27.1673C74.6122 27.1672 74.6122 27.1672 74.6122 27.1671C74.6122 27.167 74.6122 27.1669 74.6122 27.1669C74.6122 27.1668 74.6122 27.1667 74.6122 27.1666C74.6122 27.1666 74.6122 27.1665 74.6122 27.1664C74.6122 27.1663 74.6122 27.1663 74.6122 27.1662C74.6122 27.1661 74.6122 27.166 74.6122 27.166C74.6122 27.1659 74.6122 27.1658 74.6122 27.1657C74.6122 27.1657 74.6122 27.1656 74.6122 27.1655C74.6122 27.1654 74.6122 27.1654 74.6122 27.1653C74.6122 27.1652 74.6122 27.1651 74.6122 27.1651C74.6122 27.165 74.6122 27.1649 74.6122 27.1649C74.6122 27.1648 74.6122 27.1647 74.6122 27.1646C74.6122 27.1646 74.6122 27.1645 74.6122 27.1644C74.6122 27.1643 74.6122 27.1643 74.6122 27.1642C74.6122 27.1641 74.6122 27.164 74.6122 27.164C74.6122 27.1639 74.6122 27.1638 74.6122 27.1637C74.6122 27.1637 74.6122 27.1636 74.6122 27.1635C74.6122 27.1634 74.6122 27.1634 74.6122 27.1633C74.6122 27.1632 74.6122 27.1631 74.6122 27.1631C74.6122 27.163 74.6122 27.1629 74.6122 27.1628C74.6122 27.1628 74.6122 27.1627 74.6122 27.1626C74.6122 27.1625 74.6122 27.1625 74.6122 27.1624C74.6122 27.1623 74.6122 27.1623 74.6122 27.1622C74.6122 27.1621 74.6122 27.162 74.6122 27.162C74.6122 27.1619 74.6122 27.1618 74.6122 27.1617C74.6122 27.1617 74.6122 27.1616 74.6122 27.1615C74.6122 27.1614 74.6122 27.1614 74.6122 27.1613C74.6122 27.1612 74.6122 27.1611 74.6122 27.1611C74.6122 27.161 74.6122 27.1609 74.6122 27.1608C74.6122 27.1608 74.6122 27.1607 74.6122 27.1606C74.6122 27.1605 74.6122 27.1605 74.6122 27.1604C74.6122 27.1603 74.6122 27.1602 74.6122 27.1602C74.6122 27.1601 74.6122 27.16 74.6122 27.16C74.6122 27.1599 74.6122 27.1598 74.6122 27.1597C74.6122 27.1597 74.6122 27.1596 74.6122 27.1595C74.6122 27.1594 74.6122 27.1594 74.6122 27.1593C74.6122 27.1592 74.6122 27.1591 74.6122 27.1591C74.6122 27.159 74.6122 27.1589 74.6122 27.1588C74.6122 27.1588 74.6122 27.1587 74.6122 27.1586C74.6122 27.1585 74.6122 27.1585 74.6122 27.1584C74.6122 27.1583 74.6122 27.1582 74.6122 27.1582C74.6122 27.1581 74.6122 27.158 74.6122 27.1579C74.6122 27.1579 74.6122 27.1578 74.6122 27.1577C74.6122 27.1577 74.6122 27.1576 74.6122 27.1575C74.6122 27.1574 74.6122 27.1574 74.6122 27.1573C74.6122 27.1572 74.6122 27.1571 74.6122 27.1571C74.6122 27.157 74.6122 27.1569 74.6122 27.1568C74.6122 27.1568 74.6122 27.1567 74.6122 27.1566C74.6122 27.1565 74.6122 27.1565 74.6122 27.1564C74.6122 27.1563 74.6122 27.1562 74.6122 27.1562C74.6122 27.1561 74.6122 27.156 74.6122 27.1559C74.6122 27.1559 74.6122 27.1558 74.6122 27.1557C74.6122 27.1556 74.6122 27.1556 74.6122 27.1555H73.0341ZM73.0341 27.2695C73.0341 27.5649 72.9368 28.0187 72.6744 28.6628L74.1359 29.2582C74.4309 28.5343 74.6122 27.8608 74.6122 27.2695H73.0341ZM72.6764 28.658C72.5407 28.9849 72.4324 29.2211 72.3504 29.3772C72.309 29.456 72.2816 29.5003 72.2677 29.5205C72.2406 29.5597 72.2766 29.4929 72.3785 29.425L73.2539 30.738C73.4127 30.6321 73.516 30.4901 73.5665 30.4169C73.6302 30.3246 73.6906 30.2194 73.7474 30.1113C73.8617 29.8937 73.991 29.6074 74.1339 29.263L72.6764 28.658ZM73.1778 29.3802C72.2985 28.9268 71.444 28.6654 70.6312 28.6654V30.2436C71.1104 30.2436 71.7125 30.4002 72.4545 30.7828L73.1778 29.3802ZM70.6312 28.6654C70.2435 28.6654 69.8106 28.731 69.4576 28.9851C69.0566 29.2738 68.8921 29.7056 68.8921 30.1385H70.4702C70.4702 30.1154 70.4741 30.1329 70.4566 30.1708C70.4371 30.2129 70.4066 30.2465 70.3797 30.2659C70.3576 30.2818 70.3564 30.2749 70.3997 30.2645C70.4434 30.254 70.5176 30.2436 70.6312 30.2436V28.6654ZM68.8921 30.1385C68.8921 30.9255 69.5509 31.365 70.0547 31.5965L70.7136 30.1625C70.6248 30.1217 70.5584 30.0845 70.5102 30.0528C70.4616 30.0208 70.4379 29.9986 70.4294 29.9897C70.4214 29.9813 70.4326 29.9907 70.4458 30.0203C70.4601 30.0523 70.4702 30.0938 70.4702 30.1385H68.8921ZM70.0313 31.5853C70.1422 31.6407 70.2955 31.7139 70.4875 31.8035L71.1549 30.3735C70.9669 30.2857 70.8288 30.2196 70.737 30.1737L70.0313 31.5853ZM70.4875 31.8035C70.6633 31.8856 70.8671 31.9873 71.0997 32.1098L71.8347 30.7132C71.5859 30.5823 71.359 30.4687 71.1549 30.3735L70.4875 31.8035ZM71.1434 32.1311C71.3468 32.2226 71.5724 32.3502 71.8207 32.5194L72.7097 31.2156C72.4006 31.0048 72.0942 30.8284 71.791 30.6919L71.1434 32.1311ZM71.8549 32.5415C72.0902 32.6847 72.3588 32.8904 72.661 33.1693L73.7314 32.0097C73.3748 31.6806 73.0228 31.4049 72.6754 31.1935L71.8549 32.5415ZM72.6547 33.1635C73.1474 33.6283 73.4141 34.2461 73.4141 35.0975H74.9922C74.9922 33.8716 74.5876 32.8174 73.7376 32.0155L72.6547 33.1635ZM73.4141 35.0975C73.4141 36.3005 73.0864 37.2137 72.4862 37.9054L73.6782 38.9396C74.5726 37.9087 74.9922 36.6052 74.9922 35.0975H73.4141ZM72.4862 37.9054C71.9338 38.542 71.0308 38.9405 69.6113 38.9635L69.637 40.5415C71.3336 40.5139 72.7358 40.0257 73.6782 38.9396L72.4862 37.9054ZM69.6242 38.9634C68.907 38.9634 68.2706 38.9036 67.7109 38.7894L67.3954 40.3356C68.077 40.4747 68.8213 40.5416 69.6242 40.5416V38.9634ZM67.7141 38.79C67.2208 38.6872 66.805 38.4912 66.4522 38.207L65.4622 39.436C66.0213 39.8864 66.6696 40.1844 67.3922 40.335L67.7141 38.79ZM66.4522 38.207C66.1553 37.9679 66.0622 37.7396 66.0622 37.4915H64.4841C64.4841 38.282 64.847 38.9405 65.4622 39.436L66.4522 38.207ZM66.0622 37.4915C66.0622 37.0707 66.1388 36.6514 66.297 36.2296L64.8193 35.6754C64.5975 36.2669 64.4841 36.8736 64.4841 37.4915H66.0622ZM66.2992 36.2236C66.3835 35.9933 66.4624 35.8254 66.5315 35.7088C66.6032 35.5877 66.6463 35.5527 66.6455 35.5533L65.6869 34.2997C65.2806 34.6104 65.015 35.1405 64.8171 35.6814L66.2992 36.2236ZM82.2069 33.8245L81.4293 33.6904L81.4274 33.7016L81.4258 33.7129L82.2069 33.8245ZM79.4899 34.3565V33.5674H78.7009V34.3565H79.4899ZM79.4899 36.2565H78.7009V37.0456H79.4899V36.2565ZM83.4229 37.0925L82.6411 37.1991L82.6422 37.2074L82.6435 37.2156L83.4229 37.0925ZM83.3659 38.9165L82.5889 38.7794V38.7794L83.3659 38.9165ZM79.4899 29.6255V28.8364H78.7009V29.6255H79.4899ZM79.4899 31.5445H78.7009V32.3336H79.4899V31.5445ZM81.9409 32.3336C81.8445 32.3336 81.7464 32.31 81.658 32.2635C81.5733 32.219 81.5183 32.1644 81.487 32.1259C81.4328 32.0593 81.4335 32.0222 81.4502 32.0837C81.4821 32.2015 81.5129 32.449 81.5129 32.8745H83.091C83.091 32.4133 83.0615 31.9958 82.9732 31.6703C82.9297 31.5101 82.8552 31.3068 82.7107 31.1294C82.547 30.9284 82.2838 30.7554 81.9409 30.7554V32.3336ZM81.5129 32.8745C81.5129 33.0817 81.4878 33.3513 81.4293 33.6904L82.9845 33.9586C83.0527 33.5631 83.091 33.1993 83.091 32.8745H81.5129ZM81.4258 33.7129C81.4168 33.7758 81.4075 33.8168 81.4007 33.8405C81.3934 33.866 81.3928 33.8582 81.4078 33.832C81.4225 33.8062 81.4657 33.7393 81.5549 33.6768C81.6534 33.6079 81.7761 33.5674 81.9029 33.5674V35.1456C82.3577 35.1456 82.6418 34.8534 82.778 34.615C82.902 34.398 82.9576 34.149 82.9881 33.9361L81.4258 33.7129ZM81.9029 33.5674H79.4899V35.1456H81.9029V33.5674ZM78.7009 34.3565V36.2565H80.279V34.3565H78.7009ZM79.4899 37.0456H82.9859V35.4674H79.4899V37.0456ZM82.9859 37.0456C82.8546 37.0456 82.7365 36.9984 82.6522 36.9334C82.6148 36.9045 82.5905 36.8772 82.5767 36.8595C82.5697 36.8505 82.5648 36.8433 82.5619 36.8386C82.5589 36.8339 82.5575 36.8312 82.5574 36.831C82.5574 36.831 82.5612 36.8385 82.5676 36.8557C82.5738 36.8727 82.5816 36.8968 82.5901 36.929C82.6075 36.9943 82.6253 37.083 82.6411 37.1991L84.2047 36.9859C84.1625 36.6764 84.0921 36.3603 83.956 36.1C83.8172 35.8345 83.5129 35.4674 82.9859 35.4674V37.0456ZM82.6435 37.2156C82.6742 37.4102 82.6909 37.6283 82.6909 37.8715H84.269C84.269 37.5574 84.2476 37.2561 84.2023 36.9694L82.6435 37.2156ZM82.6909 37.8715C82.6909 38.0718 82.6613 38.3691 82.5889 38.7794L84.143 39.0536C84.2226 38.6026 84.269 38.2032 84.269 37.8715H82.6909ZM82.5889 38.7794C82.5742 38.8626 82.5592 38.9224 82.5465 38.9629C82.5333 39.0052 82.5265 39.0133 82.5338 39.0009C82.5404 38.9897 82.5748 38.9339 82.6533 38.8782C82.7415 38.8158 82.8583 38.7734 82.9859 38.7734V40.3516C83.4614 40.3516 83.7533 40.0403 83.894 39.8011C84.0281 39.5731 84.099 39.3029 84.143 39.0536L82.5889 38.7794ZM82.9859 38.7734H76.4879V40.3516H82.9859V38.7734ZM76.4879 38.7734C76.4186 38.7734 76.3858 38.7661 76.3791 38.7643C76.3741 38.7629 76.404 38.7703 76.4452 38.8038C76.4897 38.8402 76.523 38.8874 76.5415 38.9327C76.558 38.9732 76.555 38.9926 76.555 38.9735H74.9769C74.9769 39.3387 75.0966 39.7403 75.4476 40.0267C75.7679 40.288 76.1602 40.3516 76.4879 40.3516V38.7734ZM76.555 38.9735V26.7565H74.9769V38.9735H76.555ZM76.555 26.7565C76.555 26.6913 76.5715 26.7897 76.4662 26.9088C76.3445 27.0463 76.2057 27.0516 76.2029 27.0516V25.4734C75.9088 25.4734 75.5515 25.561 75.2842 25.8632C75.0332 26.1469 74.9769 26.4924 74.9769 26.7565H76.555ZM76.2029 27.0516H83.0049V25.4734H76.2029V27.0516ZM83.0049 27.0516C82.7412 27.0516 82.5847 26.8937 82.5354 26.8241C82.5002 26.7742 82.5126 26.7665 82.5362 26.8665C82.5811 27.0566 82.6149 27.4049 82.6149 27.9535H84.193C84.193 27.3747 84.1603 26.8776 84.0721 26.504C84.0292 26.3222 83.9586 26.1031 83.8235 25.9123C83.6745 25.7018 83.4016 25.4734 83.0049 25.4734V27.0516ZM82.6149 27.9535C82.6149 28.4955 82.581 28.8383 82.5367 29.0243C82.5133 29.1221 82.5015 29.1126 82.5379 29.0617C82.5889 28.9905 82.7452 28.8364 83.0049 28.8364V30.4146C83.3976 30.4146 83.6703 30.1909 83.8211 29.9803C83.9573 29.7901 84.0285 29.5715 84.0717 29.3907C84.1603 29.0193 84.193 28.5261 84.193 27.9535H82.6149ZM83.0049 28.8364H79.4899V30.4146H83.0049V28.8364ZM78.7009 29.6255V31.5445H80.279V29.6255H78.7009ZM79.4899 32.3336H81.9409V30.7554H79.4899V32.3336ZM88.803 35.9335H88.014V36.7226H88.803V35.9335ZM92.204 36.8265L92.9865 36.7244L92.9855 36.7173L92.9845 36.7103L92.204 36.8265ZM92.204 38.6505L92.9824 38.7802L92.9853 38.7624L92.9875 38.7445L92.204 38.6505ZM85.193 39.2205L85.8327 38.7585L85.193 39.2205ZM85.7351 38.4415V26.6235H84.157V38.4415H85.7351ZM85.7351 26.6235C85.7351 26.9341 85.529 27.0901 85.4836 27.1184C85.4471 27.1412 85.4609 27.1229 85.5864 27.0968C85.8245 27.0473 86.2384 27.0136 86.865 27.0136V25.4354C86.2123 25.4354 85.6667 25.4682 85.2652 25.5517C85.0708 25.5921 84.8447 25.657 84.6484 25.7794C84.443 25.9075 84.157 26.1799 84.157 26.6235H85.7351ZM86.865 27.0136C87.4981 27.0136 87.9174 27.0473 88.1594 27.0971C88.287 27.1234 88.3025 27.1421 88.2673 27.1203C88.2242 27.0937 88.014 26.9379 88.014 26.6235H89.5921C89.5921 26.1761 89.3011 25.904 89.0966 25.7776C88.8998 25.6561 88.6731 25.5916 88.4777 25.5514C88.0737 25.4682 87.5239 25.4354 86.865 25.4354V27.0136ZM88.014 26.6235V35.9335H89.5921V26.6235H88.014ZM88.803 36.7226H91.729V35.1444H88.803V36.7226ZM91.729 36.7226C91.5993 36.7226 91.4849 36.6756 91.4054 36.6144C91.3375 36.5621 91.3164 36.5165 91.3221 36.5273C91.3267 36.5359 91.3432 36.5711 91.364 36.6462C91.3842 36.7193 91.4048 36.8168 91.4236 36.9427L92.9845 36.7103C92.9356 36.3821 92.8577 36.0537 92.7154 35.7862C92.5721 35.5167 92.2626 35.1444 91.729 35.1444V36.7226ZM91.4216 36.9286C91.455 37.1849 91.472 37.4484 91.472 37.7195H93.0501C93.0501 37.3826 93.029 37.0508 92.9865 36.7244L91.4216 36.9286ZM91.472 37.7195C91.472 37.9906 91.455 38.2695 91.4206 38.5565L92.9875 38.7445C93.029 38.3982 93.0501 38.0564 93.0501 37.7195H91.472ZM91.4257 38.5208C91.4041 38.6505 91.381 38.7518 91.3587 38.8286C91.3357 38.9072 91.3174 38.9463 91.3107 38.9587C91.3027 38.9736 91.3215 38.9316 91.3861 38.8816C91.4622 38.8226 91.5763 38.7734 91.71 38.7734V40.3516C92.247 40.3516 92.5561 39.973 92.6984 39.7103C92.8428 39.4437 92.9267 39.114 92.9824 38.7802L91.4257 38.5208ZM91.71 38.7734H85.858V40.3516H91.71V38.7734ZM85.858 38.7734C85.8423 38.7734 85.8354 38.7719 85.835 38.7718C85.8348 38.7717 85.8357 38.7719 85.8374 38.7726C85.8392 38.7732 85.8414 38.7741 85.8437 38.7753C85.8487 38.7779 85.851 38.78 85.8502 38.7793C85.8492 38.7784 85.8429 38.7726 85.8327 38.7585L84.5534 39.6825C84.8647 40.1136 85.3232 40.3516 85.858 40.3516V38.7734ZM85.8327 38.7585C85.7688 38.67 85.7351 38.5733 85.7351 38.4415H84.157C84.157 38.8923 84.2879 39.315 84.5534 39.6825L85.8327 38.7585ZM97.0599 35.9335H96.2708V36.7226H97.0599V35.9335ZM100.461 36.8265L101.243 36.7244L101.242 36.7173L101.241 36.7103L100.461 36.8265ZM100.461 38.6505L101.239 38.7802L101.242 38.7624L101.244 38.7445L100.461 38.6505ZM93.4499 39.2205L94.0895 38.7585L93.4499 39.2205ZM93.9919 38.4415V26.6235H92.4138V38.4415H93.9919ZM93.9919 26.6235C93.9919 26.9341 93.7858 27.0901 93.7404 27.1184C93.704 27.1412 93.7177 27.1229 93.8432 27.0968C94.0813 27.0473 94.4953 27.0136 95.1219 27.0136V25.4354C94.4692 25.4354 93.9236 25.4682 93.522 25.5517C93.3277 25.5921 93.1016 25.657 92.9052 25.7794C92.6999 25.9075 92.4138 26.1799 92.4138 26.6235H93.9919ZM95.1219 27.0136C95.755 27.0136 96.1742 27.0473 96.4163 27.0971C96.5438 27.1234 96.5594 27.1421 96.5241 27.1203C96.481 27.0937 96.2708 26.9379 96.2708 26.6235H97.8489C97.8489 26.1761 97.558 25.904 97.3534 25.7776C97.1566 25.6561 96.9299 25.5916 96.7345 25.5514C96.3305 25.4682 95.7808 25.4354 95.1219 25.4354V27.0136ZM96.2708 26.6235V35.9335H97.8489V26.6235H96.2708ZM97.0599 36.7226H99.9859V35.1444H97.0599V36.7226ZM99.9859 36.7226C99.8561 36.7226 99.7417 36.6756 99.6622 36.6144C99.5943 36.5621 99.5732 36.5165 99.579 36.5273C99.5836 36.5359 99.6 36.5711 99.6208 36.6462C99.641 36.7193 99.6617 36.8168 99.6804 36.9427L101.241 36.7103C101.192 36.3821 101.115 36.0537 100.972 35.7862C100.829 35.5167 100.519 35.1444 99.9859 35.1444V36.7226ZM99.6784 36.9286C99.7119 37.1849 99.7288 37.4484 99.7288 37.7195H101.307C101.307 37.3826 101.286 37.0508 101.243 36.7244L99.6784 36.9286ZM99.7288 37.7195C99.7288 37.9906 99.7119 38.2695 99.6774 38.5565L101.244 38.7445C101.286 38.3982 101.307 38.0564 101.307 37.7195H99.7288ZM99.6825 38.5208C99.6609 38.6505 99.6379 38.7518 99.6155 38.8286C99.5925 38.9072 99.5743 38.9463 99.5676 38.9587C99.5595 38.9736 99.5783 38.9316 99.643 38.8816C99.7191 38.8226 99.8332 38.7734 99.9669 38.7734V40.3516C100.504 40.3516 100.813 39.973 100.955 39.7103C101.1 39.4437 101.184 39.114 101.239 38.7802L99.6825 38.5208ZM99.9669 38.7734H94.1149V40.3516H99.9669V38.7734ZM94.1149 38.7734C94.0992 38.7734 94.0922 38.7719 94.0919 38.7718C94.0916 38.7717 94.0925 38.7719 94.0943 38.7726C94.0961 38.7732 94.0982 38.7741 94.1005 38.7753C94.1056 38.7779 94.1079 38.78 94.1071 38.7793C94.106 38.7784 94.0997 38.7726 94.0895 38.7585L92.8102 39.6825C93.1216 40.1136 93.5801 40.3516 94.1149 40.3516V38.7734ZM94.0895 38.7585C94.0257 38.67 93.9919 38.5733 93.9919 38.4415H92.4138C92.4138 38.8923 92.5448 39.315 92.8102 39.6825L94.0895 38.7585Z" fill="#14110C" mask="url(#path-4-outside-1_25_975)"/>
</g>
</g>
<defs>
<filter id="filter0_d_25_975" x="0.421875" y="0" width="164.156" height="74.5234" filterUnits="userSpaceOnUse" color-interpolation-filters="sRGB">
<feFlood flood-opacity="0" result="BackgroundImageFix"/>
<feColorMatrix in="SourceAlpha" type="matrix" values="0 0 0 0 0 0 0 0 0 0 0 0 0 0 0 0 0 0 127 0" result="hardAlpha"/>
<feOffset dy="3.94531"/>
<feGaussianBlur stdDeviation="0.789062"/>
<feComposite in2="hardAlpha" operator="out"/>
<feColorMatrix type="matrix" values="0 0 0 0 0 0 0 0 0 0 0 0 0 0 0 0 0 0 0.18 0"/>
<feBlend mode="normal" in2="BackgroundImageFix" result="effect1_dropShadow_25_975"/>
<feBlend mode="normal" in="SourceGraphic" in2="effect1_dropShadow_25_975" result="shape"/>
</filter>
<filter id="filter1_f_25_975" x="3.09766" y="1.01099" width="158.805" height="66.978" filterUnits="userSpaceOnUse" color-interpolation-filters="sRGB">
<feFlood flood-opacity="0" result="BackgroundImageFix"/>
<feBlend mode="normal" in="SourceGraphic" in2="BackgroundImageFix" result="shape"/>
<feGaussianBlur stdDeviation="0.394531" result="effect1_foregroundBlur_25_975"/>
</filter>
<filter id="filter2_d_25_975" x="65.2732" y="26.0916" width="35.2446" height="16.0281" filterUnits="userSpaceOnUse" color-interpolation-filters="sRGB">
<feFlood flood-opacity="0" result="BackgroundImageFix"/>
<feColorMatrix in="SourceAlpha" type="matrix" values="0 0 0 0 0 0 0 0 0 0 0 0 0 0 0 0 0 0 127 0" result="hardAlpha"/>
<feOffset dy="2.36719"/>
<feComposite in2="hardAlpha" operator="out"/>
<feColorMatrix type="matrix" values="0 0 0 0 0.0784314 0 0 0 0 0.0666667 0 0 0 0 0.0470588 0 0 0 1 0"/>
<feBlend mode="normal" in2="BackgroundImageFix" result="effect1_dropShadow_25_975"/>
<feBlend mode="normal" in="SourceGraphic" in2="effect1_dropShadow_25_975" result="shape"/>
</filter>
<linearGradient id="paint0_linear_25_975" x1="82.5" y1="0" x2="82.5" y2="69" gradientUnits="userSpaceOnUse">
<stop stop-color="#AAD971" stop-opacity="0.1"/>
<stop offset="1" stop-color="#77AA4E" stop-opacity="0.1"/>
</linearGradient>
<linearGradient id="paint1_linear_25_975" x1="82.5" y1="1.80005" x2="82.5" y2="67.2" gradientUnits="userSpaceOnUse">
<stop stop-color="#F7FDE7"/>
<stop offset="0.161458" stop-color="#95C550"/>
<stop offset="0.854167" stop-color="#7AA745"/>
<stop offset="1" stop-color="#547D37"/>
</linearGradient>
<linearGradient id="paint2_linear_25_975" x1="82.6572" y1="4.80005" x2="82.6572" y2="39.3" gradientUnits="userSpaceOnUse">
<stop stop-color="white" stop-opacity="0.94"/>
<stop offset="1" stop-color="white" stop-opacity="0.15"/>
</linearGradient>
</defs>
</svg>
