<svg width="165" height="75" viewBox="0 0 165 75" fill="none" xmlns="http://www.w3.org/2000/svg">
<g filter="url(#filter0_d_25_982)">
<rect x="3.18359" y="1.18359" width="158.633" height="66.6328" rx="16.5703" fill="url(#paint0_linear_25_982)" stroke="black" stroke-width="2.36719"/>
<g filter="url(#filter1_f_25_982)">
<rect x="5.07031" y="2.98364" width="154.859" height="63.0328" rx="14.2031" stroke="#921DC9" stroke-width="2.36719"/>
</g>
<g style="mix-blend-mode:overlay">
<rect x="7.66016" y="4.80005" width="149.994" height="34.5" rx="10.6523" fill="url(#paint1_linear_25_982)"/>
</g>
<g filter="url(#filter2_d_25_982)">
<mask id="path-4-outside-1_25_982" maskUnits="userSpaceOnUse" x="27.7109" y="24.5625" width="110" height="16" fill="black">
<rect fill="white" x="27.7109" y="24.5625" width="110" height="16"/>
<path d="M30.6054 39.6005C29.4528 39.6005 28.8764 39.4738 28.8764 39.2205V26.9085C28.8764 26.4778 29.0728 26.2625 29.4654 26.2625H32.8094C34.6841 26.2625 36.0331 26.6488 36.8564 27.4215C37.6924 28.1942 38.1104 29.3152 38.1104 30.7845C38.1104 32.0005 37.7178 33.1152 36.9324 34.1285C36.5398 34.6352 35.9634 35.0405 35.2034 35.3445C34.4434 35.6485 33.5568 35.8005 32.5434 35.8005V39.2015C32.5434 39.3535 32.3028 39.4612 31.8214 39.5245C31.3528 39.5752 30.9474 39.6005 30.6054 39.6005ZM32.5434 29.5685V32.5705H32.7904C33.2338 32.5705 33.6074 32.4312 33.9114 32.1525C34.2154 31.8738 34.3674 31.4812 34.3674 30.9745C34.3674 30.4678 34.2598 30.1068 34.0444 29.8915C33.8418 29.6762 33.4744 29.5685 32.9424 29.5685H32.5434ZM39.5984 38.4415V26.6235C39.5984 26.3575 40.238 26.2245 41.5174 26.2245C42.8094 26.2245 43.4554 26.3575 43.4554 26.6235V35.9335H46.3814C46.6094 35.9335 46.7677 36.2312 46.8564 36.8265C46.8944 37.1178 46.9134 37.4155 46.9134 37.7195C46.9134 38.0235 46.8944 38.3338 46.8564 38.6505C46.755 39.2585 46.5904 39.5625 46.3624 39.5625H40.5104C40.2317 39.5625 40.01 39.4485 39.8454 39.2205C39.6807 38.9925 39.5984 38.7328 39.5984 38.4415ZM56.9752 39.6005C55.8732 39.6005 55.2779 39.4232 55.1892 39.0685L54.5622 36.6175H51.5412L50.9902 38.9735C50.9142 39.3662 50.3062 39.5625 49.1662 39.5625C48.5582 39.5625 48.1085 39.5308 47.8172 39.4675C47.5259 39.3915 47.3802 39.3345 47.3802 39.2965L50.7432 26.4335C50.7432 26.3322 51.6109 26.2815 53.3462 26.2815C55.0815 26.2815 55.9492 26.3322 55.9492 26.4335L59.2362 39.3155C59.2362 39.4042 58.9449 39.4738 58.3622 39.5245C57.7795 39.5752 57.3172 39.6005 56.9752 39.6005ZM52.0162 34.2045H54.0112L53.1562 30.2715H53.0422L52.0162 34.2045ZM65.9294 26.0915C66.8541 26.0915 67.6647 26.2245 68.3614 26.4905C69.0707 26.7438 69.4254 27.0922 69.4254 27.5355C69.4254 27.9788 69.2544 28.5298 68.9124 29.1885C68.5831 29.8345 68.3044 30.1575 68.0764 30.1575C68.0131 30.1575 67.9371 30.1258 67.8484 30.0625C67.7724 29.9865 67.5824 29.9105 67.2784 29.8345C66.9871 29.7458 66.7337 29.7015 66.5184 29.7015C65.7837 29.7015 65.1884 29.9612 64.7324 30.4805C64.2891 30.9998 64.0674 31.7978 64.0674 32.8745C64.0674 33.9385 64.2954 34.7302 64.7514 35.2495C65.2201 35.7688 65.8091 36.0285 66.5184 36.0285C66.8097 36.0285 67.1327 35.9905 67.4874 35.9145C67.8547 35.8258 68.1144 35.7055 68.2664 35.5535C68.2917 35.5282 68.3424 35.5155 68.4184 35.5155C68.4944 35.5155 68.6337 35.6612 68.8364 35.9525C69.0517 36.2312 69.2481 36.6048 69.4254 37.0735C69.6027 37.5295 69.6914 37.8842 69.6914 38.1375C69.6914 38.6315 69.3114 39.0242 68.5514 39.3155C67.7914 39.6068 66.8921 39.7525 65.8534 39.7525C64.1814 39.7525 62.8071 39.1635 61.7304 37.9855C60.6537 36.8075 60.1154 35.1482 60.1154 33.0075C60.1154 30.8542 60.6664 29.1632 61.7684 27.9345C62.8831 26.7058 64.2701 26.0915 65.9294 26.0915ZM77.3208 31.5445C77.5615 31.5445 77.6818 31.9878 77.6818 32.8745C77.6818 33.1405 77.6501 33.4572 77.5868 33.8245C77.5361 34.1792 77.4348 34.3565 77.2828 34.3565H74.8698V36.2565H78.3658C78.5811 36.2565 78.7268 36.5352 78.8028 37.0925C78.8408 37.3332 78.8598 37.5928 78.8598 37.8715C78.8598 38.1375 78.8218 38.4858 78.7458 38.9165C78.6698 39.3472 78.5431 39.5625 78.3658 39.5625H71.8678C71.3865 39.5625 71.1458 39.3662 71.1458 38.9735V26.7565C71.1458 26.4272 71.2915 26.2625 71.5828 26.2625H78.3848C78.6508 26.2625 78.7838 26.8262 78.7838 27.9535C78.7838 29.0682 78.6508 29.6255 78.3848 29.6255H74.8698V31.5445H77.3208ZM89.816 39.2585C89.816 39.5118 89.189 39.6385 87.935 39.6385C86.681 39.6385 86.054 39.5118 86.054 39.2585V29.7205H83.774C83.5586 29.7205 83.4066 29.4292 83.318 28.8465C83.28 28.5678 83.261 28.2828 83.261 27.9915C83.261 27.7002 83.28 27.4152 83.318 27.1365C83.4066 26.5538 83.5586 26.2625 83.774 26.2625H92.039C92.2543 26.2625 92.4063 26.5538 92.495 27.1365C92.533 27.4152 92.552 27.7002 92.552 27.9915C92.552 28.2828 92.533 28.5678 92.495 28.8465C92.4063 29.4292 92.2543 29.7205 92.039 29.7205H89.816V39.2585ZM97.2631 39.2965C97.2631 39.4992 96.6614 39.6005 95.4581 39.6005C94.2421 39.6005 93.6341 39.5055 93.6341 39.3155V26.9275C93.6341 26.4842 93.8684 26.2625 94.3371 26.2625H97.9661C101.297 26.2625 102.963 27.5608 102.963 30.1575C102.963 30.9428 102.811 31.6585 102.507 32.3045C102.203 32.9378 101.772 33.4445 101.215 33.8245L103.609 37.8145C103.508 38.1185 103.178 38.4668 102.621 38.8595C101.861 39.4042 101.234 39.6765 100.74 39.6765C100.246 39.6765 99.8787 39.4992 99.6381 39.1445L97.8521 34.9835H97.2631V39.2965ZM97.2631 29.6255V32.4755H97.3581C98.5614 32.4755 99.1631 31.9752 99.1631 30.9745C99.1631 30.5185 99.0427 30.1828 98.8021 29.9675C98.5741 29.7395 98.1941 29.6255 97.6621 29.6255H97.2631ZM113.771 39.6005C112.669 39.6005 112.074 39.4232 111.985 39.0685L111.358 36.6175H108.337L107.786 38.9735C107.71 39.3662 107.102 39.5625 105.962 39.5625C105.354 39.5625 104.904 39.5308 104.613 39.4675C104.322 39.3915 104.176 39.3345 104.176 39.2965L107.539 26.4335C107.539 26.3322 108.407 26.2815 110.142 26.2815C111.877 26.2815 112.745 26.3322 112.745 26.4335L116.032 39.3155C116.032 39.4042 115.741 39.4738 115.158 39.5245C114.575 39.5752 114.113 39.6005 113.771 39.6005ZM108.812 34.2045H110.807L109.952 30.2715H109.838L108.812 34.2045ZM117.291 38.6885V27.2885C117.291 26.9718 117.367 26.7248 117.519 26.5475C117.684 26.3575 117.893 26.2625 118.146 26.2625H121.319C123.333 26.2625 124.86 26.7692 125.898 27.7825C126.95 28.7958 127.475 30.3918 127.475 32.5705C127.475 37.2318 125.487 39.5625 121.509 39.5625H118.26C117.614 39.5625 117.291 39.2712 117.291 38.6885ZM120.939 29.8725V35.5535C120.939 35.8195 120.958 35.9905 120.996 36.0665C121.034 36.1298 121.148 36.1615 121.338 36.1615C122.035 36.1615 122.561 35.9018 122.915 35.3825C123.283 34.8632 123.466 34.0018 123.466 32.7985C123.466 31.5825 123.276 30.7908 122.896 30.4235C122.529 30.0562 121.94 29.8725 121.129 29.8725H120.939ZM135.174 31.5445C135.415 31.5445 135.535 31.9878 135.535 32.8745C135.535 33.1405 135.504 33.4572 135.44 33.8245C135.39 34.1792 135.288 34.3565 135.136 34.3565H132.723V36.2565H136.219C136.435 36.2565 136.58 36.5352 136.656 37.0925C136.694 37.3332 136.713 37.5928 136.713 37.8715C136.713 38.1375 136.675 38.4858 136.599 38.9165C136.523 39.3472 136.397 39.5625 136.219 39.5625H129.721C129.24 39.5625 128.999 39.3662 128.999 38.9735V26.7565C128.999 26.4272 129.145 26.2625 129.436 26.2625H136.238C136.504 26.2625 136.637 26.8262 136.637 27.9535C136.637 29.0682 136.504 29.6255 136.238 29.6255H132.723V31.5445H135.174Z"/>
</mask>
<path d="M30.6054 39.6005C29.4528 39.6005 28.8764 39.4738 28.8764 39.2205V26.9085C28.8764 26.4778 29.0728 26.2625 29.4654 26.2625H32.8094C34.6841 26.2625 36.0331 26.6488 36.8564 27.4215C37.6924 28.1942 38.1104 29.3152 38.1104 30.7845C38.1104 32.0005 37.7178 33.1152 36.9324 34.1285C36.5398 34.6352 35.9634 35.0405 35.2034 35.3445C34.4434 35.6485 33.5568 35.8005 32.5434 35.8005V39.2015C32.5434 39.3535 32.3028 39.4612 31.8214 39.5245C31.3528 39.5752 30.9474 39.6005 30.6054 39.6005ZM32.5434 29.5685V32.5705H32.7904C33.2338 32.5705 33.6074 32.4312 33.9114 32.1525C34.2154 31.8738 34.3674 31.4812 34.3674 30.9745C34.3674 30.4678 34.2598 30.1068 34.0444 29.8915C33.8418 29.6762 33.4744 29.5685 32.9424 29.5685H32.5434ZM39.5984 38.4415V26.6235C39.5984 26.3575 40.238 26.2245 41.5174 26.2245C42.8094 26.2245 43.4554 26.3575 43.4554 26.6235V35.9335H46.3814C46.6094 35.9335 46.7677 36.2312 46.8564 36.8265C46.8944 37.1178 46.9134 37.4155 46.9134 37.7195C46.9134 38.0235 46.8944 38.3338 46.8564 38.6505C46.755 39.2585 46.5904 39.5625 46.3624 39.5625H40.5104C40.2317 39.5625 40.01 39.4485 39.8454 39.2205C39.6807 38.9925 39.5984 38.7328 39.5984 38.4415ZM56.9752 39.6005C55.8732 39.6005 55.2779 39.4232 55.1892 39.0685L54.5622 36.6175H51.5412L50.9902 38.9735C50.9142 39.3662 50.3062 39.5625 49.1662 39.5625C48.5582 39.5625 48.1085 39.5308 47.8172 39.4675C47.5259 39.3915 47.3802 39.3345 47.3802 39.2965L50.7432 26.4335C50.7432 26.3322 51.6109 26.2815 53.3462 26.2815C55.0815 26.2815 55.9492 26.3322 55.9492 26.4335L59.2362 39.3155C59.2362 39.4042 58.9449 39.4738 58.3622 39.5245C57.7795 39.5752 57.3172 39.6005 56.9752 39.6005ZM52.0162 34.2045H54.0112L53.1562 30.2715H53.0422L52.0162 34.2045ZM65.9294 26.0915C66.8541 26.0915 67.6647 26.2245 68.3614 26.4905C69.0707 26.7438 69.4254 27.0922 69.4254 27.5355C69.4254 27.9788 69.2544 28.5298 68.9124 29.1885C68.5831 29.8345 68.3044 30.1575 68.0764 30.1575C68.0131 30.1575 67.9371 30.1258 67.8484 30.0625C67.7724 29.9865 67.5824 29.9105 67.2784 29.8345C66.9871 29.7458 66.7337 29.7015 66.5184 29.7015C65.7837 29.7015 65.1884 29.9612 64.7324 30.4805C64.2891 30.9998 64.0674 31.7978 64.0674 32.8745C64.0674 33.9385 64.2954 34.7302 64.7514 35.2495C65.2201 35.7688 65.8091 36.0285 66.5184 36.0285C66.8097 36.0285 67.1327 35.9905 67.4874 35.9145C67.8547 35.8258 68.1144 35.7055 68.2664 35.5535C68.2917 35.5282 68.3424 35.5155 68.4184 35.5155C68.4944 35.5155 68.6337 35.6612 68.8364 35.9525C69.0517 36.2312 69.2481 36.6048 69.4254 37.0735C69.6027 37.5295 69.6914 37.8842 69.6914 38.1375C69.6914 38.6315 69.3114 39.0242 68.5514 39.3155C67.7914 39.6068 66.8921 39.7525 65.8534 39.7525C64.1814 39.7525 62.8071 39.1635 61.7304 37.9855C60.6537 36.8075 60.1154 35.1482 60.1154 33.0075C60.1154 30.8542 60.6664 29.1632 61.7684 27.9345C62.8831 26.7058 64.2701 26.0915 65.9294 26.0915ZM77.3208 31.5445C77.5615 31.5445 77.6818 31.9878 77.6818 32.8745C77.6818 33.1405 77.6501 33.4572 77.5868 33.8245C77.5361 34.1792 77.4348 34.3565 77.2828 34.3565H74.8698V36.2565H78.3658C78.5811 36.2565 78.7268 36.5352 78.8028 37.0925C78.8408 37.3332 78.8598 37.5928 78.8598 37.8715C78.8598 38.1375 78.8218 38.4858 78.7458 38.9165C78.6698 39.3472 78.5431 39.5625 78.3658 39.5625H71.8678C71.3865 39.5625 71.1458 39.3662 71.1458 38.9735V26.7565C71.1458 26.4272 71.2915 26.2625 71.5828 26.2625H78.3848C78.6508 26.2625 78.7838 26.8262 78.7838 27.9535C78.7838 29.0682 78.6508 29.6255 78.3848 29.6255H74.8698V31.5445H77.3208ZM89.816 39.2585C89.816 39.5118 89.189 39.6385 87.935 39.6385C86.681 39.6385 86.054 39.5118 86.054 39.2585V29.7205H83.774C83.5586 29.7205 83.4066 29.4292 83.318 28.8465C83.28 28.5678 83.261 28.2828 83.261 27.9915C83.261 27.7002 83.28 27.4152 83.318 27.1365C83.4066 26.5538 83.5586 26.2625 83.774 26.2625H92.039C92.2543 26.2625 92.4063 26.5538 92.495 27.1365C92.533 27.4152 92.552 27.7002 92.552 27.9915C92.552 28.2828 92.533 28.5678 92.495 28.8465C92.4063 29.4292 92.2543 29.7205 92.039 29.7205H89.816V39.2585ZM97.2631 39.2965C97.2631 39.4992 96.6614 39.6005 95.4581 39.6005C94.2421 39.6005 93.6341 39.5055 93.6341 39.3155V26.9275C93.6341 26.4842 93.8684 26.2625 94.3371 26.2625H97.9661C101.297 26.2625 102.963 27.5608 102.963 30.1575C102.963 30.9428 102.811 31.6585 102.507 32.3045C102.203 32.9378 101.772 33.4445 101.215 33.8245L103.609 37.8145C103.508 38.1185 103.178 38.4668 102.621 38.8595C101.861 39.4042 101.234 39.6765 100.74 39.6765C100.246 39.6765 99.8787 39.4992 99.6381 39.1445L97.8521 34.9835H97.2631V39.2965ZM97.2631 29.6255V32.4755H97.3581C98.5614 32.4755 99.1631 31.9752 99.1631 30.9745C99.1631 30.5185 99.0427 30.1828 98.8021 29.9675C98.5741 29.7395 98.1941 29.6255 97.6621 29.6255H97.2631ZM113.771 39.6005C112.669 39.6005 112.074 39.4232 111.985 39.0685L111.358 36.6175H108.337L107.786 38.9735C107.71 39.3662 107.102 39.5625 105.962 39.5625C105.354 39.5625 104.904 39.5308 104.613 39.4675C104.322 39.3915 104.176 39.3345 104.176 39.2965L107.539 26.4335C107.539 26.3322 108.407 26.2815 110.142 26.2815C111.877 26.2815 112.745 26.3322 112.745 26.4335L116.032 39.3155C116.032 39.4042 115.741 39.4738 115.158 39.5245C114.575 39.5752 114.113 39.6005 113.771 39.6005ZM108.812 34.2045H110.807L109.952 30.2715H109.838L108.812 34.2045ZM117.291 38.6885V27.2885C117.291 26.9718 117.367 26.7248 117.519 26.5475C117.684 26.3575 117.893 26.2625 118.146 26.2625H121.319C123.333 26.2625 124.86 26.7692 125.898 27.7825C126.95 28.7958 127.475 30.3918 127.475 32.5705C127.475 37.2318 125.487 39.5625 121.509 39.5625H118.26C117.614 39.5625 117.291 39.2712 117.291 38.6885ZM120.939 29.8725V35.5535C120.939 35.8195 120.958 35.9905 120.996 36.0665C121.034 36.1298 121.148 36.1615 121.338 36.1615C122.035 36.1615 122.561 35.9018 122.915 35.3825C123.283 34.8632 123.466 34.0018 123.466 32.7985C123.466 31.5825 123.276 30.7908 122.896 30.4235C122.529 30.0562 121.94 29.8725 121.129 29.8725H120.939ZM135.174 31.5445C135.415 31.5445 135.535 31.9878 135.535 32.8745C135.535 33.1405 135.504 33.4572 135.44 33.8245C135.39 34.1792 135.288 34.3565 135.136 34.3565H132.723V36.2565H136.219C136.435 36.2565 136.58 36.5352 136.656 37.0925C136.694 37.3332 136.713 37.5928 136.713 37.8715C136.713 38.1375 136.675 38.4858 136.599 38.9165C136.523 39.3472 136.397 39.5625 136.219 39.5625H129.721C129.24 39.5625 128.999 39.3662 128.999 38.9735V26.7565C128.999 26.4272 129.145 26.2625 129.436 26.2625H136.238C136.504 26.2625 136.637 26.8262 136.637 27.9535C136.637 29.0682 136.504 29.6255 136.238 29.6255H132.723V31.5445H135.174Z" fill="#F4F7EE"/>
<path d="M36.8564 27.4215L36.3165 27.9969L36.3209 28.001L36.8564 27.4215ZM36.9324 34.1285L37.5561 34.6119L37.5561 34.6119L36.9324 34.1285ZM35.2034 35.3445L34.9104 34.6119L34.9104 34.6119L35.2034 35.3445ZM32.5434 35.8005V35.0114H31.7544V35.8005H32.5434ZM31.8214 39.5245L31.9063 40.309L31.9153 40.308L31.9244 40.3068L31.8214 39.5245ZM32.5434 29.5685V28.7794H31.7544V29.5685H32.5434ZM32.5434 32.5705H31.7544V33.3596H32.5434V32.5705ZM33.9114 32.1525L34.4446 32.7342L34.4446 32.7342L33.9114 32.1525ZM34.0444 29.8915L33.4698 30.4323L33.478 30.441L33.4865 30.4495L34.0444 29.8915ZM30.6054 38.8114C30.043 38.8114 29.6802 38.7793 29.4781 38.7348C29.3711 38.7113 29.3725 38.6974 29.4189 38.728C29.4798 38.7682 29.6655 38.9277 29.6655 39.2205H28.0874C28.0874 39.6399 28.3451 39.9103 28.5502 40.0455C28.7406 40.1711 28.9581 40.2363 29.1393 40.2762C29.5135 40.3584 30.0152 40.3896 30.6054 40.3896V38.8114ZM29.6655 39.2205V26.9085H28.0874V39.2205H29.6655ZM29.6655 26.9085C29.6655 26.7977 29.6923 26.8618 29.6068 26.9556C29.5638 27.0028 29.5152 27.0306 29.4787 27.044C29.4467 27.0556 29.4373 27.0516 29.4654 27.0516V25.4734C29.1277 25.4734 28.7351 25.5694 28.4406 25.8924C28.1587 26.2015 28.0874 26.5887 28.0874 26.9085H29.6655ZM29.4654 27.0516H32.8094V25.4734H29.4654V27.0516ZM32.8094 27.0516C34.6078 27.0516 35.7101 27.4278 36.3165 27.9969L37.3964 26.8461C36.3561 25.8699 34.7604 25.4734 32.8094 25.4734V27.0516ZM36.3209 28.001C36.9515 28.5838 37.3214 29.4675 37.3214 30.7845H38.8995C38.8995 29.1628 38.4334 27.8045 37.392 26.842L36.3209 28.001ZM37.3214 30.7845C37.3214 31.8156 36.9931 32.7621 36.3088 33.6451L37.5561 34.6119C38.4424 33.4683 38.8995 32.1854 38.8995 30.7845H37.3214ZM36.3088 33.6451C36.0229 34.014 35.5755 34.3458 34.9104 34.6119L35.4965 36.0771C36.3514 35.7351 37.0567 35.2563 37.5561 34.6119L36.3088 33.6451ZM34.9104 34.6119C34.2629 34.8709 33.4795 35.0114 32.5434 35.0114V36.5896C33.6341 36.5896 34.624 36.4261 35.4965 36.0771L34.9104 34.6119ZM31.7544 35.8005V39.2015H33.3325V35.8005H31.7544ZM31.7544 39.2015C31.7544 39.0082 31.8382 38.8586 31.9196 38.7708C31.956 38.7315 31.9889 38.7073 32.0082 38.6946C32.0278 38.6817 32.0402 38.6762 32.0407 38.676C32.0416 38.6756 32.0355 38.6784 32.0202 38.6833C32.0052 38.6881 31.9839 38.6941 31.9555 38.7009C31.8978 38.7145 31.8199 38.7288 31.7185 38.7422L31.9244 40.3068C32.1885 40.2721 32.4594 40.2175 32.6852 40.1165C32.867 40.0352 33.3325 39.775 33.3325 39.2015H31.7544ZM31.7366 38.74C31.2864 38.7887 30.9108 38.8114 30.6054 38.8114V40.3896C30.9841 40.3896 31.4191 40.3617 31.9063 40.309L31.7366 38.74ZM31.7544 29.5685V32.5705H33.3325V29.5685H31.7544ZM32.5434 33.3596H32.7904V31.7814H32.5434V33.3596ZM32.7904 33.3596C33.415 33.3596 33.9836 33.1568 34.4446 32.7342L33.3783 31.5708C33.2313 31.7056 33.0525 31.7814 32.7904 31.7814V33.3596ZM34.4446 32.7342C34.9479 32.2728 35.1565 31.6479 35.1565 30.9745H33.5784C33.5784 31.3145 33.483 31.4748 33.3783 31.5708L34.4446 32.7342ZM35.1565 30.9745C35.1565 30.39 35.0381 29.7693 34.6024 29.3335L33.4865 30.4495C33.482 30.445 33.5054 30.465 33.5305 30.5493C33.5565 30.6363 33.5784 30.773 33.5784 30.9745H35.1565ZM34.619 29.3507C34.1848 28.8893 33.5318 28.7794 32.9424 28.7794V30.3576C33.1602 30.3576 33.3053 30.3802 33.395 30.4065C33.4828 30.4322 33.4891 30.4527 33.4698 30.4323L34.619 29.3507ZM32.9424 28.7794H32.5434V30.3576H32.9424V28.7794ZM43.4554 35.9335H42.6663V36.7226H43.4554V35.9335ZM46.8564 36.8265L47.6388 36.7244L47.6379 36.7173L47.6368 36.7103L46.8564 36.8265ZM46.8564 38.6505L47.6347 38.7802L47.6377 38.7624L47.6398 38.7445L46.8564 38.6505ZM39.8454 39.2205L40.4851 38.7585L40.4851 38.7585L39.8454 39.2205ZM40.3874 38.4415V26.6235H38.8093V38.4415H40.3874ZM40.3874 26.6235C40.3874 26.9341 40.1813 27.0901 40.1359 27.1184C40.0995 27.1412 40.1132 27.1229 40.2388 27.0968C40.4769 27.0473 40.8908 27.0136 41.5174 27.0136V25.4354C40.8647 25.4354 40.3191 25.4682 39.9175 25.5517C39.7232 25.5921 39.4971 25.657 39.3007 25.7794C39.0954 25.9075 38.8093 26.1799 38.8093 26.6235H40.3874ZM41.5174 27.0136C42.1505 27.0136 42.5698 27.0473 42.8118 27.0971C42.9393 27.1234 42.9549 27.1421 42.9196 27.1203C42.8765 27.0937 42.6663 26.9379 42.6663 26.6235H44.2444C44.2444 26.1761 43.9535 25.904 43.7489 25.7776C43.5521 25.6561 43.3254 25.5916 43.13 25.5514C42.726 25.4682 42.1763 25.4354 41.5174 25.4354V27.0136ZM42.6663 26.6235V35.9335H44.2444V26.6235H42.6663ZM43.4554 36.7226H46.3814V35.1444H43.4554V36.7226ZM46.3814 36.7226C46.2516 36.7226 46.1372 36.6756 46.0577 36.6144C45.9899 36.5621 45.9687 36.5165 45.9745 36.5273C45.9791 36.5359 45.9955 36.5711 46.0163 36.6462C46.0365 36.7193 46.0572 36.8168 46.0759 36.9427L47.6368 36.7103C47.588 36.3821 47.51 36.0537 47.3678 35.7862C47.2244 35.5167 46.9149 35.1444 46.3814 35.1444V36.7226ZM46.0739 36.9286C46.1074 37.1849 46.1243 37.4484 46.1243 37.7195H47.7024C47.7024 37.3826 47.6814 37.0508 47.6388 36.7244L46.0739 36.9286ZM46.1243 37.7195C46.1243 37.9906 46.1074 38.2695 46.0729 38.5565L47.6398 38.7445C47.6814 38.3982 47.7024 38.0564 47.7024 37.7195H46.1243ZM46.0781 38.5208C46.0564 38.6505 46.0334 38.7518 46.011 38.8286C45.9881 38.9072 45.9698 38.9463 45.9631 38.9587C45.955 38.9736 45.9738 38.9316 46.0385 38.8816C46.1146 38.8226 46.2287 38.7734 46.3624 38.7734V40.3516C46.8993 40.3516 47.2084 39.973 47.3507 39.7103C47.4951 39.4437 47.5791 39.114 47.6347 38.7802L46.0781 38.5208ZM46.3624 38.7734H40.5104V40.3516H46.3624V38.7734ZM40.5104 38.7734C40.4947 38.7734 40.4877 38.7719 40.4874 38.7718C40.4871 38.7717 40.488 38.7719 40.4898 38.7726C40.4916 38.7732 40.4937 38.7741 40.496 38.7753C40.5011 38.7779 40.5034 38.78 40.5026 38.7793C40.5015 38.7784 40.4952 38.7726 40.4851 38.7585L39.2057 39.6825C39.5171 40.1136 39.9756 40.3516 40.5104 40.3516V38.7734ZM40.4851 38.7585C40.4212 38.67 40.3874 38.5733 40.3874 38.4415H38.8093C38.8093 38.8923 38.9403 39.315 39.2057 39.6825L40.4851 38.7585ZM55.1892 39.0685L55.9547 38.8771L55.9537 38.8729L55.1892 39.0685ZM54.5622 36.6175L55.3267 36.4219L55.1748 35.8284H54.5622V36.6175ZM51.5412 36.6175V35.8284H50.9154L50.7729 36.4378L51.5412 36.6175ZM50.9902 38.9735L50.2219 38.7938L50.2184 38.8086L50.2155 38.8236L50.9902 38.9735ZM47.8172 39.4675L47.618 40.231L47.6337 40.2351L47.6496 40.2386L47.8172 39.4675ZM47.3802 39.2965L46.6168 39.0969L46.5912 39.1951V39.2965H47.3802ZM50.7432 26.4335L51.5066 26.6331L51.5323 26.5349V26.4335H50.7432ZM55.9492 26.4335H55.1602V26.5326L55.1846 26.6286L55.9492 26.4335ZM59.2362 39.3155H60.0253V39.2164L60.0008 39.1204L59.2362 39.3155ZM58.3622 39.5245L58.2939 38.7384L58.3622 39.5245ZM52.0162 34.2045L51.2527 34.0053L50.9949 34.9936H52.0162V34.2045ZM54.0112 34.2045V34.9936H54.9902L54.7823 34.0369L54.0112 34.2045ZM53.1562 30.2715L53.9273 30.1039L53.7922 29.4824H53.1562V30.2715ZM53.0422 30.2715V29.4824H52.4326L52.2787 30.0723L53.0422 30.2715ZM56.9752 38.8114C56.4513 38.8114 56.1164 38.7675 55.9275 38.7113C55.7056 38.6452 55.894 38.6344 55.9547 38.8771L54.4237 39.2599C54.5731 39.8573 55.1035 40.1125 55.477 40.2237C55.8834 40.3448 56.3972 40.3896 56.9752 40.3896V38.8114ZM55.9537 38.8729L55.3267 36.4219L53.7978 36.8131L54.4248 39.2641L55.9537 38.8729ZM54.5622 35.8284H51.5412V37.4066H54.5622V35.8284ZM50.7729 36.4378L50.2219 38.7938L51.7585 39.1532L52.3095 36.7972L50.7729 36.4378ZM50.2155 38.8236C50.2599 38.5945 50.4396 38.5982 50.2347 38.6644C50.0477 38.7248 49.7077 38.7734 49.1662 38.7734V40.3516C49.7647 40.3516 50.2988 40.3021 50.7197 40.1661C51.1228 40.036 51.6446 39.7452 51.7649 39.1234L50.2155 38.8236ZM49.1662 38.7734C48.5691 38.7734 48.1896 38.741 47.9848 38.6964L47.6496 40.2386C48.0275 40.3207 48.5473 40.3516 49.1662 40.3516V38.7734ZM48.0164 38.704C47.8787 38.6681 47.8056 38.6441 47.777 38.6329C47.7578 38.6254 47.7893 38.6355 47.8386 38.6676C47.8622 38.683 47.924 38.7252 47.9877 38.8C48.0483 38.8711 48.1693 39.042 48.1693 39.2965H46.5912C46.5912 39.5605 46.7167 39.7415 46.7864 39.8233C46.8592 39.9088 46.9347 39.9622 46.9765 39.9895C47.0622 40.0454 47.1483 40.0816 47.2019 40.1026C47.319 40.1484 47.4644 40.1909 47.618 40.231L48.0164 38.704ZM48.1436 39.4961L51.5066 26.6331L49.9798 26.2339L46.6168 39.0969L48.1436 39.4961ZM51.5323 26.4335C51.5323 26.7378 51.363 26.93 51.2733 27.0087C51.1862 27.0849 51.1058 27.1187 51.0824 27.1283C51.03 27.1497 51.004 27.1509 51.0421 27.1442C51.1043 27.1333 51.2302 27.1195 51.44 27.1072C51.85 27.0833 52.482 27.0706 53.3462 27.0706V25.4924C52.4751 25.4924 51.8056 25.5051 51.348 25.5318C51.1239 25.5449 50.9244 25.5627 50.7697 25.5898C50.6994 25.6021 50.592 25.6239 50.4853 25.6675C50.4349 25.6881 50.3341 25.7334 50.2335 25.8215C50.1302 25.912 49.9542 26.1166 49.9542 26.4335H51.5323ZM53.3462 27.0706C54.2104 27.0706 54.8424 27.0833 55.2525 27.1072C55.4622 27.1195 55.5881 27.1333 55.6504 27.1442C55.6885 27.1509 55.6625 27.1497 55.61 27.1283C55.5867 27.1187 55.5062 27.0849 55.4191 27.0087C55.3294 26.93 55.1602 26.7378 55.1602 26.4335H56.7383C56.7383 26.1166 56.5623 25.912 56.459 25.8215C56.3583 25.7334 56.2575 25.6881 56.2071 25.6675C56.1004 25.6239 55.9931 25.6021 55.9227 25.5898C55.768 25.5627 55.5685 25.5449 55.3445 25.5318C54.8868 25.5051 54.2173 25.4924 53.3462 25.4924V27.0706ZM55.1846 26.6286L58.4717 39.5106L60.0008 39.1204L56.7138 26.2384L55.1846 26.6286ZM58.4472 39.3155C58.4472 39.0921 58.5438 38.9261 58.6266 38.8307C58.702 38.7438 58.7769 38.7003 58.8048 38.6851C58.8596 38.6554 58.8845 38.6548 58.8342 38.6668C58.747 38.6877 58.5756 38.7139 58.2939 38.7384L58.4306 40.3106C58.7315 40.2844 58.9971 40.2505 59.2012 40.2017C59.2966 40.1789 59.4307 40.1411 59.5584 40.0717C59.6294 40.0331 60.0253 39.8113 60.0253 39.3155H58.4472ZM58.2939 38.7384C57.7204 38.7883 57.284 38.8114 56.9752 38.8114V40.3896C57.3504 40.3896 57.8387 40.3621 58.4306 40.3106L58.2939 38.7384ZM52.0162 34.9936H54.0112V33.4154H52.0162V34.9936ZM54.7823 34.0369L53.9273 30.1039L52.3852 30.4391L53.2402 34.3721L54.7823 34.0369ZM53.1562 29.4824H53.0422V31.0606H53.1562V29.4824ZM52.2787 30.0723L51.2527 34.0053L52.7797 34.4037L53.8057 30.4707L52.2787 30.0723ZM68.3614 26.4905L68.08 27.2277L68.088 27.2307L68.096 27.2336L68.3614 26.4905ZM68.9124 29.1885L68.2121 28.8249L68.2094 28.8301L68.9124 29.1885ZM67.8484 30.0625L67.2905 30.6204L67.3366 30.6666L67.3898 30.7046L67.8484 30.0625ZM67.2784 29.8345L67.0487 30.5894L67.0677 30.5952L67.087 30.6L67.2784 29.8345ZM64.7324 30.4805L64.1394 29.9598L64.1323 29.9682L64.7324 30.4805ZM64.7514 35.2495L64.1584 35.7702L64.1656 35.7781L64.7514 35.2495ZM67.4874 35.9145L67.6527 36.686L67.6627 36.6839L67.6726 36.6815L67.4874 35.9145ZM68.2664 35.5535L67.7085 34.9955L68.2664 35.5535ZM68.8364 35.9525L68.1887 36.4031L68.2 36.4193L68.212 36.435L68.8364 35.9525ZM69.4254 37.0735L68.6874 37.3528L68.69 37.3595L69.4254 37.0735ZM68.5514 39.3155L68.8338 40.0523L68.5514 39.3155ZM61.7304 37.9855L61.148 38.5178L61.148 38.5178L61.7304 37.9855ZM61.7684 27.9345L61.184 27.4043L61.181 27.4076L61.7684 27.9345ZM65.9294 26.8806C66.7801 26.8806 67.4918 27.0031 68.08 27.2277L68.6429 25.7533C67.8376 25.4459 66.928 25.3024 65.9294 25.3024V26.8806ZM68.096 27.2336C68.3933 27.3398 68.5419 27.4412 68.6065 27.5047C68.6351 27.5328 68.6402 27.5464 68.6388 27.5434C68.6367 27.5386 68.6363 27.5333 68.6363 27.5355H70.2145C70.2145 26.5573 69.4046 26.0252 68.6268 25.7474L68.096 27.2336ZM68.6363 27.5355C68.6363 27.7941 68.5303 28.2121 68.2121 28.8249L69.6127 29.5521C69.9785 28.8476 70.2145 28.1635 70.2145 27.5355H68.6363ZM68.2094 28.8301C68.0565 29.1301 67.9381 29.3081 67.859 29.3998C67.8202 29.4447 67.8105 29.4458 67.8327 29.4316C67.8567 29.4163 67.9424 29.3684 68.0764 29.3684V30.9466C68.5551 30.9466 68.8844 30.6271 69.0539 30.4307C69.2534 30.1994 69.439 29.8929 69.6154 29.5469L68.2094 28.8301ZM68.0764 29.3684C68.1751 29.3684 68.2447 29.3926 68.2754 29.4054C68.3065 29.4184 68.3176 29.4279 68.307 29.4204L67.3898 30.7046C67.5262 30.802 67.7675 30.9466 68.0764 30.9466V29.3684ZM68.4064 29.5046C68.2519 29.3501 68.0627 29.2642 67.942 29.2159C67.8014 29.1596 67.6403 29.1116 67.4698 29.069L67.087 30.6C67.2205 30.6334 67.3065 30.6614 67.3559 30.6811C67.38 30.6908 67.3855 30.6945 67.3785 30.6906C67.3744 30.6882 67.3371 30.6671 67.2905 30.6204L68.4064 29.5046ZM67.5082 29.0796C67.1705 28.9769 66.8364 28.9124 66.5184 28.9124V30.4906C66.6311 30.4906 66.8036 30.5148 67.0487 30.5894L67.5082 29.0796ZM66.5184 28.9124C65.5729 28.9124 64.7557 29.2581 64.1395 29.9599L65.3253 31.0011C65.6212 30.6642 65.9946 30.4906 66.5184 30.4906V28.9124ZM64.1323 29.9682C63.5138 30.6927 63.2783 31.7126 63.2783 32.8745H64.8565C64.8565 31.8831 65.0644 31.307 65.3325 30.9928L64.1323 29.9682ZM63.2783 32.8745C63.2783 34.0309 63.5232 35.0466 64.1585 35.7701L65.3443 34.7289C65.0677 34.4138 64.8565 33.8461 64.8565 32.8745H63.2783ZM64.1656 35.7781C64.7863 36.4659 65.5893 36.8176 66.5184 36.8176V35.2394C66.0288 35.2394 65.6539 35.0718 65.3372 34.7209L64.1656 35.7781ZM66.5184 36.8176C66.8769 36.8176 67.2563 36.771 67.6527 36.686L67.3221 35.143C67.0091 35.21 66.7426 35.2394 66.5184 35.2394V36.8176ZM67.6726 36.6815C68.0879 36.5813 68.5183 36.4175 68.8244 36.1115L67.7085 34.9955C67.7157 34.9883 67.6978 35.0085 67.6259 35.0418C67.5553 35.0745 67.4505 35.1117 67.3023 35.1475L67.6726 36.6815ZM68.8244 36.1115C68.6998 36.236 68.5686 36.2771 68.5148 36.2905C68.4562 36.3051 68.4185 36.3046 68.4184 36.3046V34.7264C68.3423 34.7264 68.2412 34.7322 68.132 34.7595C68.0276 34.7856 67.8583 34.8457 67.7085 34.9955L68.8244 36.1115ZM68.4184 36.3046C68.3034 36.3046 68.2137 36.2775 68.159 36.2558C68.1037 36.2339 68.0652 36.2099 68.0452 36.1964C68.0076 36.171 67.9949 36.1547 68.0097 36.1702C68.0376 36.1994 68.096 36.2699 68.1887 36.4031L69.4842 35.5019C69.3742 35.3438 69.2615 35.1958 69.1501 35.0793C69.0952 35.022 69.0208 34.951 68.9294 34.8892C68.8545 34.8386 68.6716 34.7264 68.4184 34.7264V36.3046ZM68.212 36.435C68.3642 36.6319 68.527 36.9289 68.6874 37.3527L70.1634 36.7943C69.9691 36.2808 69.7393 35.8304 69.4608 35.47L68.212 36.435ZM68.69 37.3595C68.8586 37.7931 68.9023 38.0356 68.9023 38.1375H70.4805C70.4805 37.7328 70.3469 37.2659 70.1608 36.7875L68.69 37.3595ZM68.9023 38.1375C68.9023 38.1572 68.9035 38.1876 68.8394 38.2538C68.7588 38.3371 68.5896 38.4558 68.269 38.5787L68.8338 40.0523C69.6772 39.729 70.4805 39.1444 70.4805 38.1375H68.9023ZM68.269 38.5787C67.6202 38.8274 66.821 38.9634 65.8534 38.9634V40.5416C66.9632 40.5416 67.9626 40.3863 68.8338 40.0523L68.269 38.5787ZM65.8534 38.9634C64.3911 38.9634 63.2322 38.459 62.3129 37.4532L61.148 38.5178C62.382 39.868 63.9718 40.5416 65.8534 40.5416V38.9634ZM62.3129 37.4532C61.409 36.4642 60.9045 35.0196 60.9045 33.0075H59.3263C59.3263 35.2768 59.8985 37.1508 61.148 38.5178L62.3129 37.4532ZM60.9045 33.0075C60.9045 30.9879 61.4192 29.5057 62.3558 28.4613L61.181 27.4076C59.9137 28.8207 59.3263 30.7204 59.3263 33.0075H60.9045ZM62.3528 28.4647C63.3179 27.4009 64.4926 26.8806 65.9294 26.8806V25.3024C64.0475 25.3024 62.4483 26.0107 61.184 27.4043L62.3528 28.4647ZM77.5868 33.8245L76.8092 33.6904L76.8073 33.7016L76.8057 33.7129L77.5868 33.8245ZM74.8698 34.3565V33.5674H74.0807V34.3565H74.8698ZM74.8698 36.2565H74.0807V37.0456H74.8698V36.2565ZM78.8028 37.0925L78.021 37.1991L78.0221 37.2074L78.0234 37.2156L78.8028 37.0925ZM78.7458 38.9165L77.9687 38.7794L77.9687 38.7794L78.7458 38.9165ZM74.8698 29.6255V28.8364H74.0807V29.6255H74.8698ZM74.8698 31.5445H74.0807V32.3336H74.8698V31.5445ZM77.3208 32.3336C77.2243 32.3336 77.1262 32.31 77.0379 32.2635C76.9532 32.219 76.8982 32.1644 76.8669 32.1259C76.8126 32.0593 76.8134 32.0222 76.83 32.0837C76.862 32.2015 76.8927 32.449 76.8927 32.8745H78.4709C78.4709 32.4133 78.4414 31.9958 78.3531 31.6703C78.3096 31.5101 78.2351 31.3068 78.0906 31.1294C77.9269 30.9284 77.6637 30.7554 77.3208 30.7554V32.3336ZM76.8927 32.8745C76.8927 33.0817 76.8677 33.3513 76.8092 33.6904L78.3644 33.9586C78.4326 33.5631 78.4709 33.1993 78.4709 32.8745H76.8927ZM76.8057 33.7129C76.7967 33.7758 76.7874 33.8168 76.7806 33.8405C76.7733 33.866 76.7727 33.8582 76.7877 33.832C76.8024 33.8062 76.8456 33.7393 76.9348 33.6768C77.0333 33.6079 77.156 33.5674 77.2828 33.5674V35.1456C77.7376 35.1456 78.0217 34.8534 78.1579 34.615C78.2819 34.398 78.3375 34.149 78.3679 33.9361L76.8057 33.7129ZM77.2828 33.5674H74.8698V35.1456H77.2828V33.5674ZM74.0807 34.3565V36.2565H75.6589V34.3565H74.0807ZM74.8698 37.0456H78.3658V35.4674H74.8698V37.0456ZM78.3658 37.0456C78.2345 37.0456 78.1164 36.9984 78.0321 36.9334C77.9947 36.9045 77.9704 36.8772 77.9566 36.8595C77.9496 36.8505 77.9447 36.8433 77.9417 36.8386C77.9388 36.8339 77.9374 36.8312 77.9373 36.831C77.9373 36.831 77.9411 36.8385 77.9474 36.8557C77.9537 36.8727 77.9615 36.8968 77.97 36.929C77.9874 36.9943 78.0051 37.083 78.021 37.1991L79.5846 36.9859C79.5424 36.6764 79.4719 36.3603 79.3358 36.1C79.1971 35.8345 78.8928 35.4674 78.3658 35.4674V37.0456ZM78.0234 37.2156C78.0541 37.4102 78.0707 37.6283 78.0707 37.8715H79.6489C79.6489 37.5574 79.6275 37.2561 79.5822 36.9694L78.0234 37.2156ZM78.0707 37.8715C78.0707 38.0718 78.0411 38.3691 77.9687 38.7794L79.5229 39.0536C79.6025 38.6026 79.6489 38.2032 79.6489 37.8715H78.0707ZM77.9687 38.7794C77.9541 38.8626 77.9391 38.9224 77.9264 38.9629C77.9132 39.0052 77.9064 39.0133 77.9137 39.0009C77.9203 38.9897 77.9547 38.9339 78.0332 38.8782C78.1214 38.8158 78.2382 38.7734 78.3658 38.7734V40.3516C78.8413 40.3516 79.1332 40.0403 79.2739 39.8011C79.408 39.5731 79.4789 39.3029 79.5229 39.0536L77.9687 38.7794ZM78.3658 38.7734H71.8678V40.3516H78.3658V38.7734ZM71.8678 38.7734C71.7985 38.7734 71.7657 38.7661 71.759 38.7643C71.754 38.7629 71.7839 38.7703 71.8251 38.8038C71.8696 38.8402 71.9028 38.8874 71.9214 38.9327C71.9379 38.9732 71.9349 38.9926 71.9349 38.9735H70.3567C70.3567 39.3387 70.4765 39.7403 70.8275 40.0267C71.1478 40.288 71.5401 40.3516 71.8678 40.3516V38.7734ZM71.9349 38.9735V26.7565H70.3567V38.9735H71.9349ZM71.9349 26.7565C71.9349 26.6913 71.9514 26.7897 71.8461 26.9088C71.7244 27.0463 71.5856 27.0516 71.5828 27.0516V25.4734C71.2887 25.4734 70.9314 25.561 70.664 25.8632C70.4131 26.1469 70.3567 26.4924 70.3567 26.7565H71.9349ZM71.5828 27.0516H78.3848V25.4734H71.5828V27.0516ZM78.3848 27.0516C78.1211 27.0516 77.9646 26.8937 77.9153 26.8241C77.88 26.7742 77.8925 26.7665 77.9161 26.8665C77.9609 27.0566 77.9947 27.4049 77.9947 27.9535H79.5729C79.5729 27.3747 79.5402 26.8776 79.452 26.504C79.4091 26.3222 79.3384 26.1031 79.2034 25.9123C79.0544 25.7018 78.7815 25.4734 78.3848 25.4734V27.0516ZM77.9947 27.9535C77.9947 28.4955 77.9609 28.8383 77.9165 29.0243C77.8932 29.1221 77.8813 29.1126 77.9178 29.0617C77.9688 28.9905 78.1251 28.8364 78.3848 28.8364V30.4146C78.7775 30.4146 79.0502 30.1909 79.201 29.9803C79.3371 29.7901 79.4084 29.5715 79.4516 29.3907C79.5402 29.0193 79.5729 28.5261 79.5729 27.9535H77.9947ZM78.3848 28.8364H74.8698V30.4146H78.3848V28.8364ZM74.0807 29.6255V31.5445H75.6589V29.6255H74.0807ZM74.8698 32.3336H77.3208V30.7554H74.8698V32.3336ZM86.054 29.7205H86.843V28.9314H86.054V29.7205ZM83.318 28.8465L82.5361 28.9531L82.5379 28.9652L83.318 28.8465ZM83.318 27.1365L82.5378 27.0178L82.5361 27.0299L83.318 27.1365ZM92.495 27.1365L93.2769 27.0299L93.2751 27.0178L92.495 27.1365ZM92.495 28.8465L93.2751 28.9652L93.2768 28.9531L92.495 28.8465ZM89.816 29.7205V28.9314H89.0269V29.7205H89.816ZM89.0269 39.2585C89.0269 38.9336 89.2472 38.7756 89.2894 38.7499C89.3263 38.7276 89.3132 38.7451 89.1895 38.7701C88.9556 38.8173 88.5493 38.8494 87.935 38.8494V40.4276C88.5746 40.4276 89.1089 40.3963 89.502 40.3169C89.6918 40.2786 89.9137 40.2169 90.1074 40.0996C90.3064 39.9789 90.605 39.7101 90.605 39.2585H89.0269ZM87.935 38.8494C87.3206 38.8494 86.9144 38.8173 86.6805 38.7701C86.5568 38.7451 86.5436 38.7276 86.5805 38.7499C86.6228 38.7756 86.843 38.9336 86.843 39.2585H85.2649C85.2649 39.7101 85.5636 39.9789 85.7626 40.0996C85.9562 40.2169 86.1782 40.2786 86.368 40.3169C86.7611 40.3963 87.2953 40.4276 87.935 40.4276V38.8494ZM86.843 39.2585V29.7205H85.2649V39.2585H86.843ZM86.054 28.9314H83.774V30.5096H86.054V28.9314ZM83.774 28.9314C83.9143 28.9314 84.0343 28.9839 84.1147 29.0476C84.183 29.1018 84.204 29.1484 84.198 29.137C84.1935 29.1284 84.1775 29.0935 84.1571 29.0194C84.1372 28.9473 84.1169 28.8514 84.0981 28.7278L82.5379 28.9652C82.5867 29.2856 82.6627 29.6059 82.7989 29.867C82.9322 30.1225 83.2342 30.5096 83.774 30.5096V28.9314ZM84.0998 28.7399C84.0668 28.4978 84.05 28.2484 84.05 27.9915H82.4719C82.4719 28.3172 82.4932 28.6379 82.5361 28.9531L84.0998 28.7399ZM84.05 27.9915C84.05 27.7346 84.0668 27.4852 84.0998 27.2431L82.5361 27.0299C82.4932 27.3451 82.4719 27.6658 82.4719 27.9915H84.05ZM84.0981 27.2552C84.1169 27.1316 84.1372 27.0357 84.1571 26.9636C84.1775 26.8895 84.1935 26.8546 84.198 26.846C84.204 26.8345 84.183 26.8812 84.1147 26.9354C84.0343 26.9991 83.9143 27.0516 83.774 27.0516V25.4734C83.2342 25.4734 82.9322 25.8605 82.7989 26.116C82.6627 26.3771 82.5867 26.6974 82.5379 27.0178L84.0981 27.2552ZM83.774 27.0516H92.039V25.4734H83.774V27.0516ZM92.039 27.0516C91.8987 27.0516 91.7787 26.9991 91.6983 26.9354C91.63 26.8812 91.6089 26.8345 91.6149 26.846C91.6194 26.8546 91.6354 26.8895 91.6559 26.9636C91.6757 27.0357 91.6961 27.1316 91.7149 27.2552L93.2751 27.0178C93.2263 26.6974 93.1503 26.3771 93.014 26.116C92.8807 25.8605 92.5787 25.4734 92.039 25.4734V27.0516ZM91.7131 27.2431C91.7462 27.4852 91.7629 27.7346 91.7629 27.9915H93.341C93.341 27.6658 93.3198 27.3451 93.2768 27.0299L91.7131 27.2431ZM91.7629 27.9915C91.7629 28.2484 91.7462 28.4978 91.7131 28.7399L93.2768 28.9531C93.3198 28.6379 93.341 28.3172 93.341 27.9915H91.7629ZM91.7149 28.7278C91.6961 28.8514 91.6757 28.9473 91.6559 29.0194C91.6354 29.0935 91.6194 29.1284 91.6149 29.137C91.6089 29.1484 91.63 29.1018 91.6983 29.0476C91.7787 28.9839 91.8987 28.9314 92.039 28.9314V30.5096C92.5787 30.5096 92.8807 30.1225 93.014 29.867C93.1503 29.6059 93.2263 29.2856 93.2751 28.9652L91.7149 28.7278ZM92.039 28.9314H89.816V30.5096H92.039V28.9314ZM89.0269 29.7205V39.2585H90.605V29.7205H89.0269ZM102.507 32.3045L103.218 32.646L103.221 32.6405L102.507 32.3045ZM101.215 33.8245L100.771 33.1726L100.155 33.592L100.538 34.2305L101.215 33.8245ZM103.609 37.8145L104.358 38.064L104.472 37.7197L104.286 37.4085L103.609 37.8145ZM102.621 38.8595L102.167 38.2144L102.161 38.2181L102.621 38.8595ZM99.6381 39.1445L98.913 39.4557L98.9428 39.5251L98.9852 39.5876L99.6381 39.1445ZM97.8521 34.9835L98.5772 34.6723L98.3721 34.1944H97.8521V34.9835ZM97.2631 34.9835V34.1944H96.474V34.9835H97.2631ZM97.2631 29.6255V28.8364H96.474V29.6255H97.2631ZM97.2631 32.4755H96.474V33.2646H97.2631V32.4755ZM98.8021 29.9675L98.2441 30.5255L98.2596 30.5409L98.2759 30.5555L98.8021 29.9675ZM96.474 39.2965C96.474 38.8856 96.7915 38.7267 96.7944 38.7252C96.8255 38.7095 96.8054 38.7254 96.6808 38.7464C96.4471 38.7858 96.0494 38.8114 95.4581 38.8114V40.3896C96.0701 40.3896 96.5749 40.3646 96.9429 40.3026C97.1191 40.2729 97.3246 40.2255 97.5061 40.1338C97.6594 40.0563 98.0521 39.8087 98.0521 39.2965H96.474ZM95.4581 38.8114C94.8596 38.8114 94.4534 38.7874 94.2119 38.7496C94.0832 38.7295 94.057 38.7135 94.083 38.7257C94.0969 38.7323 94.1687 38.7665 94.2449 38.8499C94.3327 38.9459 94.4231 39.1066 94.4231 39.3155H92.845C92.845 39.8557 93.2829 40.0936 93.4132 40.1547C93.5912 40.2381 93.793 40.2815 93.9683 40.3089C94.3348 40.3661 94.8406 40.3896 95.4581 40.3896V38.8114ZM94.4231 39.3155V26.9275H92.845V39.3155H94.4231ZM94.4231 26.9275C94.4231 26.884 94.4291 26.8792 94.4222 26.8988C94.4138 26.9227 94.3928 26.9634 94.3521 27.002C94.3123 27.0396 94.2766 27.0535 94.2668 27.0566C94.2603 27.0586 94.2797 27.0516 94.3371 27.0516V25.4734C93.9917 25.4734 93.586 25.5543 93.2676 25.8555C92.9409 26.1645 92.845 26.5727 92.845 26.9275H94.4231ZM94.3371 27.0516H97.9661V25.4734H94.3371V27.0516ZM97.9661 27.0516C99.551 27.0516 100.594 27.3641 101.229 27.8586C101.826 28.3239 102.174 29.0405 102.174 30.1575H103.752C103.752 28.6778 103.268 27.4469 102.199 26.6139C101.168 25.8101 99.7125 25.4734 97.9661 25.4734V27.0516ZM102.174 30.1575C102.174 30.8384 102.043 31.4378 101.793 31.9685L103.221 32.6405C103.579 31.8792 103.752 31.0472 103.752 30.1575H102.174ZM101.796 31.963C101.549 32.4766 101.208 32.8741 100.771 33.1726L101.66 34.4764C102.337 34.0149 102.857 33.399 103.218 32.646L101.796 31.963ZM100.538 34.2305L102.932 38.2205L104.286 37.4085L101.892 33.4185L100.538 34.2305ZM102.861 37.565C102.861 37.5631 102.856 37.58 102.832 37.6161C102.808 37.652 102.77 37.7007 102.713 37.7617C102.596 37.8854 102.419 38.0368 102.167 38.2145L103.076 39.5045C103.645 39.1034 104.169 38.6293 104.358 38.064L102.861 37.565ZM102.161 38.2181C101.433 38.7401 100.977 38.8874 100.74 38.8874V40.4656C101.491 40.4656 102.289 40.0683 103.081 39.5009L102.161 38.2181ZM100.74 38.8874C100.461 38.8874 100.361 38.804 100.291 38.7014L98.9852 39.5876C99.3969 40.1943 100.031 40.4656 100.74 40.4656V38.8874ZM100.363 38.8333L98.5772 34.6723L97.127 35.2947L98.913 39.4557L100.363 38.8333ZM97.8521 34.1944H97.2631V35.7726H97.8521V34.1944ZM96.474 34.9835V39.2965H98.0521V34.9835H96.474ZM96.474 29.6255V32.4755H98.0521V29.6255H96.474ZM97.2631 33.2646H97.3581V31.6864H97.2631V33.2646ZM97.3581 33.2646C98.0496 33.2646 98.7151 33.1238 99.2163 32.7069C99.7455 32.2669 99.9521 31.6387 99.9521 30.9745H98.374C98.374 31.311 98.2798 31.4333 98.2073 31.4936C98.1069 31.577 97.8699 31.6864 97.3581 31.6864V33.2646ZM99.9521 30.9745C99.9521 30.3893 99.796 29.798 99.3282 29.3795L98.2759 30.5555C98.2895 30.5677 98.374 30.6477 98.374 30.9745H99.9521ZM99.36 29.4095C98.9126 28.9621 98.2742 28.8364 97.6621 28.8364V30.4146C98.114 30.4146 98.2355 30.5169 98.2441 30.5255L99.36 29.4095ZM97.6621 28.8364H97.2631V30.4146H97.6621V28.8364ZM111.985 39.0685L112.751 38.8771L112.75 38.8729L111.985 39.0685ZM111.358 36.6175L112.123 36.4219L111.971 35.8284H111.358V36.6175ZM108.337 36.6175V35.8284H107.711L107.569 36.4378L108.337 36.6175ZM107.786 38.9735L107.018 38.7938L107.014 38.8086L107.011 38.8236L107.786 38.9735ZM104.613 39.4675L104.414 40.231L104.43 40.2351L104.445 40.2386L104.613 39.4675ZM104.176 39.2965L103.413 39.0969L103.387 39.1951V39.2965H104.176ZM107.539 26.4335L108.303 26.6331L108.328 26.5349V26.4335H107.539ZM112.745 26.4335H111.956V26.5326L111.981 26.6286L112.745 26.4335ZM116.032 39.3155H116.821V39.2164L116.797 39.1204L116.032 39.3155ZM115.158 39.5245L115.09 38.7384L115.158 39.5245ZM108.812 34.2045L108.049 34.0053L107.791 34.9936H108.812V34.2045ZM110.807 34.2045V34.9936H111.786L111.578 34.0369L110.807 34.2045ZM109.952 30.2715L110.723 30.1039L110.588 29.4824H109.952V30.2715ZM109.838 30.2715V29.4824H109.228L109.075 30.0723L109.838 30.2715ZM113.771 38.8114C113.247 38.8114 112.912 38.7675 112.723 38.7113C112.502 38.6452 112.69 38.6344 112.751 38.8771L111.22 39.2599C111.369 39.8573 111.899 40.1125 112.273 40.2237C112.679 40.3448 113.193 40.3896 113.771 40.3896V38.8114ZM112.75 38.8729L112.123 36.4219L110.594 36.8131L111.221 39.2641L112.75 38.8729ZM111.358 35.8284H108.337V37.4066H111.358V35.8284ZM107.569 36.4378L107.018 38.7938L108.554 39.1532L109.105 36.7972L107.569 36.4378ZM107.011 38.8236C107.056 38.5945 107.236 38.5982 107.031 38.6644C106.844 38.7248 106.504 38.7734 105.962 38.7734V40.3516C106.561 40.3516 107.095 40.3021 107.516 40.1661C107.919 40.036 108.44 39.7452 108.561 39.1234L107.011 38.8236ZM105.962 38.7734C105.365 38.7734 104.986 38.741 104.781 38.6964L104.445 40.2386C104.823 40.3207 105.343 40.3516 105.962 40.3516V38.7734ZM104.812 38.704C104.675 38.6681 104.601 38.6441 104.573 38.6329C104.554 38.6254 104.585 38.6355 104.634 38.6676C104.658 38.683 104.72 38.7252 104.784 38.8C104.844 38.8711 104.965 39.042 104.965 39.2965H103.387C103.387 39.5605 103.513 39.7415 103.582 39.8233C103.655 39.9088 103.731 39.9622 103.772 39.9895C103.858 40.0454 103.944 40.0816 103.998 40.1026C104.115 40.1484 104.26 40.1909 104.414 40.231L104.812 38.704ZM104.94 39.4961L108.303 26.6331L106.776 26.2339L103.413 39.0969L104.94 39.4961ZM108.328 26.4335C108.328 26.7378 108.159 26.93 108.069 27.0087C107.982 27.0849 107.902 27.1187 107.878 27.1283C107.826 27.1497 107.8 27.1509 107.838 27.1442C107.9 27.1333 108.026 27.1195 108.236 27.1072C108.646 27.0833 109.278 27.0706 110.142 27.0706V25.4924C109.271 25.4924 108.602 25.5051 108.144 25.5318C107.92 25.5449 107.72 25.5627 107.566 25.5898C107.495 25.6021 107.388 25.6239 107.281 25.6675C107.231 25.6881 107.13 25.7334 107.029 25.8215C106.926 25.912 106.75 26.1166 106.75 26.4335H108.328ZM110.142 27.0706C111.006 27.0706 111.638 27.0833 112.048 27.1072C112.258 27.1195 112.384 27.1333 112.446 27.1442C112.484 27.1509 112.458 27.1497 112.406 27.1283C112.383 27.1187 112.302 27.0849 112.215 27.0087C112.125 26.93 111.956 26.7378 111.956 26.4335H113.534C113.534 26.1166 113.358 25.912 113.255 25.8215C113.154 25.7334 113.053 25.6881 113.003 25.6675C112.896 25.6239 112.789 25.6021 112.719 25.5898C112.564 25.5627 112.364 25.5449 112.14 25.5318C111.683 25.5051 111.013 25.4924 110.142 25.4924V27.0706ZM111.981 26.6286L115.268 39.5106L116.797 39.1204L113.51 26.2384L111.981 26.6286ZM115.243 39.3155C115.243 39.0921 115.34 38.9261 115.423 38.8307C115.498 38.7438 115.573 38.7003 115.601 38.6851C115.656 38.6554 115.68 38.6548 115.63 38.6668C115.543 38.6877 115.371 38.7139 115.09 38.7384L115.226 40.3106C115.527 40.2844 115.793 40.2505 115.997 40.2017C116.092 40.1789 116.227 40.1411 116.354 40.0717C116.425 40.0331 116.821 39.8113 116.821 39.3155H115.243ZM115.09 38.7384C114.516 38.7883 114.08 38.8114 113.771 38.8114V40.3896C114.146 40.3896 114.635 40.3621 115.226 40.3106L115.09 38.7384ZM108.812 34.9936H110.807V33.4154H108.812V34.9936ZM111.578 34.0369L110.723 30.1039L109.181 30.4391L110.036 34.3721L111.578 34.0369ZM109.952 29.4824H109.838V31.0606H109.952V29.4824ZM109.075 30.0723L108.049 34.0053L109.576 34.4037L110.602 30.4707L109.075 30.0723ZM117.519 26.5475L116.923 26.0307L116.92 26.034L117.519 26.5475ZM125.898 27.7825L125.347 28.3473L125.351 28.3506L125.898 27.7825ZM120.939 29.8725V29.0834H120.15V29.8725H120.939ZM120.996 36.0665L120.291 36.4194L120.304 36.4465L120.32 36.4725L120.996 36.0665ZM122.915 35.3825L122.271 34.9268L122.264 34.9375L122.915 35.3825ZM122.896 30.4235L122.338 30.9815L122.348 30.9908L122.896 30.4235ZM118.08 38.6885V27.2885H116.502V38.6885H118.08ZM118.08 27.2885C118.08 27.1918 118.092 27.1314 118.102 27.0978C118.108 27.0815 118.112 27.0718 118.115 27.067C118.116 27.0646 118.117 27.0631 118.117 27.0623C118.118 27.0615 118.118 27.0611 118.118 27.061L116.92 26.034C116.608 26.3983 116.502 26.8508 116.502 27.2885H118.08ZM118.116 27.0643C118.124 27.0548 118.129 27.0509 118.13 27.0502C118.13 27.0497 118.129 27.0508 118.126 27.0521C118.123 27.0534 118.122 27.0536 118.123 27.0532C118.125 27.0528 118.132 27.0516 118.146 27.0516V25.4734C117.666 25.4734 117.239 25.6663 116.923 26.0307L118.116 27.0643ZM118.146 27.0516H121.319V25.4734H118.146V27.0516ZM121.319 27.0516C123.208 27.0516 124.505 27.5258 125.347 28.3473L126.449 27.2177C125.214 26.0125 123.458 25.4734 121.319 25.4734V27.0516ZM125.351 28.3506C126.186 29.1554 126.686 30.5011 126.686 32.5705H128.264C128.264 30.2825 127.714 28.4362 126.446 27.2144L125.351 28.3506ZM126.686 32.5705C126.686 34.8075 126.206 36.338 125.384 37.3023C124.581 38.2427 123.341 38.7734 121.509 38.7734V40.3516C123.655 40.3516 125.398 39.7169 126.584 38.3267C127.75 36.9604 128.264 34.9949 128.264 32.5705H126.686ZM121.509 38.7734H118.26V40.3516H121.509V38.7734ZM118.26 38.7734C118.156 38.7734 118.094 38.7613 118.064 38.7522C118.036 38.744 118.043 38.741 118.062 38.7581C118.071 38.766 118.079 38.7751 118.085 38.7841C118.09 38.7928 118.092 38.7981 118.092 38.7973C118.091 38.7945 118.08 38.7633 118.08 38.6885H116.502C116.502 39.1237 116.627 39.5886 117.005 39.9299C117.368 40.2573 117.835 40.3516 118.26 40.3516V38.7734ZM120.15 29.8725V35.5535H121.728V29.8725H120.15ZM120.15 35.5535C120.15 35.7018 120.155 35.8428 120.169 35.9684C120.181 36.0715 120.206 36.2502 120.291 36.4194L121.702 35.7136C121.717 35.7443 121.727 35.769 121.732 35.784C121.737 35.7995 121.739 35.8101 121.74 35.8143C121.742 35.8215 121.74 35.8164 121.738 35.7941C121.733 35.7487 121.728 35.6712 121.728 35.5535H120.15ZM120.32 36.4725C120.49 36.7565 120.759 36.8592 120.899 36.898C121.054 36.9409 121.209 36.9506 121.338 36.9506V35.3724C121.277 35.3724 121.281 35.3662 121.321 35.3775C121.347 35.3847 121.541 35.4398 121.673 35.6605L120.32 36.4725ZM121.338 36.9506C122.263 36.9506 123.048 36.588 123.567 35.8275L122.264 34.9375C122.074 35.2157 121.807 35.3724 121.338 35.3724V36.9506ZM123.56 35.8382C124.074 35.1112 124.255 34.0408 124.255 32.7985H122.677C122.677 33.9629 122.492 34.6152 122.271 34.9268L123.56 35.8382ZM124.255 32.7985C124.255 32.1557 124.206 31.5865 124.091 31.1086C123.979 30.6397 123.786 30.1862 123.445 29.8562L122.348 30.9908C122.386 31.0281 122.479 31.1541 122.557 31.4769C122.632 31.7907 122.677 32.2253 122.677 32.7985H124.255ZM123.454 29.8655C122.874 29.2855 122.035 29.0834 121.129 29.0834V30.6616C121.845 30.6616 122.184 30.8269 122.338 30.9815L123.454 29.8655ZM121.129 29.0834H120.939V30.6616H121.129V29.0834ZM135.44 33.8245L134.663 33.6904L134.661 33.7016L134.659 33.7129L135.44 33.8245ZM132.723 34.3565V33.5674H131.934V34.3565H132.723ZM132.723 36.2565H131.934V37.0456H132.723V36.2565ZM136.656 37.0925L135.874 37.1991L135.876 37.2074L135.877 37.2156L136.656 37.0925ZM136.599 38.9165L135.822 38.7794L135.822 38.7794L136.599 38.9165ZM132.723 29.6255V28.8364H131.934V29.6255H132.723ZM132.723 31.5445H131.934V32.3336H132.723V31.5445ZM135.174 32.3336C135.078 32.3336 134.98 32.31 134.891 32.2635C134.807 32.219 134.752 32.1644 134.72 32.1259C134.666 32.0593 134.667 32.0222 134.684 32.0837C134.716 32.2015 134.746 32.449 134.746 32.8745H136.324C136.324 32.4133 136.295 31.9958 136.207 31.6703C136.163 31.5101 136.089 31.3068 135.944 31.1294C135.78 30.9284 135.517 30.7554 135.174 30.7554V32.3336ZM134.746 32.8745C134.746 33.0817 134.721 33.3513 134.663 33.6904L136.218 33.9586C136.286 33.5631 136.324 33.1993 136.324 32.8745H134.746ZM134.659 33.7129C134.65 33.7758 134.641 33.8168 134.634 33.8405C134.627 33.866 134.626 33.8582 134.641 33.832C134.656 33.8062 134.699 33.7393 134.788 33.6768C134.887 33.6079 135.009 33.5674 135.136 33.5674V35.1456C135.591 35.1456 135.875 34.8534 136.011 34.615C136.135 34.398 136.191 34.149 136.221 33.9361L134.659 33.7129ZM135.136 33.5674H132.723V35.1456H135.136V33.5674ZM131.934 34.3565V36.2565H133.512V34.3565H131.934ZM132.723 37.0456H136.219V35.4674H132.723V37.0456ZM136.219 37.0456C136.088 37.0456 135.97 36.9984 135.886 36.9334C135.848 36.9045 135.824 36.8772 135.81 36.8595C135.803 36.8505 135.798 36.8433 135.795 36.8386C135.792 36.8339 135.791 36.8312 135.791 36.831C135.791 36.831 135.795 36.8385 135.801 36.8557C135.807 36.8727 135.815 36.8968 135.824 36.929C135.841 36.9943 135.859 37.083 135.874 37.1991L137.438 36.9859C137.396 36.6764 137.325 36.3603 137.189 36.1C137.051 35.8345 136.746 35.4674 136.219 35.4674V37.0456ZM135.877 37.2156C135.908 37.4102 135.924 37.6283 135.924 37.8715H137.502C137.502 37.5574 137.481 37.2561 137.436 36.9694L135.877 37.2156ZM135.924 37.8715C135.924 38.0718 135.895 38.3691 135.822 38.7794L137.376 39.0536C137.456 38.6026 137.502 38.2032 137.502 37.8715H135.924ZM135.822 38.7794C135.808 38.8626 135.793 38.9224 135.78 38.9629C135.767 39.0052 135.76 39.0133 135.767 39.0009C135.774 38.9897 135.808 38.9339 135.887 38.8782C135.975 38.8158 136.092 38.7734 136.219 38.7734V40.3516C136.695 40.3516 136.987 40.0403 137.127 39.8011C137.262 39.5731 137.332 39.3029 137.376 39.0536L135.822 38.7794ZM136.219 38.7734H129.721V40.3516H136.219V38.7734ZM129.721 38.7734C129.652 38.7734 129.619 38.7661 129.612 38.7643C129.608 38.7629 129.637 38.7703 129.679 38.8038C129.723 38.8402 129.756 38.8874 129.775 38.9327C129.791 38.9732 129.788 38.9926 129.788 38.9735H128.21C128.21 39.3387 128.33 39.7403 128.681 40.0267C129.001 40.288 129.394 40.3516 129.721 40.3516V38.7734ZM129.788 38.9735V26.7565H128.21V38.9735H129.788ZM129.788 26.7565C129.788 26.6913 129.805 26.7897 129.7 26.9088C129.578 27.0463 129.439 27.0516 129.436 27.0516V25.4734C129.142 25.4734 128.785 25.561 128.518 25.8632C128.267 26.1469 128.21 26.4924 128.21 26.7565H129.788ZM129.436 27.0516H136.238V25.4734H129.436V27.0516ZM136.238 27.0516C135.975 27.0516 135.818 26.8937 135.769 26.8241C135.734 26.7742 135.746 26.7665 135.77 26.8665C135.814 27.0566 135.848 27.4049 135.848 27.9535H137.426C137.426 27.3747 137.394 26.8776 137.306 26.504C137.263 26.3222 137.192 26.1031 137.057 25.9123C136.908 25.7018 136.635 25.4734 136.238 25.4734V27.0516ZM135.848 27.9535C135.848 28.4955 135.814 28.8383 135.77 29.0243C135.747 29.1221 135.735 29.1126 135.771 29.0617C135.822 28.9905 135.979 28.8364 136.238 28.8364V30.4146C136.631 30.4146 136.904 30.1909 137.054 29.9803C137.191 29.7901 137.262 29.5715 137.305 29.3907C137.394 29.0193 137.426 28.5261 137.426 27.9535H135.848ZM136.238 28.8364H132.723V30.4146H136.238V28.8364ZM131.934 29.6255V31.5445H133.512V29.6255H131.934ZM132.723 32.3336H135.174V30.7554H132.723V32.3336Z" fill="#14110C" mask="url(#path-4-outside-1_25_982)"/>
</g>
</g>
<defs>
<filter id="filter0_d_25_982" x="0.421875" y="0" width="164.156" height="74.5234" filterUnits="userSpaceOnUse" color-interpolation-filters="sRGB">
<feFlood flood-opacity="0" result="BackgroundImageFix"/>
<feColorMatrix in="SourceAlpha" type="matrix" values="0 0 0 0 0 0 0 0 0 0 0 0 0 0 0 0 0 0 127 0" result="hardAlpha"/>
<feOffset dy="3.94531"/>
<feGaussianBlur stdDeviation="0.789062"/>
<feComposite in2="hardAlpha" operator="out"/>
<feColorMatrix type="matrix" values="0 0 0 0 0 0 0 0 0 0 0 0 0 0 0 0 0 0 0.18 0"/>
<feBlend mode="normal" in2="BackgroundImageFix" result="effect1_dropShadow_25_982"/>
<feBlend mode="normal" in="SourceGraphic" in2="effect1_dropShadow_25_982" result="shape"/>
</filter>
<filter id="filter1_f_25_982" x="3.09766" y="1.01099" width="158.805" height="66.978" filterUnits="userSpaceOnUse" color-interpolation-filters="sRGB">
<feFlood flood-opacity="0" result="BackgroundImageFix"/>
<feBlend mode="normal" in="SourceGraphic" in2="BackgroundImageFix" result="shape"/>
<feGaussianBlur stdDeviation="0.394531" result="effect1_foregroundBlur_25_982"/>
</filter>
<filter id="filter2_d_25_982" x="28.8765" y="26.0916" width="107.837" height="16.0281" filterUnits="userSpaceOnUse" color-interpolation-filters="sRGB">
<feFlood flood-opacity="0" result="BackgroundImageFix"/>
<feColorMatrix in="SourceAlpha" type="matrix" values="0 0 0 0 0 0 0 0 0 0 0 0 0 0 0 0 0 0 127 0" result="hardAlpha"/>
<feOffset dy="2.36719"/>
<feComposite in2="hardAlpha" operator="out"/>
<feColorMatrix type="matrix" values="0 0 0 0 0.0784314 0 0 0 0 0.0666667 0 0 0 0 0.0470588 0 0 0 1 0"/>
<feBlend mode="normal" in2="BackgroundImageFix" result="effect1_dropShadow_25_982"/>
<feBlend mode="normal" in="SourceGraphic" in2="effect1_dropShadow_25_982" result="shape"/>
</filter>
<linearGradient id="paint0_linear_25_982" x1="82.5" y1="0" x2="82.5" y2="69" gradientUnits="userSpaceOnUse">
<stop stop-color="#AB71D9"/>
<stop offset="1" stop-color="#8D4EAA"/>
</linearGradient>
<linearGradient id="paint1_linear_25_982" x1="82.6572" y1="4.80005" x2="82.6572" y2="39.3" gradientUnits="userSpaceOnUse">
<stop stop-color="white" stop-opacity="0.94"/>
<stop offset="1" stop-color="white" stop-opacity="0.15"/>
</linearGradient>
</defs>
</svg>
